<svg width="281" height="304" viewBox="0 0 281 304" fill="none" xmlns="http://www.w3.org/2000/svg">
<g filter="url(#filter0_d_163_607)">
<path d="M229.363 132.118C231.041 133.086 230.5 135.636 228.573 135.839L176.609 141.323C175.747 141.414 175.042 142.05 174.862 142.897L164.02 194.013C163.618 195.909 161.026 196.182 160.237 194.413L138.963 146.686C138.61 145.895 137.788 145.421 136.926 145.512L84.9617 150.996C83.0349 151.199 81.9736 148.818 83.4128 147.521L122.229 112.54C122.873 111.96 123.07 111.032 122.717 110.24L101.443 62.5138C100.655 60.7441 102.591 58.999 104.269 59.967L149.533 86.0741C150.284 86.507 151.228 86.4073 151.871 85.8273L190.688 50.8463C192.127 49.5492 194.385 50.8517 193.983 52.7469L183.141 103.863C182.962 104.711 183.348 105.578 184.099 106.01L229.363 132.118Z" fill="#A3DEFF"/>
<path d="M120.051 241.352C121.021 243.029 119.279 244.967 117.508 244.181L94.9511 234.161C94.1593 233.809 93.231 234.008 92.6518 234.652L76.152 253.009C74.8568 254.449 72.4745 253.391 72.6754 251.464L75.2343 226.915C75.3241 226.053 74.8488 225.232 74.0569 224.88L51.5001 214.86C49.7295 214.074 49.9997 211.481 51.8945 211.077L76.0328 205.924C76.8802 205.743 77.5147 205.037 77.6045 204.176L80.1634 179.626C80.3643 177.699 82.9137 177.155 83.8839 178.832L96.2433 200.197C96.6771 200.947 97.5446 201.332 98.392 201.151L122.53 195.999C124.425 195.595 125.73 197.851 124.435 199.292L107.935 217.648C107.356 218.293 107.258 219.237 107.692 219.987L120.051 241.352Z" fill="#A3F9FF"/>
<path fill-rule="evenodd" clip-rule="evenodd" d="M178.474 145.149L228.993 139.817C234.773 139.207 236.396 131.557 231.361 128.653L187.356 103.272L197.896 53.5769C199.102 47.891 192.328 43.9838 188.01 47.8748L150.273 81.8831L106.268 56.502C101.233 53.598 95.4235 58.8335 97.7899 64.1423L118.472 110.542L80.735 144.55C76.4173 148.441 79.6013 155.584 85.3815 154.974L135.901 149.642L156.583 196.041C158.95 201.35 166.727 200.529 167.933 194.843L178.474 145.149ZM94.6553 238.407L115.884 247.837C121.196 250.196 126.424 244.38 123.513 239.349L111.882 219.242L127.41 201.966C131.296 197.643 127.38 190.874 121.695 192.087L98.978 196.936L87.3462 176.829C84.4358 171.798 76.7876 173.431 76.185 179.212L73.7767 202.316L51.0595 207.165C45.3752 208.378 44.5644 216.156 49.8763 218.516L71.1052 227.946L68.6969 251.05C68.0943 256.831 75.2414 260.005 79.1269 255.683L94.6553 238.407ZM93.3273 237.817L93.3296 237.818ZM228.573 135.839C230.5 135.636 231.041 133.086 229.363 132.118L184.099 106.01C183.348 105.578 182.962 104.711 183.141 103.863L193.983 52.7469C194.385 50.8517 192.127 49.5492 190.688 50.8463L151.871 85.8273C151.228 86.4073 150.284 86.507 149.533 86.0741L104.269 59.967C102.591 58.999 100.655 60.7441 101.443 62.5138L122.717 110.24C123.07 111.032 122.873 111.96 122.229 112.54L83.4128 147.521C81.9736 148.818 83.0349 151.199 84.9617 150.996L136.926 145.512C137.788 145.421 138.61 145.895 138.963 146.686L160.237 194.413C161.026 196.182 163.618 195.909 164.02 194.013L174.862 142.897C175.042 142.05 175.747 141.414 176.609 141.323L228.573 135.839ZM117.508 244.181C119.279 244.967 121.021 243.029 120.051 241.352L107.692 219.987C107.258 219.237 107.356 218.293 107.935 217.648L124.435 199.292C125.73 197.851 124.425 195.595 122.53 195.999L98.392 201.151C97.5446 201.332 96.6771 200.947 96.2433 200.197L83.8839 178.832C82.9137 177.155 80.3643 177.699 80.1634 179.626L77.6045 204.176C77.5147 205.037 76.8802 205.743 76.0328 205.924L51.8945 211.077C49.9997 211.481 49.7295 214.074 51.5001 214.86L74.0569 224.88C74.8488 225.232 75.3241 226.053 75.2343 226.915L72.6754 251.464C72.4745 253.391 74.8568 254.449 76.152 253.009L92.6518 234.652C93.231 234.008 94.1593 233.809 94.9511 234.161L117.508 244.181Z" fill="white"/>
</g>
<defs>
<filter id="filter0_d_163_607" x="0.310547" y="0.30835" width="280.059" height="303.381" filterUnits="userSpaceOnUse" color-interpolation-filters="sRGB">
<feFlood flood-opacity="0" result="BackgroundImageFix"/>
<feColorMatrix in="SourceAlpha" type="matrix" values="0 0 0 0 0 0 0 0 0 0 0 0 0 0 0 0 0 0 127 0" result="hardAlpha"/>
<feOffset/>
<feGaussianBlur stdDeviation="23"/>
<feComposite in2="hardAlpha" operator="out"/>
<feColorMatrix type="matrix" values="0 0 0 0 0 0 0 0 0 0 0 0 0 0 0 0 0 0 0.2 0"/>
<feBlend mode="normal" in2="BackgroundImageFix" result="effect1_dropShadow_163_607"/>
<feBlend mode="normal" in="SourceGraphic" in2="effect1_dropShadow_163_607" result="shape"/>
</filter>
</defs>
</svg>
