<svg width="18" height="18" viewBox="0 0 18 18" fill="none" xmlns="http://www.w3.org/2000/svg">
<path d="M9 0C4.02923 0 0 4.02923 0 9C0 13.9708 4.02961 18 9 18C13.9708 18 18 13.9704 18 9C18 4.02923 13.9708 0 9 0ZM15.2259 5.40008H12.7109C12.4796 4.22452 12.1371 3.1852 11.7153 2.33557C13.197 2.94158 14.4295 4.02823 15.2259 5.40008H15.2259ZM16.2002 9.00008C16.2002 9.62251 16.1125 10.2235 15.9631 10.8002H12.9687C13.0219 10.2184 13.0501 9.61661 13.0501 9.00008C13.0501 8.38354 13.0219 7.78174 12.9687 7.2H15.9631C16.1123 7.77661 16.2002 8.37764 16.2002 9.00008ZM8.99992 16.2003C8.60788 16.2003 7.66375 14.9448 7.13173 12.6003H10.8682C10.3361 14.9448 9.39197 16.2003 8.99988 16.2003H8.99992ZM6.8417 10.8002C6.7846 10.2394 6.74995 9.64188 6.74995 9.00015C6.74995 8.35843 6.7846 7.76088 6.8417 7.20008H11.1583C11.2152 7.76088 11.2499 8.35843 11.2499 9.00015C11.2499 9.64188 11.2152 10.2394 11.1581 10.8002H6.8417ZM1.79996 9.00015C1.79996 8.37772 1.8878 7.77669 2.03697 7.20008H5.03142C4.97824 7.78182 4.95006 8.38362 4.95006 9.00015C4.95006 9.61669 4.97824 10.2185 5.03142 10.8002H2.03697C1.8878 10.2236 1.79996 9.62259 1.79996 9.00015ZM9.00019 1.79992C9.39224 1.79992 10.3364 3.05533 10.8685 5.39992L7.13188 5.40007C7.66406 3.05548 8.60815 1.79992 9.00023 1.79992L9.00019 1.79992ZM6.28507 2.33557C5.86306 3.18504 5.52073 4.22456 5.28945 5.40008H2.77429C3.57072 4.02823 4.80325 2.94158 6.28511 2.33557H6.28507ZM2.77425 12.6H5.28926C5.52054 13.7755 5.86286 14.8148 6.28488 15.6643C4.80318 15.0585 3.57069 13.9718 2.77421 12.6H2.77425ZM11.7152 15.6645C12.1373 14.8148 12.4796 13.7755 12.7109 12.6H15.2259C14.4295 13.9718 13.1971 15.0585 11.7152 15.6645H11.7152Z" fill="white"/>
</svg>
