<svg width="38" height="38" viewBox="0 0 38 38" fill="none" xmlns="http://www.w3.org/2000/svg">
<path d="M10.3428 18H12.1628V12.449L14.4768 18H15.9198L18.2208 12.449V18H20.0408V8.89999H17.8568L15.1918 15.257L12.5398 8.89999H10.3428V18Z" fill="white"/>
<path d="M21.7305 18H28.0615V16.31H23.6805V14.191H27.0605V12.501H23.6805V10.577H27.9185V8.89999H21.7305V18Z" fill="white"/>
<path d="M10.8696 30H12.8196V23.981L16.4726 30H18.5526V20.9H16.6026V26.919L12.9496 20.9H10.8696V30Z" fill="white"/>
<path d="M23.6838 30.104C25.8418 30.104 27.3108 28.947 27.3108 26.646V20.9H25.4908V26.646C25.4908 27.842 24.7368 28.401 23.6838 28.401C22.6308 28.401 21.8898 27.842 21.8898 26.646V20.9H20.0568V26.646C20.0568 28.947 21.5388 30.104 23.6838 30.104Z" fill="white"/>
<path fill-rule="evenodd" clip-rule="evenodd" d="M19 36C28.3888 36 36 28.3888 36 19C36 9.61116 28.3888 2 19 2C9.61116 2 2 9.61116 2 19C2 28.3888 9.61116 36 19 36ZM19 38C29.4934 38 38 29.4934 38 19C38 8.50659 29.4934 0 19 0C8.50659 0 0 8.50659 0 19C0 29.4934 8.50659 38 19 38Z" fill="white"/>
</svg>
