<svg width="141" height="141" viewBox="0 0 141 141" fill="none" xmlns="http://www.w3.org/2000/svg">
<circle opacity="0.6" cx="70.5" cy="70.5" r="70.5" fill="#DBF7D4"/>
<path d="M59.8708 76.7106C63.1495 80.9749 65.1344 86.1313 65.58 91.5413L66.199 99.2819C66.199 99.3745 66.199 99.4519 66.2745 99.5293C66.2954 99.6454 66.3257 99.7595 66.3648 99.87C66.4161 99.9917 66.4821 100.106 66.5617 100.211C66.6136 100.299 66.6743 100.382 66.7424 100.458C66.8348 100.558 66.9419 100.641 67.0599 100.706L67.3168 100.876C67.4483 100.932 67.5845 100.973 67.724 101H68.4792C68.6147 100.976 68.7468 100.934 68.8722 100.876C68.968 100.829 69.059 100.772 69.1439 100.706C69.2511 100.632 69.3523 100.549 69.446 100.458C69.5215 100.381 69.5667 100.288 69.6422 100.195V100.196C69.7116 100.087 69.7723 99.973 69.8235 99.8548C69.8721 99.7207 69.8977 99.5797 69.899 99.4367C69.9314 99.351 69.9564 99.2632 69.9746 99.1734L70.8807 85.2404C71.1153 81.6971 71.9062 78.2159 73.2215 74.9303C75.4221 76.0396 77.8371 76.6319 80.2892 76.6644C82.1486 76.6796 83.9887 76.278 85.6809 75.4874C89.1901 73.7879 91.7332 70.5175 92.5672 66.632C94.1981 59.9752 102.686 56.3834 102.776 56.3522L102.777 56.3529C103.422 56.1041 103.883 55.5146 103.981 54.8152C104.079 54.1158 103.796 53.4171 103.245 52.9934C102.761 52.6064 91.1628 43.2555 78.8996 46.801C75.5555 47.6144 72.5378 49.4665 70.259 52.1047C67.9802 54.7427 66.5516 58.0372 66.1686 61.5391C65.6993 65.6574 67.1354 69.7641 70.05 72.6391C68.7083 75.7886 67.7934 79.1115 67.3315 82.5159C66.1712 79.4011 64.5349 76.4956 62.4839 73.9081C63.2795 72.3931 63.6065 70.6646 63.4197 68.9541C63.0274 64.5419 59.6138 59.2162 52.8481 57.2508C47.3277 55.6094 41.3777 56.6536 36.7041 60.0837C36.2045 60.4998 35.9435 61.146 36.0103 61.8018C36.0777 62.4577 36.4634 63.0341 37.0364 63.3347C38.8487 64.2636 43.7267 67.4221 44.5876 70.7809V70.7816C45.3144 73.6373 47.2791 75.994 49.9187 77.1752C51.3399 77.8449 52.8853 78.1932 54.4494 78.1966C56.1471 78.1953 57.8211 77.793 59.3422 77.0204C59.5391 76.9271 59.6901 76.8192 59.8708 76.7107L59.8708 76.7106ZM69.9287 61.9725C70.3062 57.7774 73.1454 52.5913 79.9266 50.594H79.9273C81.4686 50.1378 83.0645 49.9036 84.6691 49.8973C89.5255 50.1067 94.243 51.6175 98.3522 54.2784C95.12 56.2136 90.3027 59.96 88.9131 65.6569C88.3414 68.3945 86.5689 70.7083 84.1101 71.9268C81.1132 73.1612 77.7381 72.9801 74.8828 71.4313C76.8298 67.771 79.4263 64.5159 82.5398 61.833C83.3111 61.1412 83.4028 59.9448 82.7467 59.1384C82.0907 58.3312 80.9263 58.2082 80.1234 58.8613C76.7948 61.7142 73.9962 65.1595 71.8623 69.0317C70.3467 67.0261 69.6536 64.4939 69.9294 61.9727L69.9287 61.9725ZM51.4589 73.6606C49.8657 72.9577 48.6711 71.5506 48.212 69.8367C47.3362 66.2449 44.0891 63.3658 41.6121 61.6317C44.8692 60.1838 48.5181 59.9482 51.927 60.9662C53.8924 61.4085 55.6863 62.4369 57.084 63.9214C58.481 65.4059 59.4195 67.2809 59.7802 69.3107C59.8463 69.7932 59.8463 70.2831 59.7802 70.7656C58.0299 69.091 56.0997 67.6265 54.0265 66.3997C53.117 65.8696 51.9606 66.1958 51.4435 67.1275C50.9264 68.0598 51.2446 69.2451 52.1535 69.7752C54.0298 70.8713 55.7692 72.1969 57.3335 73.7228C55.4551 74.5549 53.3206 74.5321 51.4591 73.6606L51.4589 73.6606Z" fill="black"/>
</svg>
