<svg width="282" height="89" viewBox="0 0 282 89" fill="none" xmlns="http://www.w3.org/2000/svg">
<path fill-rule="evenodd" clip-rule="evenodd" d="M97.2819 12.716H107.873V15.7023H101.068V20.4387H107.625V23.4249H101.068V31.6493H97.2819V12.716ZM114.17 22.1888C114.17 18.9455 115.679 15.4575 119.465 15.4575C123.239 15.4575 125.008 18.9455 125.008 22.1888C125.008 25.6768 123.499 29.1649 119.465 29.1649C115.432 29.1649 114.17 25.6768 114.17 22.1888ZM110.137 22.1888C110.137 27.9165 113.415 32.1634 119.465 32.1634C125.515 32.1634 129.042 27.9288 129.042 22.1888C129.042 16.4488 125.515 12.4713 119.465 12.4713C113.415 12.4713 110.137 16.4488 110.137 22.1888ZM136.094 15.7023H137.356C139.125 15.7023 141.389 15.9471 141.389 18.199C141.389 20.6957 139.125 20.9405 137.356 20.9405H136.094V15.7023ZM132.06 31.6616H136.094V23.9389H137.096C138.865 23.9389 139.36 24.4407 139.867 25.9339L142.131 31.6616H146.412L143.393 24.4285C143.146 23.4372 142.391 22.4336 141.377 22.4336V22.1888C143.901 21.944 145.41 20.1939 145.41 17.9542C145.41 12.4713 140.362 12.716 136.341 12.716H132.06V31.6616ZM149.196 12.716H160.789V15.7023H153.229V20.4387H160.034V23.4249H153.229V28.6631H160.789V31.6493H149.196V12.716ZM174.906 16.2041C173.903 15.7023 172.382 15.4575 171.132 15.4575C169.87 15.4575 168.113 15.9593 168.113 17.9542C168.113 21.4422 176.427 19.9491 176.427 26.4356C176.427 30.4255 173.149 32.1634 169.375 32.1634C167.111 32.1634 166.356 31.9186 164.34 31.4168L164.587 27.9288C166.097 28.6753 167.606 29.1771 169.128 29.1771C170.637 29.1771 172.406 28.4306 172.406 26.6804C172.406 22.9476 164.092 24.4407 164.092 18.2112C164.092 13.9766 167.371 12.4835 170.897 12.4835C172.406 12.4835 173.916 12.7283 175.438 12.9853L174.906 16.2041ZM183.467 15.7023H177.924V12.716H192.796V15.7023H187.253V31.6616H183.467V15.7023ZM107.613 44.6224C106.351 44.1206 104.841 43.6311 103.579 43.6311C102.317 43.6311 100.561 44.3776 100.561 46.3725C100.561 49.6158 109.122 48.3674 109.122 54.5969C109.122 58.8315 105.596 60.3369 101.81 60.3369C99.7935 60.3369 98.7913 60.0921 96.7746 59.5903L97.2819 56.3471C98.5439 56.8489 100.053 57.3507 101.563 57.3507C103.072 57.3507 105.089 56.6041 105.089 54.854C105.089 51.3659 96.5272 52.859 96.5272 46.6295C96.5272 42.3949 99.8058 40.6448 103.332 40.6448C104.841 40.6448 106.351 40.8896 107.873 41.3914L107.613 44.6224ZM115.927 44.1206H110.384V41.1343H125.503V44.1206H119.96V60.0677H115.927V44.1206ZM127.78 41.1343H139.125V44.1206H131.813V48.6122H138.618V51.8555H131.813V57.0936H139.372V60.0799H127.78V41.1343ZM141.129 41.1343H145.41L148.936 56.3471L152.215 41.1343H157.51L160.789 56.3471H161.036L164.562 41.1343H168.348L163.313 60.0799H158.265L154.739 44.8672L151.46 60.0799H146.425L141.129 41.1343ZM180.189 52.602H174.646L177.417 44.8794L180.189 52.602ZM167.841 60.0799H171.874L173.384 55.5883H181.191L182.96 60.0799H187.241L179.681 41.1343H175.4L167.841 60.0799ZM193.303 44.1206H194.565C196.334 44.1206 198.598 44.1206 198.598 46.6173C198.598 48.857 196.334 49.114 194.565 49.114H193.303V44.1206ZM189.257 60.0799H193.291V52.1003H194.553C196.062 52.1003 196.569 52.602 197.077 54.0952L199.601 60.0799H203.881L200.603 52.602C200.355 51.8555 199.588 50.8519 198.586 50.6071C201.11 50.3623 202.619 48.3674 202.619 46.1155C202.619 40.8773 197.584 41.1343 193.551 41.1343H189.27L189.257 60.0799ZM210.439 44.1206H212.703C215.722 44.1206 219 46.3603 219 50.6071C219 54.5969 215.722 57.0814 212.703 57.0814H210.439V44.1206ZM206.653 60.0799H211.948C217.738 60.0799 223.034 58.085 223.034 50.6071C223.034 42.8845 217.738 41.1343 211.948 41.1343H206.653V60.0799ZM236.891 44.6224C235.629 44.1206 234.367 43.6311 232.857 43.6311C231.595 43.6311 229.839 44.3776 229.839 46.3725C229.839 49.6158 238.412 48.3674 238.412 54.5969C238.412 58.8315 234.886 60.3369 231.1 60.3369C229.084 60.3369 228.082 60.0921 226.065 59.5903L226.572 56.3471C227.834 56.8489 229.344 57.3507 230.853 57.3507C232.362 57.3507 234.379 56.6041 234.379 54.854C234.379 51.3659 225.818 52.859 225.818 46.6295C225.818 42.3949 229.096 40.6448 232.622 40.6448C234.391 40.6448 235.901 40.8896 237.163 41.3914L236.891 44.6224ZM241.939 41.1343H245.724V48.6122H253.531V41.1343H257.305V60.0799H253.531V51.8555H245.724V60.0799H241.939V41.1343ZM261.338 41.1343H265.372V60.0799H261.338V41.1343ZM272.931 44.1206H274.441C276.21 44.1206 277.967 44.8672 277.967 47.1068C277.967 49.1018 276.197 49.8483 274.441 49.8483H272.931V44.1206ZM269.145 60.0799H272.931V52.8468H274.688C278.721 52.8468 282 51.3537 282 46.8621C282 42.1257 278.226 41.1221 273.933 41.1221H269.145V60.0799ZM111.139 87.9964C109.877 88.4982 108.367 88.743 106.858 88.743C100.561 88.743 96.2797 85.7567 96.2797 79.2702C96.2797 72.5389 100.313 69.0509 106.858 69.0509C108.12 69.0509 109.877 69.2957 111.139 69.7974L110.891 73.0407C109.382 72.2941 108.12 72.0494 106.611 72.0494C102.825 72.0494 100.313 75.0356 100.313 79.0254C100.313 82.7583 102.577 85.7567 106.87 85.7567C108.38 85.7567 110.149 85.512 111.151 85.0102L111.139 87.9964ZM117.189 78.7807C117.189 75.5374 118.698 72.0494 122.484 72.0494C126.258 72.0494 128.027 75.5374 128.027 78.7807C128.027 82.2687 126.518 85.7567 122.484 85.7567C118.698 85.7567 117.189 82.2687 117.189 78.7807ZM113.156 78.7807C113.156 84.7654 116.434 88.7552 122.484 88.7552C128.534 88.7552 132.06 84.5206 132.06 78.7807C132.06 73.0407 128.534 69.0631 122.484 69.0631C116.434 69.0509 113.156 73.0407 113.156 78.7807ZM135.339 69.3079H139.125V80.2738C139.125 83.5171 140.387 85.7567 143.158 85.7567C146.177 85.7567 147.192 83.5171 147.192 80.2738V69.3079H151.225V81.5221C151.225 86.5033 148.206 88.7552 143.158 88.7552C138.37 88.7552 135.351 86.5155 135.351 81.5221L135.339 69.3079ZM155.246 69.3079H160.034L167.346 83.5171V69.3079H171.12V88.5105H166.332L159.02 74.0443V88.5105H155.234V69.3079H155.246ZM189.257 87.9964C187.995 88.4982 186.486 88.743 184.977 88.743C178.679 88.743 174.386 85.7567 174.386 79.2702C174.386 72.5389 178.419 69.0509 184.977 69.0509C186.239 69.0509 187.995 69.2957 189.257 69.7974L189.01 73.0407C187.501 72.2941 186.239 72.0494 184.977 72.0494C180.943 72.0494 178.419 75.0356 178.419 79.0254C178.419 82.7583 180.943 85.7567 184.977 85.7567C186.486 85.7567 188.255 85.512 189.257 85.0102V87.9964ZM191.781 69.3079H195.815V88.5105H191.781V69.3079ZM199.848 69.3079H203.622V85.512H211.181V88.4982H199.848V69.3079ZM74.0962 10.4763C76.8676 10.4763 79.3916 8.23666 79.3916 5.23817C79.3916 2.25193 76.8676 0 74.0962 0C71.0774 0 68.5535 2.23969 68.5535 5.23817C68.5535 8.22442 71.0774 10.4763 74.0962 10.4763ZM74.0962 9.47277C71.5723 9.47277 69.5556 7.72263 69.5556 5.23817C69.5556 2.99849 71.5723 1.00358 74.0962 1.00358C76.3604 1.00358 78.377 2.99849 78.377 5.23817C78.3894 7.73487 76.3727 9.47277 74.0962 9.47277ZM75.6057 6.22951C75.3582 6.97607 74.8509 7.22085 74.3437 7.22085C73.0817 7.22085 72.5744 6.22951 72.5744 5.22593C72.5744 4.22236 73.0817 3.23102 74.0839 3.23102C74.8386 3.23102 75.3458 3.4758 75.5933 4.22236H76.5954C76.5954 2.97401 75.5933 2.22745 74.0715 2.22745C72.3023 2.22745 71.3001 3.4758 71.3001 5.2137C71.3001 6.96383 72.3023 8.19994 74.3189 8.19994C75.3211 8.19994 76.5831 7.45338 76.5831 6.20503L75.6057 6.22951ZM23.7039 80.5186C26.7228 80.5186 27.9848 80.5186 28.492 83.26H29.2467C29.2467 81.0203 29.2467 78.7684 29.4942 76.5287H28.7395C27.9848 78.7684 26.4753 79.0254 23.9514 79.0254H21.4274V72.2941H23.6916C26.9702 72.2941 29.4818 72.2941 29.4818 75.7822H30.484L31.2387 71.0458H13.3607V71.7924C16.8868 72.2941 17.3941 72.0371 17.3941 76.7735V82.7583C17.3941 87.4946 16.8868 87.2499 13.3607 87.7394V88.486H26.2155V87.7516C21.18 87.5069 21.4274 86.2585 21.4274 82.7705V80.5308L23.7039 80.5186ZM47.3845 71.7924C45.8751 71.0458 44.1058 70.801 42.349 70.801C38.5631 70.801 34.7895 72.5512 34.7895 76.0392C34.7895 81.0203 44.8729 80.7756 44.8729 85.0102C44.8729 86.7603 43.3635 87.7516 41.3468 87.7516C37.8207 87.7516 35.5566 85.0102 34.5421 82.5135H33.5399L34.5421 87.7516C36.3113 88.4982 38.5754 89 40.5921 89C44.6255 89 48.6588 87.5069 48.6588 83.7618C48.6588 78.2789 38.8352 78.7807 38.8352 74.5338C38.8352 73.0407 40.0972 71.7924 41.8541 71.7924C45.1327 71.7924 45.64 74.2891 46.3947 76.284H47.1494L47.3845 71.7924ZM71.8321 72.0494C69.568 71.0458 67.044 70.801 64.5201 70.801C57.9628 70.801 51.6653 74.0443 51.6653 80.029C51.6653 86.0138 57.7153 89 64.2603 89C66.5244 89 68.8009 88.5105 71.065 87.7516L73.0817 82.5135L72.0796 82.2687C70.5701 85.0102 68.5535 87.7516 64.5201 87.7516C59.4846 87.7516 56.7132 83.26 56.7132 79.5272C56.7132 75.7822 59.2371 71.8046 64.2726 71.8046C68.0586 71.8046 70.0629 74.0443 70.83 77.0428H71.8321V72.0494ZM53.9418 54.5969C53.6944 61.83 54.944 65.0611 50.923 64.8163C32.5254 64.0697 34.7895 68.0595 34.5421 53.1038L25.9681 54.3399C22.6894 54.5847 20.4253 48.6 26.2155 48.1104C41.5943 46.6173 41.087 43.117 40.8272 58.5745H47.6319V48.1104C47.6319 46.3603 49.6486 45.1242 51.158 45.1242C54.1769 45.1242 53.9294 50.1053 60.4867 50.1053C64.7675 49.8606 67.7987 46.6173 67.7987 42.3827C67.7987 33.9013 61.5013 37.1445 61.5013 32.6652C61.5013 31.6738 62.0085 30.915 62.256 30.1685C63.7654 26.4356 62.7632 21.6993 59.4846 19.2026C57.4679 17.4524 53.6944 17.2076 53.4345 15.2127C53.1871 11.4799 52.4324 9.48501 48.399 7.23309C45.6276 5.73996 41.3468 5.98474 38.5754 7.73487C28.9869 13.4626 21.6873 41.8809 19.1633 53.5934C18.6561 56.0901 18.4086 59.8229 15.3898 59.8229C13.8804 59.8229 13.1256 58.8193 12.1111 57.828C8.58502 54.0829 6.06108 51.5985 3.04224 48.1104C1.78027 46.8621 0.270849 45.6137 0.0234031 43.6188C-0.224042 42.1257 1.53282 40.6326 3.30206 40.6326C5.07129 40.6326 5.826 42.1257 8.59739 44.8672C10.6141 47.3639 10.8615 47.6086 13.6329 50.3501C14.1402 48.6 14.3876 47.1068 14.8949 45.6137C16.9116 37.6341 18.9282 29.6544 22.2069 21.9318C25.7206 12.9608 31.5109 0 43.6109 0C47.6443 0 51.4179 1.49312 54.6965 4.2346C56.7132 5.98474 57.9752 7.97965 58.9773 10.7211C58.9773 10.9659 58.9773 10.9659 59.2248 11.9695C59.4722 12.2142 59.732 12.2142 60.2269 12.4713C60.7342 12.716 61.4889 12.973 61.9962 13.4626C66.5368 16.4488 69.3082 20.4387 69.0483 26.1786C69.0483 29.6667 68.8009 29.6667 68.5411 31.1598C68.7885 31.4046 70.5578 32.6529 71.3125 33.6565C73.3292 36.1532 74.0839 39.1394 74.0839 42.3827C74.0839 49.8606 68.0338 56.0901 60.2269 56.0901C57.9752 56.0901 55.9585 55.8453 53.9418 54.5969Z" fill="black"/>
</svg>
