<svg width="38" height="38" viewBox="0 0 38 38" fill="none" xmlns="http://www.w3.org/2000/svg">
<circle opacity="0.18" cx="19" cy="19" r="19" fill="#0C2F4A"/>
<g clip-path="url(#clip0_168_3526)">
<path d="M19 13.2617C20.869 13.2617 21.0907 13.2687 21.8292 13.3026C23.7262 13.3889 24.6122 14.289 24.6986 16.172C24.7324 16.9099 24.7388 17.1316 24.7388 19.0006C24.7388 20.8702 24.7318 21.0912 24.6986 21.8292C24.6117 23.7104 23.7279 24.6122 21.8292 24.6986C21.0907 24.7324 20.8702 24.7394 19 24.7394C17.131 24.7394 16.9093 24.7324 16.1714 24.6986C14.2697 24.6117 13.3883 23.7075 13.302 21.8286C13.2682 21.0907 13.2612 20.8696 13.2612 19C13.2612 17.131 13.2688 16.9099 13.302 16.1714C13.3889 14.289 14.2727 13.3883 16.1714 13.302C16.9099 13.2688 17.131 13.2617 19 13.2617ZM19 12C17.0989 12 16.8609 12.0082 16.1142 12.042C13.5721 12.1587 12.1592 13.5692 12.0426 16.1137C12.0082 16.8609 12 17.0989 12 19C12 20.9011 12.0082 21.1397 12.042 21.8863C12.1587 24.4285 13.5692 25.8413 16.1137 25.958C16.8609 25.9918 17.0989 26 19 26C20.9011 26 21.1397 25.9918 21.8863 25.958C24.4262 25.8413 25.8425 24.4308 25.9574 21.8863C25.9918 21.1397 26 20.9011 26 19C26 17.0989 25.9918 16.8609 25.958 16.1142C25.8437 13.5744 24.4314 12.1592 21.8869 12.0426C21.1397 12.0082 20.9011 12 19 12V12ZM19 15.4055C17.0149 15.4055 15.4055 17.0149 15.4055 19C15.4055 20.9851 17.0149 22.5951 19 22.5951C20.9851 22.5951 22.5945 20.9857 22.5945 19C22.5945 17.0149 20.9851 15.4055 19 15.4055ZM19 21.3333C17.7114 21.3333 16.6667 20.2892 16.6667 19C16.6667 17.7114 17.7114 16.6667 19 16.6667C20.2886 16.6667 21.3333 17.7114 21.3333 19C21.3333 20.2892 20.2886 21.3333 19 21.3333ZM22.7368 14.4237C22.2725 14.4237 21.8962 14.8 21.8962 15.2637C21.8962 15.7275 22.2725 16.1037 22.7368 16.1037C23.2006 16.1037 23.5762 15.7275 23.5762 15.2637C23.5762 14.8 23.2006 14.4237 22.7368 14.4237Z" fill="#0C2F4A"/>
</g>
<defs>
<clipPath id="clip0_168_3526">
<rect width="14" height="14" fill="white" transform="translate(12 12)"/>
</clipPath>
</defs>
</svg>
