<svg width="38" height="38" viewBox="0 0 38 38" fill="none" xmlns="http://www.w3.org/2000/svg">
<circle opacity="0.18" cx="19" cy="19" r="19" fill="#0C2F4A"/>
<g clip-path="url(#clip0_168_3530)">
<path d="M16.2825 14.6038C16.2825 15.2368 15.7738 15.7497 15.1458 15.7497C14.5179 15.7497 14.0092 15.2368 14.0092 14.6038C14.0092 13.9713 14.5179 13.458 15.1458 13.458C15.7738 13.458 16.2825 13.9713 16.2825 14.6038ZM16.2917 16.6663H14V23.9997H16.2917V16.6663ZM19.9501 16.6663H17.6731V23.9997H19.9505V20.1501C19.9505 18.0097 22.7138 17.8346 22.7138 20.1501V23.9997H25V19.3563C25 15.7446 20.9108 15.8762 19.9501 17.654V16.6663Z" fill="#0C2F4A"/>
</g>
<defs>
<clipPath id="clip0_168_3530">
<rect width="11" height="11" fill="white" transform="translate(14 13)"/>
</clipPath>
</defs>
</svg>
