<svg width="514" height="78" viewBox="0 0 514 78" fill="none" xmlns="http://www.w3.org/2000/svg">
<path d="M57.4793 1.29609H46.0553L30.4873 46.4321L18.6153 1.29609H0.247314L22.3113 76.0001H35.4153C40.7913 61.2161 46.7273 45.5361 51.9913 30.6401L69.6873 76.0001H83.0153L103.063 1.29609H84.8073C81.5593 15.9681 77.9753 31.5361 74.6153 46.3201L57.4793 1.29609Z" fill="white"/>
<path d="M153.485 31.3121H125.037V1.29609H108.909V76.0001H125.037V46.6561H153.485V76.0001H169.725V1.29609H153.485V31.3121Z" fill="white"/>
<path d="M227.834 76.0001H245.194L218.202 1.29609H202.41L175.418 76.0001H192.778L198.602 59.8721H222.01L227.834 76.0001ZM218.202 47.2161H202.41L210.25 23.1361L218.202 47.2161Z" fill="white"/>
<path d="M295.269 1.29609H239.717V15.7441H259.317V76.0001H275.557V15.7441H295.269V1.29609Z" fill="white"/>
<path d="M332.722 67.4881C340.114 73.8721 350.418 77.0081 359.714 77.0081C373.266 77.0081 388.05 70.4001 388.05 55.3921C388.05 38.9281 373.154 35.0081 361.282 31.8721C353.666 29.8561 347.17 28.0641 347.17 23.0241C347.17 16.3041 354.114 14.6241 359.714 14.6241C368.002 14.6241 377.858 18.4321 384.802 25.6001V9.58409C377.858 3.42409 368.45 0.288086 359.714 0.288086C346.162 0.288086 331.938 7.34409 331.938 22.1281C331.938 40.3841 348.85 43.1841 360.834 46.8801C367.106 48.6721 372.034 50.4641 372.034 54.4961C372.034 60.7681 365.762 62.5601 360.61 62.5601C351.426 62.5601 340.114 58.8641 332.722 51.4721V67.4881Z" fill="white"/>
<path d="M449.247 31.4241H412.959V15.6321H451.151V1.29609H396.719V76.0001H451.151V62.5601H412.959V46.6561H449.247V31.4241Z" fill="white"/>
<path d="M513.048 1.29609H457.496V15.7441H477.096V76.0001H493.336V15.7441H513.048V1.29609Z" fill="white"/>
</svg>
