<svg width="321" height="71" viewBox="0 0 321 71" fill="none" xmlns="http://www.w3.org/2000/svg">
<path d="M242.355 36.8876C242.355 32.4603 244.847 30.0732 248.203 30.0732C251.292 30.0732 252.775 31.7666 253.372 34.1741L251.23 34.7862C250.736 33.052 249.954 32.1543 248.183 32.1543C245.938 32.1543 244.62 33.8885 244.62 36.8876C244.62 40.0295 245.959 41.7433 248.224 41.7433C249.954 41.7433 250.922 40.8864 251.416 38.9074L253.557 39.3971C252.919 42.0086 251.272 43.7836 248.203 43.7836C244.785 43.7632 242.355 41.4373 242.355 36.8876ZM254.793 38.785C254.793 35.2962 257.12 33.8681 259.447 33.8681C261.774 33.8681 264.101 35.2962 264.101 38.785C264.101 42.2534 261.753 43.702 259.447 43.702C257.12 43.702 254.793 42.2534 254.793 38.785ZM261.877 38.785C261.877 37.0304 261.115 35.7451 259.447 35.7451C257.841 35.7451 257.017 36.8876 257.017 38.785C257.017 40.5804 257.758 41.8658 259.447 41.8658C261.053 41.8658 261.877 40.7232 261.877 38.785ZM265.666 43.5183V34.0517H267.869V35.3574C268.611 34.5617 269.682 33.8681 271.144 33.8681C272.75 33.8681 273.368 34.5005 273.759 35.4186C274.521 34.6025 275.653 33.8681 277.095 33.8681C279.031 33.8681 279.875 35.031 279.875 36.7244V43.5183H277.672V37.2752C277.672 36.2347 277.363 35.7451 276.333 35.7451C275.427 35.7451 274.706 36.2347 273.883 36.9692V43.5183H271.679V37.2752C271.679 36.2347 271.37 35.7451 270.341 35.7451C269.455 35.7451 268.714 36.2347 267.89 36.9692V43.5183H265.666ZM281.934 47.0683V34.0517H284.138V35.2962C284.776 34.5413 285.765 33.8681 287.185 33.8681C289.368 33.8681 290.954 35.5002 290.954 38.7646C290.954 42.0494 289.306 43.6408 286.877 43.6408C285.847 43.6408 284.838 43.2327 284.138 42.4574V47.0683H281.934ZM288.75 38.785C288.75 36.7856 287.886 35.7451 286.465 35.7451C285.538 35.7451 284.673 36.3163 284.138 36.9284V40.7232C284.735 41.4985 285.6 41.9066 286.382 41.9066C288.05 41.9066 288.75 40.8864 288.75 38.785ZM291.942 41.2333C291.942 39.1931 293.713 37.8057 298.161 37.316V37.0304C298.161 36.0919 297.667 35.6839 296.596 35.6839C295.258 35.6839 294.187 36.3163 293.384 36.9692L292.313 35.6022C293.343 34.6841 294.949 33.8885 296.926 33.8885C299.479 33.8885 300.365 35.1126 300.365 37.316V41.2129C300.365 42.3554 300.447 43.0491 300.633 43.5387H298.408C298.285 43.1511 298.182 42.8655 298.182 42.335C297.214 43.3143 296.082 43.6816 294.661 43.6816C293.096 43.6612 291.942 42.8043 291.942 41.2333ZM298.161 40.866V38.785C295.526 39.1318 294.105 39.7847 294.105 40.8252C294.105 41.5801 294.619 41.9678 295.443 41.9678C296.576 41.9678 297.461 41.5393 298.161 40.866ZM302.321 43.5183V34.0517H304.525V35.5614C305.245 34.7454 306.357 33.8681 307.943 33.8681C309.693 33.8681 310.764 34.7658 310.764 36.6224V43.4979H308.561V37.2344C308.561 36.1939 308.128 35.6635 307.119 35.6635C306.151 35.6635 305.328 36.1531 304.525 36.8876V43.4775H302.321V43.5183ZM311.32 46.9051L311.814 45.1505C312.082 45.2117 312.659 45.3545 313.441 45.3545C314.224 45.3545 314.656 45.0485 314.944 44.2936L315.212 43.5999L311.547 34.0925H313.853L316.324 40.9885H316.365L318.816 34.0925H321.019L316.963 44.5793C316.324 46.2318 315.5 47.2112 313.627 47.2112C312.453 47.1908 311.794 47.0275 311.32 46.9051ZM73.762 43.4979V32.3787H69.6641V30.3181H80.1046V32.3787H76.0066V43.4979H73.762ZM81.4431 43.4979V30.3181H83.6671V35.3166C84.2849 34.6841 85.4381 33.8476 87.1473 33.8476C88.8153 33.8476 89.9068 34.827 89.9068 36.704V43.4979H87.6827V37.2548C87.6827 36.2143 87.2297 35.7247 86.2618 35.7247C85.294 35.7247 84.4909 36.2143 83.6671 36.9488V43.4979H81.4431ZM91.41 38.7646C91.41 35.1738 93.9841 33.8476 95.961 33.8476C98.1027 33.8476 100.141 35.1126 100.141 38.9686V39.4787H93.6135C93.6958 41.1925 94.7666 41.9474 96.167 41.9474C97.4025 41.9474 98.1233 41.5393 98.844 40.8456L100.018 41.9882C99.0293 43.0695 97.7114 43.702 96.0022 43.702C93.634 43.6816 91.41 42.2534 91.41 38.7646ZM98.1233 37.8465C97.9997 36.3979 97.279 35.6431 95.9404 35.6431C94.8696 35.6431 93.8812 36.2551 93.6546 37.8465H98.1233ZM186.981 27.3801C186.981 27.3801 187.311 26.8905 187.578 26.5232C188.072 25.8499 188.999 24.9114 189.679 24.3198C189.885 24.1362 190.132 23.9321 190.132 23.9321C190.132 23.9321 189.74 23.9729 189.535 24.0137C189.02 24.1158 188.258 24.6258 187.867 24.9318C187.228 25.4623 186.549 26.3396 186.857 27.0945C186.899 27.2373 186.981 27.3801 186.981 27.3801ZM190.461 28.2982C191.45 28.237 192.376 27.9514 193.241 27.4821C194.086 27.0129 195.342 26.0948 195.218 25.0135C195.177 24.6666 194.95 24.4014 194.662 24.279C194.291 24.1158 194.086 24.1362 193.591 24.279C193.241 24.381 193.076 24.4422 192.747 24.6258C191.779 25.1767 190.399 26.3804 189.638 27.3393C189.473 27.5637 189.287 27.8086 189.143 27.9922C189.061 28.0942 188.999 28.1962 188.999 28.2166C189.061 28.339 190.091 28.3186 190.461 28.2982ZM187.949 30.1344C187.846 30.2364 187.743 30.5017 187.619 30.6853C187.558 30.7873 187.455 30.9097 187.372 30.9709C187.105 31.1545 186.899 31.1749 186.652 30.9505C186.301 30.6445 186.096 30.1752 186.096 29.706C186.096 29.502 186.116 29.2775 186.075 29.1143C186.013 28.8287 185.725 28.5431 185.56 28.2574C185.375 27.931 185.231 27.3801 185.21 27.0129C185.148 25.8703 185.745 24.8298 186.528 24.0137C187.311 23.1772 188.34 22.4836 189.473 22.0143C190.523 21.5655 192.088 21.2594 193.241 21.6675C193.612 21.7899 194.147 22.1163 194.415 22.4428C194.477 22.504 194.518 22.5856 194.58 22.6264C194.621 22.6672 194.765 22.6672 194.868 22.6876C195.239 22.7488 195.774 23.0344 196.001 23.2181C196.433 23.5853 196.68 23.9525 196.783 24.4626C197.01 25.5031 196.392 26.666 195.712 27.3597C194.518 28.5635 193.344 29.3999 191.841 29.9916C191.182 30.2568 190.132 30.4813 189.37 30.4201C189.143 30.3997 188.896 30.3385 188.67 30.3181C188.546 30.3181 188.134 30.1956 188.072 30.1752C188.031 30.1548 187.949 30.1344 187.949 30.1344ZM151.726 33.2356C152.365 33.1948 152.756 33.1744 153.25 32.9499C153.518 32.8275 153.847 32.5827 153.683 32.2563C153.58 32.0727 153.25 31.991 153.065 32.0114C152.406 32.0522 151.932 32.5419 151.706 33.1744C151.685 33.2152 151.685 33.2356 151.726 33.2356ZM154.486 31.6238C154.856 32.0726 155.021 32.6235 155.062 33.1948C155.103 33.7864 154.918 34.3577 154.589 34.8066C154.012 35.5818 153.065 35.9491 152.117 36.0307C151.994 36.0307 151.211 36.0715 151.005 36.0103C150.964 35.9899 150.944 35.9899 150.923 35.9899C150.903 35.9899 150.779 36.5203 150.738 36.704C150.655 37.3568 150.552 37.8261 150.47 38.3362C150.408 38.7442 150.367 39.1931 150.326 39.6215C150.12 42.1718 150.182 43.4163 150.388 45.9054C150.408 46.0482 150.408 46.2318 150.388 46.3339C150.326 46.6399 150.141 46.8439 149.852 46.9255C148.967 47.1499 148.122 46.2931 147.69 45.5994C146.681 43.9672 147.01 40.662 147.299 39.0094C147.422 38.3362 147.731 36.8264 147.937 36.2755C148.061 35.9899 148.225 35.4186 148.225 35.3778C148.205 35.3574 147.752 35.1738 147.319 35.0106C147.155 34.9494 146.619 34.6841 146.393 34.5413C145.919 34.2557 145.59 34.0109 145.281 33.6436C145.178 33.5212 144.848 33.052 144.807 32.9295C144.539 32.3379 144.519 31.8074 144.766 31.1749C144.828 31.0117 145.157 30.3385 145.363 30.3589C145.672 30.3793 145.61 30.9097 145.693 31.1749C145.713 31.277 145.816 31.4198 145.878 31.5014C146.31 32.0114 147.772 32.5827 148.37 32.7459C148.452 32.7663 149.399 33.052 149.523 32.9908C149.564 32.9704 149.729 32.6643 149.852 32.4603C149.914 32.3583 149.976 32.2767 150.058 32.1951C150.635 31.583 151.479 31.0117 152.303 30.8485C152.673 30.7669 153.394 30.8281 153.765 31.0525C153.868 31.1137 154.156 31.2158 154.486 31.6238ZM145.631 38.8258C145.651 38.8258 145.693 38.8462 145.734 38.8462C146.166 39.0298 146.166 39.7847 146.063 40.152C145.775 41.0905 144.889 42.0698 144.169 42.5594C143.736 42.8451 142.851 43.2531 142.233 43.3755C141.245 43.5591 140.38 43.3143 139.844 42.5186C139.371 41.8045 139.165 40.9272 139.123 40.0908C139.02 37.7037 139.782 34.2353 140.709 32.2359C140.833 31.9706 141.45 30.7261 142.027 30.5221C142.604 30.3181 142.851 30.9913 142.913 31.481C142.995 32.1135 142.789 32.9704 142.624 33.6436C142.336 34.8474 141.924 36.704 141.821 37.2548C141.718 37.8261 141.471 39.0298 141.574 39.6623C141.615 39.9887 141.677 40.152 141.924 40.1316C142.048 40.1316 143.654 39.3767 144.539 39.0502C144.848 38.9278 145.26 38.785 145.631 38.8258ZM133.687 37.7241C133.687 37.7241 133.872 37.7241 134.058 37.7241C134.655 37.7241 135.664 37.6017 135.664 37.6017C135.664 37.6017 135.561 36.7244 135.458 36.1531C135.396 35.7859 135.355 35.541 135.273 35.2554C135.231 35.133 135.149 34.7454 135.046 34.6025C135.025 34.5821 135.005 34.5413 135.005 34.5413C135.005 34.5413 134.511 35.4798 134.243 36.1327C134.016 36.6428 133.913 37.0304 133.769 37.3364C133.728 37.4181 133.687 37.4997 133.687 37.6017C133.687 37.6629 133.687 37.7241 133.687 37.7241ZM130.454 37.8261C130.454 37.8261 130.742 37.1732 130.969 36.704C131.195 36.1939 132.41 33.8068 132.884 33.1336C133.44 32.3787 134.469 30.9709 134.49 30.9301C134.511 30.7669 134.552 30.5017 134.696 30.2772C134.82 30.0936 135.087 30.0324 135.376 30.012C135.684 29.9916 135.993 30.216 136.138 30.4609C136.405 30.9301 136.858 32.2767 136.941 32.5827C137.455 34.3577 138.032 37.6833 138.217 39.3971C138.259 39.8459 138.423 42.1922 138.423 42.7022C138.444 43.0695 138.423 43.6816 138.217 43.9876C138.135 44.11 137.991 44.1916 137.847 44.1916C137.641 44.1916 137.25 43.906 137.085 43.7428C136.611 43.2939 136.282 42.8247 136.179 42.2738C136.096 41.7841 135.973 40.3764 135.973 40.3764L133.872 40.458L132.699 40.4784C132.699 40.4784 132.596 40.7436 132.493 40.9681C132.287 41.4577 132.122 41.927 132.04 42.2126C131.895 42.7635 131.587 43.8448 131.525 44.008C131.381 44.3548 131.236 44.5793 130.907 44.6201C130.516 44.6609 130.248 44.7017 129.98 44.5385C129.445 44.2528 129.218 43.6408 129.136 43.0287C128.971 41.9678 129.404 41.1109 129.857 39.8459C130.042 39.3155 129.795 39.1318 129.342 38.4586C129.28 38.377 129.218 38.275 129.218 38.2137C129.198 38.1525 129.28 37.9689 129.362 37.8873C129.383 37.8669 129.404 37.8669 129.465 37.8669L130.454 37.8261ZM118.428 30.9505C118.428 30.9505 118.407 30.2772 118.345 29.91C118.304 29.5836 118.242 29.3591 118.078 29.1143C117.913 28.8491 117.789 28.6859 117.522 28.6451C117.192 28.6043 117.027 28.8083 116.821 29.1347C116.554 29.5632 116.286 30.3589 116.121 30.8485C115.895 31.5626 115.792 31.991 115.668 32.8071C115.462 34.1333 115.256 36.3979 115.483 37.9485C115.524 38.2137 115.586 38.6014 115.586 38.6014C115.586 38.6014 115.915 38.2341 116.142 37.9893C116.245 37.8873 116.719 37.1732 116.76 37.0916C116.842 36.9488 117.069 36.5816 117.089 36.4999C117.13 36.4183 117.48 35.6839 117.542 35.5002C117.686 35.0922 117.831 34.6637 117.954 34.2557C118.263 33.3172 118.201 32.9704 118.407 31.9298C118.448 31.8074 118.469 30.9505 118.428 30.9505C118.448 30.9505 118.428 30.9505 118.428 30.9505ZM116.121 40.8252C116.121 40.8252 116.245 41.0497 116.348 41.2129C116.904 42.131 117.81 42.6614 118.881 42.7226C119.993 42.7839 121.414 42.1514 122.217 41.5801C124.544 39.9887 125.759 37.0916 126.418 34.3373C127.2 31.0933 127.241 27.6862 126.294 24.5442C125.759 22.7284 124.688 20.4433 123.391 19.0968C122.999 18.6887 122.402 18.1379 122.237 17.9135C122.052 17.689 122.011 17.485 122.279 17.3218C122.567 17.1586 123.185 17.5054 123.494 17.689C125.017 18.6071 126.026 19.5252 126.912 20.831C127.138 21.1574 128.065 22.6468 128.23 22.9732C129.26 24.891 129.774 26.564 130.063 28.6859C130.413 31.379 130.186 34.4393 129.239 37.1324C128.827 38.3158 128.189 39.5399 127.53 40.56C127.365 40.8048 126.418 42.0902 126.294 42.2126C125.965 42.5594 125.141 43.2531 124.77 43.5591C122.855 45.0893 120.796 46.0686 118.531 45.8034C117.275 45.6606 116.265 45.2321 115.256 44.4364C114.865 44.1304 114.227 43.4775 113.959 43.0083C113.794 42.7022 113.588 42.3554 113.547 42.3554C113.527 42.3554 113.403 42.4166 113.28 42.4982C113.177 42.5798 112.724 42.7839 112.497 42.8655C110.932 43.4367 109.202 43.3143 107.781 42.3962C106.752 41.7229 105.866 40.4784 105.475 39.3155C104.898 37.6221 104.857 35.8675 105.084 34.0517C105.475 30.9913 106.587 28.0738 108.255 25.5031C109.305 23.8913 110.664 22.2795 112.291 21.137C112.476 21.0146 113.465 20.4433 113.671 20.3413C114.041 20.1781 114.515 20.0149 114.803 20.3209C114.948 20.4841 114.948 20.6066 114.845 20.8106C114.68 21.1166 114.227 21.5451 113.98 21.8103C113.774 22.0347 112.579 23.4833 112.332 23.8301C112.065 24.1974 110.85 25.9928 110.685 26.2784C109.161 28.9103 107.925 33.0724 108.049 36.3163C108.07 36.9896 108.173 37.9485 108.317 38.581C108.523 39.4175 109.037 40.5804 109.799 41.1109C110.602 41.6821 111.344 41.6413 112.312 41.2741C112.559 41.1721 112.929 41.0089 112.929 41.0089C112.929 41.0089 112.641 40.2948 112.476 39.7643C111.982 38.2749 111.776 35.9083 111.962 34.2761C112.106 32.9499 112.415 31.9094 113.032 30.8485C113.527 29.9916 114.165 29.1551 114.989 28.4818C115.771 27.8086 117.027 27.2373 118.139 27.2169C119.066 27.1965 120.013 27.5841 120.487 28.4206C121.331 29.8692 121.372 32.1339 121.146 33.6232C120.796 35.8879 119.602 38.0097 117.892 39.4583C117.316 39.9479 116.121 40.8252 116.121 40.8252ZM189.287 32.4603C189.329 32.4603 189.411 32.4807 189.473 32.5011C190.008 32.7051 190.214 33.1948 190.358 33.7252C190.667 34.9698 190.791 37.7241 190.852 38.8054C190.894 39.6215 190.914 40.4172 190.935 41.2129C190.955 41.8862 191.017 42.7839 190.873 43.4163C190.811 43.6408 190.667 43.906 190.441 44.0488C190.194 44.212 189.617 44.212 189.287 44.1508C188.505 43.9876 188.258 43.4979 188.134 42.7226C187.867 40.9068 187.99 37.316 188.155 35.8267C188.196 35.337 188.402 33.7252 188.649 33.0724C188.773 32.8479 188.958 32.3991 189.287 32.4603ZM165.297 35.1942C165.297 35.1942 164.144 35.2758 163.341 35.3574C162.332 35.4594 160.437 35.7859 159.346 36.1735C159.016 36.2959 158.357 36.5612 158.295 36.908C158.234 37.2548 158.46 37.5201 158.687 37.8057C158.831 37.9689 159.613 38.7238 159.84 38.9074C160.766 39.6827 162.661 40.866 164.041 41.4373C164.514 41.6413 165.297 41.9066 165.297 41.9066C165.297 41.9066 165.235 39.6827 165.256 37.4793C165.276 36.3367 165.297 35.1942 165.297 35.1942ZM186.425 36.0715C186.487 36.6632 186.343 37.8057 186.301 37.9485C186.26 38.2954 185.993 39.091 185.951 39.1726C185.766 39.6011 185.54 40.0295 185.313 40.4376C184.942 41.1109 184.036 42.1718 183.501 42.641C181.524 44.3344 178.435 45.3137 175.799 45.6198C174.008 45.8442 171.948 45.8034 170.054 45.4566C169.395 45.3341 168.427 45.1097 168.427 45.1097C168.427 45.1097 168.427 45.4974 168.406 45.7626C168.386 45.885 168.303 46.2114 168.242 46.3135C168.097 46.5991 167.871 46.7419 167.541 46.8031C167.15 46.8847 166.718 46.9051 166.347 46.7419C165.75 46.4971 165.523 45.9258 165.42 45.2933C165.338 44.7833 165.256 43.8856 165.256 43.8856C165.256 43.8856 164.803 43.6816 164.432 43.4979C163.279 42.9267 162.187 42.2534 161.219 41.5393C160.952 41.3353 159.819 40.3968 159.551 40.152C158.851 39.4991 158.213 38.8258 157.719 37.9893C157.348 37.3364 157.245 36.7448 157.513 36.0307C157.904 35.0514 159.325 34.3169 160.293 33.8885C161.014 33.5824 163.217 32.8683 164.144 32.7255C164.576 32.6643 165.256 32.5419 165.297 32.5215C165.317 32.5011 165.317 32.5011 165.338 32.4807C165.359 32.4603 165.4 31.481 165.379 31.1341C165.379 30.7873 165.647 28.5022 165.729 28.0126C165.77 27.7474 165.976 26.7477 166.182 26.4824C166.306 26.2988 166.553 26.3192 166.738 26.4416C167.789 27.0945 168.118 29.3387 168.18 30.4813C168.221 31.1749 168.242 32.2359 168.242 32.2359C168.242 32.2359 169.457 32.1951 170.198 32.2155C170.919 32.2359 171.722 32.3379 172.463 32.4603C173.431 32.6031 175.305 33.0112 176.376 33.562C177.261 34.0109 178.085 34.7453 178.353 35.541C178.6 36.2755 178.559 36.7652 178.188 37.4181C177.755 38.1525 176.952 38.7034 176.129 38.7442C175.882 38.7646 174.975 38.6422 174.687 38.4178C174.584 38.3362 174.584 38.1729 174.667 38.0709C174.687 38.0301 175.12 37.8057 175.387 37.6833C175.511 37.6221 175.614 37.5405 175.717 37.4589C175.923 37.2752 176.108 37.0712 176.087 36.8468C176.067 36.5408 175.737 36.3571 175.408 36.2347C173.946 35.6635 171.022 35.1738 169.601 35.0922C169.045 35.0514 168.262 35.031 168.262 35.031L168.427 42.7635C168.427 42.7635 169.086 42.8859 169.601 42.9675C169.889 43.0083 171.145 43.1307 171.475 43.1307C174.008 43.1919 176.808 42.9675 179.135 41.8862C180.144 41.4169 181.092 40.8252 181.792 40.0295C182.718 38.9686 183.213 37.5201 183.089 36.0103C182.945 34.3577 181.771 32.3991 180.844 31.2158C178.373 28.0534 174.131 25.4623 170.404 23.9525C166.594 22.402 162.826 21.5043 158.79 21.3614C157.739 21.3206 155.474 21.3818 154.321 21.6879C154.156 21.7287 153.991 21.7899 153.847 21.8307C153.724 21.8511 153.538 21.9327 153.477 21.9735C153.456 21.9939 153.415 22.0347 153.415 22.0347C153.415 22.0347 153.477 22.0755 153.559 22.0959C153.683 22.1571 154.197 22.1775 154.465 22.2183C154.692 22.2591 154.959 22.3816 155.042 22.5652C155.145 22.7284 155.145 22.8508 155.042 22.9936C154.774 23.2997 153.806 23.2589 153.374 23.1976C152.921 23.116 152.365 22.9936 152.262 22.606C152.138 22.1571 152.365 21.7083 152.591 21.3002C153.065 20.4841 153.744 20.0353 154.733 19.7701C156.154 19.3824 157.925 19.1172 159.263 19.056C162.29 18.954 165.132 19.464 168.056 20.3413C169.724 20.8514 171.928 21.6879 173.534 22.4428C174.687 22.9936 176.499 24.0137 177.508 24.6666C177.838 24.8706 179.712 26.2376 180 26.4824C180.618 26.9721 181.4 27.6862 181.977 28.2574C183.089 29.3591 184.489 31.0321 185.169 32.3583C185.334 32.6847 185.457 32.9908 185.663 33.358C185.725 33.4804 186.054 34.2353 186.096 34.4597C186.137 34.6841 186.219 34.9902 186.24 35.0106C186.301 35.1738 186.446 35.8267 186.425 36.0715ZM199.44 36.6428C199.501 36.6428 199.501 36.6428 199.563 36.6632C200.49 36.7856 201.396 36.9488 202.096 37.2548C202.735 37.5405 203.126 37.8873 203.455 38.5198C203.97 39.4787 204.011 40.8252 203.538 41.8454C203.188 42.6002 202.405 43.2327 201.705 43.5795C200.964 43.9264 200.243 44.11 199.419 44.1916C197.978 44.3548 196.392 44.0488 195.095 43.4163C194.312 43.0491 193.385 42.3962 192.891 41.5597C192.541 40.9476 192.562 40.152 192.974 39.5807C193.653 38.6626 195.115 38.4586 196.207 38.4994C197.051 38.5402 198.554 38.785 199.337 39.0706C199.563 39.1522 200.366 39.4583 200.51 39.6011C200.613 39.7031 200.675 39.8459 200.634 39.9887C200.449 40.5396 199.11 40.8252 198.719 40.8864C197.669 41.0497 197.133 40.662 195.959 40.1928C195.671 40.0704 195.28 39.9479 194.971 39.9275C194.436 39.8867 193.777 40.0295 193.674 40.6008C193.612 40.9068 193.983 41.1721 194.25 41.2945C194.889 41.5597 195.403 41.6617 196.021 41.6821C197.875 41.7025 199.934 41.4169 201.458 40.356C201.664 40.2132 201.87 39.9887 201.87 39.7235C201.87 39.6827 201.828 39.3971 201.725 39.3767C201.705 39.3767 201.705 39.3767 201.684 39.3767C201.643 39.3767 201.581 39.2747 201.54 39.2135C201.437 39.091 200.984 38.887 200.902 38.8666C199.893 38.4382 197.998 38.2341 197.03 38.1729C196.021 38.0913 194.415 37.9485 194.024 37.9077C193.633 37.8465 193.2 37.7649 192.85 37.6221C192.5 37.4589 192.17 37.1324 192.067 36.7448C191.882 36.0511 192.109 35.2146 192.5 34.6637C193.509 33.2356 195.877 32.6847 197.648 32.4603C199.357 32.2563 202.117 32.2563 203.805 33.1336C204.073 33.2764 204.197 33.3988 204.135 33.664C204.032 34.1741 203.641 34.5209 203.167 34.6637C202.673 34.827 201.643 34.8882 201.19 34.9086C199.172 35.031 196.721 34.9698 194.786 35.4798C194.642 35.5206 194.374 35.5818 194.291 35.6839C193.983 36.0103 194.847 36.0919 195.033 36.1327C195.095 36.1531 195.095 36.1531 195.156 36.1531L199.44 36.6428ZM205.762 44.1508C204.938 43.8448 204.753 42.539 204.711 41.8862C204.588 39.7235 205.164 36.7448 205.885 34.7249C206.091 34.1537 206.4 33.2152 207.038 33.256C207.491 33.2968 207.8 33.6436 208.047 33.9905C208.686 34.8882 209.53 36.0919 210.086 36.9488C210.704 37.8873 211.301 38.8462 211.898 39.7031C211.981 39.8051 212.042 39.9071 212.125 39.9683C212.228 40.0499 212.331 40.0499 212.372 39.9887C212.393 39.9479 212.351 38.8666 212.331 38.6422C212.29 38.2953 212.269 38.0097 212.228 37.7241C212.125 36.8468 211.837 35.6227 211.61 34.8066C211.363 33.8885 211.075 32.9091 210.848 32.0114C210.786 31.7258 210.704 31.4198 210.704 31.1545C210.704 30.7465 210.972 30.5221 211.383 30.6853C212.207 30.9709 213.319 32.7663 213.628 33.3784C213.731 33.5824 214.163 34.6637 214.266 34.9494C214.617 35.9695 214.822 36.9488 214.925 38.0709C215.008 39.1522 214.946 40.7436 214.472 41.8045C214.308 42.1922 213.958 42.7226 213.669 42.9879C213.216 43.3959 212.31 43.7224 211.672 43.3755C210.992 42.9879 209.86 41.0701 209.674 40.7232C209.015 39.6011 207.903 37.3976 207.718 37.1324C207.677 37.0712 207.636 37.0304 207.553 36.9896C207.491 36.9692 207.471 37.112 207.45 37.1936C207.347 37.8261 207.265 40.8456 207.265 40.9272C207.244 41.4373 207.224 42.6818 207.08 43.2735C206.977 43.6816 206.894 44.008 206.524 44.1712C206.276 44.314 206.071 44.2528 205.762 44.1508ZM217.026 43.9468C216.944 43.8856 216.799 43.7428 216.696 43.6203C216.676 43.5999 216.388 43.1715 216.326 43.0287C216.285 42.9063 216.243 42.8247 216.202 42.7226C215.934 42.029 215.934 41.3557 216.099 40.6212C216.243 39.9275 216.367 39.9071 216.717 38.9686C216.738 38.9074 216.758 38.8666 216.758 38.8054C216.779 38.683 216.552 37.8057 216.552 37.5201C216.532 37.0916 216.861 36.7856 217.438 36.7244C217.479 36.7244 217.52 36.7244 217.561 36.704C217.788 36.6428 217.932 36.2347 218.056 35.8879C218.22 35.4186 218.488 34.6841 218.488 34.6841C218.488 34.6841 217.788 34.5209 217.397 34.3781C216.985 34.2149 216.655 34.0109 216.47 33.6436C216.243 33.1948 216.387 32.9499 216.861 32.8071C217.026 32.7459 218.406 32.5011 218.838 32.4399C219.373 32.3583 219.888 32.2971 220.403 32.2359C220.856 32.1747 222.895 31.9502 223.554 31.9706C224.542 31.991 225.201 32.3991 225.778 33.2356C226.087 33.6844 226.313 34.2149 225.84 34.5005C225.119 34.929 222.771 34.9698 222.339 34.9698C221.659 34.9698 220.712 34.9698 220.712 34.9698L220.238 36.5612C220.238 36.5612 221.927 36.5408 222.874 36.5408C223.101 36.5408 223.327 36.5612 223.471 36.5816C223.945 36.6836 224.13 37.0508 224.13 37.5813C224.151 38.1933 224.048 38.479 223.533 38.5606C223.286 38.6014 220.383 38.6218 219.991 38.6626C219.744 38.683 219.497 38.7238 219.497 38.7238C219.497 38.7238 219.291 39.2543 219.106 39.8051C218.92 40.3764 218.756 40.9476 218.756 40.9476C218.756 40.9476 218.9 40.9476 219.023 40.9476C219.229 40.9476 219.435 40.9272 219.6 40.8864C220.485 40.7232 221.783 40.5396 222.874 40.3764C223.451 40.2948 223.739 40.254 224.048 40.6212C224.316 40.9477 224.439 41.2333 224.46 41.6413C224.48 42.029 224.192 42.2738 223.822 42.539C222.689 43.3959 220.753 44.3344 219.291 44.4977C218.632 44.5793 218.467 44.4976 217.87 44.3548C217.767 44.3344 217.355 44.1304 217.355 44.11C217.314 44.1508 217.108 44.008 217.026 43.9468ZM235.292 36.0103C234.55 36.6224 233.582 37.8873 233.129 38.5402C232.512 39.3971 231.935 40.3968 231.379 41.1721C231.255 41.3353 230.905 41.9678 230.926 41.9882C230.947 42.029 231.317 42.0086 231.667 41.9474C232.45 41.8249 233.521 41.2741 234.077 40.8252C234.942 40.1316 235.539 39.1931 235.827 38.0913C235.951 37.5813 236.012 36.5408 235.662 36.0715C235.601 35.9491 235.415 35.8879 235.292 36.0103ZM229.382 45.0485C229.382 45.0485 229.155 45.7422 228.97 46.2726C228.661 47.1908 228.022 49.7002 227.858 50.4755C227.631 51.6385 226.972 54.658 226.952 54.7192C226.91 54.8008 226.869 54.8416 226.766 54.9028C226.499 55.066 226.396 55.0048 226.066 54.8416C225.654 54.6172 225.284 54.3928 224.954 53.9847C224.316 53.1686 224.48 51.6181 224.604 50.7204C225.036 47.558 225.49 46.1706 226.704 43.0287C226.725 42.9675 226.725 42.9675 226.704 42.9063C226.334 42.1106 226.128 41.1517 226.128 40.356C226.128 37.8873 227.569 35.4594 229.155 33.5008C229.279 33.358 230.061 32.4195 230.411 32.4399C230.761 32.4603 230.823 32.8683 230.782 33.2152C230.597 34.3577 229.793 35.5206 229.237 36.4795C228.62 37.5609 228.475 37.9893 228.167 38.989C228.125 39.1522 228.002 39.8663 228.002 39.9479C228.022 40.2132 228.064 40.5396 228.064 40.5396C228.064 40.5396 229.073 39.1318 229.752 38.275C230.123 37.8057 230.37 37.4793 230.679 37.1528C230.988 36.806 232.182 35.5818 232.512 35.2758C233.232 34.6025 233.541 34.3169 234.324 33.9089C234.942 33.6028 235.498 33.5212 236.095 33.9089C237.042 34.5209 237.454 35.8267 237.557 36.8876C237.68 38.1525 237.413 39.5807 236.857 40.662C236.177 41.9474 235.271 42.8859 234.036 43.702C232.759 44.5385 231.276 45.1097 229.814 45.0689C229.608 45.0689 229.382 45.0485 229.382 45.0485Z" fill="#231F20"/>
<path d="M54.9405 54.9844C54.5698 53.8011 53.9932 52.679 53.2313 51.7201C52.4693 50.7611 51.5221 49.9451 50.4307 49.435C49.3392 48.9249 48.0831 48.7413 46.9711 49.0474C45.8179 49.333 44.9118 50.1287 44.3558 51.0264C44.0469 51.516 43.8204 52.0465 43.635 52.5566C43.3467 53.3114 43.0996 54.2907 42.9555 55.2497C42.7496 56.4738 42.6054 57.7183 42.3789 58.5344C42.3583 58.5956 42.3377 58.6772 42.2965 58.7384C42.1112 58.5956 41.9053 58.4936 41.7199 58.412C41.3287 58.2488 40.958 58.1876 40.5873 58.1672C40.5049 58.1672 40.4432 58.1672 40.3608 58.1672C40.2166 58.1672 40.0725 58.1876 39.9489 58.208C38.7134 56.8206 37.416 55.5353 36.2834 54.556C37.066 54.1071 37.6631 53.4747 38.0132 53.0258C38.3427 52.6994 38.5075 52.4545 38.528 52.4545C38.5486 52.4341 38.5486 52.3933 38.5486 52.3729C38.4251 52.0873 38.3221 51.8221 38.2397 51.5568C38.075 50.8428 37.8897 49.7818 37.972 48.7209C38.4457 48.0272 38.9605 47.1295 39.2694 46.1094C39.4547 45.5382 39.5783 44.9465 39.64 44.3956C39.8048 43.4571 39.8666 42.4574 39.7636 41.4577C40.0313 41.5189 40.3196 41.5393 40.6079 41.5597C40.7109 41.6617 40.8138 41.7637 40.9374 41.8453C41.514 42.2738 42.1936 42.4166 42.8319 42.3758C43.4497 42.3758 44.0881 42.1922 44.6235 41.8453C45.2413 41.4373 45.6737 40.8048 45.8797 40.1111C46.3739 40.1724 46.9711 40.0907 47.4653 39.6827C47.8566 39.3563 48.0831 38.887 48.1655 38.3974C48.2478 38.3361 48.3302 38.2545 48.392 38.1933C48.4949 38.0913 48.5773 37.9893 48.6597 37.8873C48.8244 37.6833 48.9686 37.4588 49.0715 37.1936C49.3186 36.5407 49.3804 35.7451 49.1745 34.9698C49.1951 34.9698 49.1951 34.9494 49.1951 34.929C49.4422 34.3781 49.6275 33.8476 49.7099 33.3172C49.7305 33.2152 49.7511 33.0928 49.7717 32.9703C49.8541 32.3583 49.8541 31.6034 49.504 30.8689C49.1745 30.1344 48.4126 29.5428 47.5683 29.3591C45.9208 29.0123 44.294 29.2367 43.079 29.2775C42.9143 29.2979 42.7701 29.2979 42.6054 29.2979C42.2141 29.2979 41.8229 29.2979 41.4522 29.2775C40.9786 29.0327 40.4638 28.8083 39.9078 28.6655C38.8987 28.3798 37.8279 28.7063 37.0042 29.1755C36.8394 29.2571 36.6953 29.3591 36.5511 29.4407C36.0775 29.4203 35.6656 29.3999 35.3156 29.3387C35.5215 29.2367 35.7068 29.1347 35.8922 29.0327C36.3246 28.8083 36.86 28.4614 37.3131 27.9922C37.5602 27.9106 37.8073 27.8494 38.0544 27.7474C40.0313 27.0741 41.8023 25.4419 42.1936 23.4425C42.3789 22.6264 42.3583 21.8103 42.1524 21.0554C42.7701 20.5249 43.3056 19.6884 43.5115 18.4847C43.8822 16.3629 42.2965 15.0163 40.9992 15.0571C39.6812 15.0979 38.8987 16.5057 38.7957 18.3623C38.7957 18.4439 38.7957 18.5663 38.7752 18.6887C38.5898 18.7091 38.4045 18.7295 38.2192 18.7703C38.1574 17.4646 37.8073 15.9548 36.9424 14.5063C36.0363 12.9761 34.5536 11.5683 32.6797 10.6706C31.1558 9.93614 29.3849 9.5281 27.5727 9.5689C29.1789 8.01833 29.8791 5.85568 29.2407 3.83586C28.2111 0.775512 24.5044 -0.754661 20.9212 0.367466C17.3381 1.48959 15.1964 4.87637 16.1849 7.89591C16.8645 9.99735 18.8414 11.3847 21.1889 11.6499C20.8389 11.9152 20.4888 12.2008 20.1799 12.5068C18.7796 13.833 17.8323 15.5468 17.3793 17.3422C16.2055 14.8939 13.8373 13.3433 11.3662 13.6902C8.17431 14.1186 6.03266 17.485 6.54748 21.1778C7.0623 24.8706 10.0688 27.5229 13.2401 27.0945C15.32 26.8088 16.9674 25.2787 17.7088 23.1976C17.9147 23.7485 18.1412 24.279 18.4089 24.7686C20.3034 28.1758 23.5365 29.9712 26.1106 30.5833C25.7605 30.6241 25.3487 30.6649 24.7309 30.7669C24.525 30.7873 24.319 30.8281 24.0925 30.8689C22.5069 31.1341 20.4476 31.7666 18.5531 32.7663C17.1939 33.5008 15.9378 34.3781 14.9493 35.2962C13.8579 35.0922 12.6841 35.3982 11.9222 36.1123C11.9016 36.1327 11.881 36.1531 11.8604 36.1735C11.7369 36.1735 11.6339 36.1735 11.5309 36.1735C10.8308 36.1735 9.98647 36.2755 9.12157 36.6224C8.00957 37.0508 6.89756 37.8669 6.07384 38.887C5.25013 39.9071 4.69413 41.1925 4.63235 42.3962C4.59117 43.2939 4.7765 44.1916 5.20895 44.7629C5.33251 44.9261 5.45606 45.0689 5.6208 45.1913C5.6208 45.2117 5.6208 45.2321 5.60021 45.2525C5.53843 45.8442 5.45606 46.5991 5.82673 47.354C6.25918 48.1088 7.08289 48.3945 7.86542 48.5781C7.88601 49.0065 7.94779 49.4554 8.1949 49.9043C8.64794 50.6795 9.57461 51.0876 10.4601 51.1692C11.2632 51.2508 12.0663 51.108 12.7459 50.8428C13.4049 50.5979 14.0432 50.2103 14.5375 49.6798C15.0523 49.1494 15.3818 48.4149 15.4641 47.6804C16.0407 47.762 16.8233 47.8028 17.5646 47.3948C18.4295 46.9663 19.0267 45.9666 19.1914 44.9465C19.5209 43.0491 18.7796 41.1313 17.8735 40.2744C18.4089 39.7235 18.759 38.9686 18.7796 38.1729C19.3768 37.7649 19.974 37.3568 20.5917 37.0304C20.8389 36.8876 21.086 36.7448 21.3537 36.6224C21.6008 36.4999 21.8479 36.3979 22.095 36.2959C23.8454 35.541 25.8635 35.3778 26.9961 35.3166C26.9961 35.3166 26.9961 35.3166 26.9961 35.337C26.9961 35.337 27.0785 35.6022 27.1608 36.0715C27.3462 37.1936 27.3668 38.6014 26.9549 40.0499C26.4813 41.8249 24.7927 43.3959 24.4632 45.5994C24.3808 46.0278 24.3396 46.4563 24.319 46.8643C22.8981 48.1701 21.1272 49.1698 19.3562 49.9655C17.4205 50.8428 15.4436 51.5568 13.5284 52.2709C9.67758 53.6583 5.84732 54.9232 3.10849 56.8206C1.74936 57.7591 0.59617 58.8609 0.143129 60.187C-0.0833914 60.8399 -0.0422059 61.5336 0.2255 62.0844C0.493206 62.6353 0.946247 62.9821 1.39929 63.1861C2.32596 63.5534 3.12908 63.4514 3.62331 63.3902C4.13812 63.3086 4.40583 63.227 4.40583 63.227C4.40583 63.227 4.13812 63.2882 3.62331 63.3494C3.12908 63.3902 2.32596 63.4718 1.46107 63.0841C0.575577 62.7577 -0.103984 61.5336 0.390242 60.289C0.843283 59.0649 1.97589 58.0244 3.33501 57.1471C6.05325 55.3517 9.6158 54.1071 13.4872 52.781C15.423 52.1077 17.3999 51.414 19.3974 50.5571C21.0242 49.843 22.9805 49.1698 24.4014 47.9864C24.5456 49.3126 24.9368 50.5775 25.3693 51.6793C25.5752 52.2097 25.7605 52.7402 25.9047 53.2502C25.1839 53.8827 24.3808 54.3316 23.5777 54.6172C23.4541 54.4948 23.31 54.3928 23.1658 54.2907C22.8981 54.0663 22.5686 53.8827 22.198 53.7195C21.8479 53.5767 21.4566 53.4747 21.0448 53.4747C20.5094 53.291 19.974 53.189 19.4385 53.1686C19.2944 53.1482 19.1297 53.1482 18.9649 53.1482C17.544 53.2094 15.7524 54.0051 14.4551 55.3109C13.8167 55.9433 13.3431 56.6778 12.9724 57.4123C12.1487 58.9425 11.7369 60.7583 11.6957 62.5741C11.7163 64.4919 12.334 66.3893 13.5078 67.7971C14.8052 69.0824 16.4114 69.5925 17.7705 69.9393C18.9649 70.2657 20.4064 70.4902 21.9715 70.5106C23.5365 70.5514 25.2457 70.2861 26.7902 69.5925C27.7374 69.164 28.6435 68.5928 29.3849 67.8787C29.8585 67.4298 30.2909 66.9198 30.6204 66.3077C31.2176 65.2672 31.2176 63.9002 30.641 62.9005C30.538 62.7169 30.4351 62.5537 30.3115 62.4109C30.0232 61.9824 29.5908 61.5744 29.1171 61.2887C28.2111 60.7379 27.202 60.5338 26.4813 60.4726C26.4607 60.4726 26.4607 60.4726 26.4401 60.4726L26.3577 60.4522C26.2548 60.289 26.1312 60.1462 26.0282 59.983C26.0076 59.9422 25.987 59.9014 25.9665 59.8606C25.8635 59.6565 25.7193 59.4321 25.5546 59.2077C25.4722 59.1057 25.3899 58.9833 25.3075 58.8609V58.8405L25.2869 58.718L25.2457 58.4936C26.193 58.2284 27.0373 57.8815 27.7168 57.5347C27.861 57.4531 28.0051 57.3919 28.1493 57.3103C28.5817 57.1063 28.973 56.8818 29.3231 56.6574C29.9614 56.6574 30.6616 56.5962 31.3618 56.433C32.6797 57.6979 34.6154 59.6157 36.3658 61.6968C36.6129 61.9824 36.86 62.268 37.0865 62.5333C37.0865 62.5537 37.0865 62.5741 37.0865 62.5945C37.0865 62.7577 37.1071 62.9209 37.1277 63.0841C37.2307 64.043 37.6014 65.206 38.6516 66.0629C38.7546 66.1445 38.8575 66.2057 38.9811 66.2873C38.9811 66.4301 38.9811 66.5525 38.9811 66.6953C38.9811 67.389 39.0634 68.2459 39.5165 69.0824C39.8048 69.6129 40.2578 70.1025 40.8138 70.4494C41.3698 70.8166 42.07 70.9594 42.7084 71.0206C44.1293 71.143 45.4678 70.7758 46.6004 70.3065C46.8475 70.2045 47.0946 70.1025 47.3417 69.9801C49.3598 69.0008 51.2338 67.4502 52.6753 65.4916C54.0962 63.533 55.0846 61.1867 55.3935 58.7384C55.4965 57.4327 55.3111 56.1474 54.9405 54.9844Z" fill="#231F20"/>
<path d="M15.5458 47.4358V47.3746C15.5663 47.3542 15.5869 47.3338 15.6075 47.3134C16.1635 46.7217 16.6372 45.9464 16.8431 45.2732C16.9461 44.9467 16.9667 44.6611 16.9667 44.4979C16.9667 44.3959 16.9667 44.1714 16.8843 44.1306C16.8843 44.1306 16.8637 44.1102 16.8431 44.1306H16.8225C16.8019 44.1306 16.8019 44.151 16.8019 44.151C16.8019 44.1714 16.7813 44.1918 16.7813 44.2122C16.7401 44.5183 16.6372 44.8243 16.493 45.1099C16.2253 45.62 15.7517 46.2729 15.1957 46.8645C14.9692 47.1094 14.7426 47.3338 14.5161 47.5582C14.2072 47.8643 13.8571 48.1907 13.61 48.5171C13.26 48.9456 13.4247 49.2924 13.4659 49.2108C13.5483 49.0272 13.6306 48.9048 13.7954 48.7824C13.9601 48.6191 14.3102 48.4763 14.5367 48.2927C14.6603 48.1907 14.7838 48.1091 14.8868 48.0071C14.6397 48.9252 13.9189 49.7821 12.9099 50.2717C12.1479 50.5982 11.3036 50.7206 10.5417 50.639C9.67682 50.5574 8.95607 50.1901 8.62658 49.6597C8.25591 49.0884 8.25591 48.3743 8.23532 47.7826V47.701C8.2971 46.5177 8.07058 45.6404 7.96762 45.518C7.96762 45.4976 7.94702 45.4976 7.92643 45.4976C7.92643 45.4976 7.92643 45.4976 7.90584 45.4976H7.88524C7.88524 45.4976 7.88525 45.4976 7.90584 45.4976H7.82347H7.80287H7.78228H7.80287C7.78228 45.4976 7.78228 45.518 7.76169 45.518C7.76169 45.518 7.76169 45.5384 7.7411 45.5588V45.5792C7.7411 45.5792 7.7411 45.5792 7.7411 45.5996C7.7411 45.62 7.7411 45.62 7.7411 45.6404C7.7411 45.6608 7.76169 45.7016 7.76169 45.7424C7.78228 45.824 7.88524 46.5381 7.7411 47.6806C7.7411 47.6602 7.7411 47.6602 7.76169 47.6398C7.7411 47.6602 7.7411 47.6602 7.7411 47.8234C7.7411 47.8234 7.7411 47.9051 7.7411 47.9867C6.93798 47.7622 6.42316 47.4766 6.19664 47.1094C5.86715 46.5177 5.88775 45.7628 5.88775 45.2732C6.0113 43.6206 6.0113 43.3349 5.97012 43.2533C5.97012 43.2329 5.94953 43.2533 5.94953 43.2329C5.94953 43.2329 5.94952 43.2125 5.92893 43.2125C5.92893 43.2125 5.92893 43.2125 5.90834 43.2125L5.88775 43.1921H5.86715C5.82597 43.1921 5.78478 43.2329 5.78478 43.2737C5.78478 43.2941 5.78478 43.3145 5.80538 43.3349V43.3145C5.80538 43.3757 5.7436 43.7634 5.68182 44.1306L5.66123 44.1918L5.55826 44.7631C5.49648 44.7019 5.43471 44.6407 5.39352 44.5591C5.08463 44.049 4.94048 43.2533 5.02285 42.4168C5.12581 41.3559 5.64063 40.2134 6.46434 39.1933C7.24687 38.214 8.23532 37.4183 9.26496 36.9898C10.1299 36.6022 10.9124 36.4798 11.4684 36.439C10.9742 37.0918 10.727 37.9283 10.8506 38.6424C10.8712 38.8464 10.933 39.0301 10.9948 39.2341C11.4066 40.6418 12.704 41.5395 14.3514 41.5599C14.5367 41.5803 14.7015 41.5599 14.9074 41.5599C15.5663 41.5191 16.5342 41.3355 17.4197 40.703C17.5021 40.6418 17.605 40.5602 17.708 40.4786C18.0581 40.9275 18.3464 41.5599 18.5317 42.2944C18.7376 43.1309 18.7788 44.0082 18.6347 44.8039C18.4699 45.7628 17.9757 46.5789 17.3167 46.9665C16.7195 47.4154 16.0606 47.4562 15.5458 47.4358Z" fill="#F2F2E4"/>
<path d="M14.3309 35.7858C14.1661 35.9491 14.0014 36.1327 13.8778 36.2959C13.7131 36.5203 13.5895 36.7448 13.5071 36.9692C13.1777 37.6833 13.1983 38.3565 13.5895 38.9686C13.8572 39.3971 14.5574 39.7847 15.484 39.7439C15.6488 39.7439 15.8135 39.7235 15.9783 39.6827C16.7196 39.5399 17.4404 39.1318 18.0993 38.7034C17.9552 39.3154 17.5845 39.9275 17.0697 40.3152C16.3284 40.9068 15.4635 41.1108 14.8663 41.1925C14.6809 41.2129 14.475 41.2333 14.2691 41.2333C12.8688 41.1721 11.7774 40.4376 11.3861 39.2746C11.3243 39.0706 11.2831 38.8666 11.2625 38.6422C11.2008 37.8669 11.5714 37.01 12.2304 36.4591C12.7658 36.0103 13.5277 35.7654 14.3309 35.7858Z" fill="#F2F2E4"/>
<path d="M25.4317 60.4932C25.4317 60.4932 25.4934 60.5136 25.5758 60.534C26.0494 60.636 27.5321 60.9624 28.7677 61.7173C29.2001 61.9621 29.5914 62.2886 29.9003 62.6558C30.0033 62.7986 30.1062 62.9619 30.168 63.0843C30.621 63.982 30.6004 65.1041 30.0856 66.0222C29.7973 66.5731 29.3855 67.0831 28.8912 67.5524C28.2323 68.144 27.4086 68.6541 26.5025 69.0825C23.5783 70.4087 20.1599 70.1027 17.7917 69.613C16.6386 69.2866 14.9911 68.7153 13.7968 67.4708C12.7877 66.2058 12.1699 64.3696 12.1699 62.5538C12.2111 60.738 12.6024 59.0446 13.3025 57.6573C13.7144 56.882 14.2292 56.2087 14.7852 55.6578C15.959 54.4541 17.5858 53.5972 18.9243 53.434C19.1303 53.4136 19.3156 53.4136 19.5009 53.4136C19.6245 53.4136 19.7892 53.4544 19.9334 53.4748C19.9128 53.4952 19.8716 53.4952 19.851 53.4952C18.9861 53.74 18.2448 54.3725 17.8535 55.1682C17.4211 55.9843 17.3387 56.984 17.5858 57.8817C17.8329 58.7998 18.4095 59.5955 19.1921 60.0851C20.0775 60.6564 21.0454 60.7584 21.7044 60.7584C22.5281 60.7584 23.3518 60.4728 23.8872 59.9831C24.1755 59.7383 24.402 59.4323 24.5874 59.1058C24.6285 59.0242 24.6697 58.9018 24.7315 58.7998V58.8202L24.8757 59.1262L24.958 59.2078L25.1228 59.371L25.4523 59.7179L25.6788 59.9627L25.7611 60.0443L25.8023 60.0851C25.8435 60.1463 25.8847 60.2075 25.9259 60.2687C25.8023 60.2687 25.6376 60.2687 25.4728 60.2687C25.2463 60.3096 25.2875 60.4524 25.4317 60.4932Z" fill="#F2F2E4"/>
<path d="M22.9398 54.4539C23.0221 54.5151 23.0839 54.5559 23.1457 54.6171C22.7338 54.7599 22.2808 54.8824 21.8278 54.9844C21.56 55.0048 21.2923 55.0456 21.004 55.066C20.8805 55.0864 20.7569 55.1068 20.6334 55.1068C20.7157 54.964 20.7981 54.8619 20.8187 54.8415C20.8187 54.8415 20.8187 54.8212 20.8393 54.8212C20.8393 54.8007 20.8599 54.8007 20.8599 54.8007C20.8599 54.8211 20.8393 54.8212 20.8393 54.8212C20.8599 54.8212 20.8805 54.8007 20.8805 54.7599V54.7395C20.8805 54.7191 20.8599 54.7191 20.8599 54.6987C20.8599 54.6987 20.8599 54.6783 20.8393 54.6783C20.8187 54.6579 20.7981 54.6579 20.7775 54.6783C20.7981 54.6579 20.8187 54.6579 20.8393 54.6783C20.8393 54.6783 20.8187 54.6579 20.7981 54.6579C20.7775 54.6579 20.7775 54.6579 20.7775 54.6579C20.7775 54.6579 20.7775 54.6579 20.7569 54.6579C20.6128 54.7191 20.2627 54.9436 20.098 55.474C19.892 56.0453 19.892 56.9634 20.3451 57.7591C20.5098 58.0651 20.7569 58.3303 21.0864 58.514C21.21 58.5956 21.3335 58.6772 21.4983 58.7384C22.3014 59.024 23.1251 58.922 23.8047 58.8404C24.0312 58.7996 24.2165 58.7588 24.4018 58.718C24.3813 58.7588 24.3813 58.7792 24.3607 58.7996C24.1753 59.126 23.9488 59.4321 23.6605 59.6565C23.1663 60.0645 22.4661 60.2686 21.766 60.2482C21.1894 60.2278 20.3451 60.1053 19.5831 59.5953C18.9242 59.1668 18.4505 58.4936 18.2446 57.7183C18.0387 56.943 18.1005 56.1065 18.4505 55.4128C18.78 54.7395 19.3772 54.2091 20.0774 53.9847C21.2717 53.5358 22.3838 54.0867 22.9398 54.4539Z" fill="#F2F2E4"/>
<path d="M36.0156 50.4142C36.0156 50.4142 35.995 50.4142 35.995 50.4346C35.7685 50.5774 34.5124 51.2099 33.2356 51.2507C32.8238 50.9855 32.4119 50.7406 32 50.5366C31.9795 50.3122 31.8971 50.0062 31.7323 49.7817C31.5676 49.5369 31.3617 49.3329 31.1969 49.1697C30.888 48.8636 30.5174 48.578 30.0849 48.2924C29.7966 48.1088 29.5083 47.9455 29.22 47.8027C28.8905 47.6395 28.8494 47.6395 28.8288 47.6395C28.8082 47.6395 28.8082 47.6395 28.7876 47.6599C28.7876 47.6599 28.767 47.6803 28.767 47.7007C28.767 47.7211 28.7464 47.7211 28.767 47.7415C28.767 47.7823 28.7876 47.7823 28.8699 47.8435L28.9111 47.8639C29.0759 47.9659 29.4054 48.1904 29.8172 48.5168C30.1879 48.8228 30.4968 49.0881 30.7645 49.3533C30.7851 49.3737 30.7851 49.3941 30.8263 49.4349C31.0322 49.6593 31.2381 49.9042 31.3411 50.149H31.3205L31.2381 50.1082C30.6203 49.8429 29.6731 49.4961 28.6228 49.2921C28.6022 49.2921 28.5817 49.2921 28.5817 49.2921C28.5817 49.2921 28.5817 49.2921 28.5611 49.2921C28.4581 49.2921 28.4375 49.3941 28.4375 49.3941C28.4375 49.4145 28.4375 49.4145 28.4581 49.4145C28.4581 49.4145 28.4581 49.4145 28.4375 49.4145C28.4375 49.4145 28.4375 49.4145 28.4581 49.4145C28.4581 49.4145 28.4581 49.4145 28.4581 49.4349C28.4787 49.4553 28.4993 49.4553 28.6434 49.4961H28.664C28.9935 49.5981 29.8378 49.8634 30.9086 50.3938C31.6294 50.7611 32.4119 51.2303 33.1532 51.7608C33.5651 52.0668 33.9564 52.3728 34.327 52.6789C34.5124 52.8421 34.6977 53.0053 34.9036 53.1889C34.9242 53.1889 34.9242 53.2093 34.9242 53.2093C33.8534 52.9237 32.206 53.2297 30.7027 54.0662C30.2085 54.3111 29.7348 54.5967 29.2612 54.8823C28.3757 55.3924 27.552 55.882 26.893 56.0248C26.8313 56.0452 26.7695 56.0452 26.7077 56.0452C26.7077 55.9228 26.7077 55.8004 26.6871 55.6372C26.6665 54.9843 26.543 54.2294 26.337 53.393C26.337 53.3725 26.337 53.3725 26.337 53.3725C26.337 53.3725 26.337 53.3725 26.337 53.393C26.337 53.393 26.337 53.393 26.337 53.3725C26.1929 52.7605 25.987 52.1076 25.7604 51.4343C25.1427 49.5777 24.6072 47.5987 24.9985 45.6197C25.1427 44.5179 25.6987 43.5386 26.2341 42.6001V42.5797C26.6871 41.784 27.1402 40.9679 27.3667 40.0906C27.4285 39.8662 27.4696 39.6418 27.5108 39.397C27.6138 39.5806 27.7579 39.7642 27.9021 39.907C28.3139 40.2743 28.8699 40.5599 29.6319 40.7843C30.8674 41.1516 32.3707 41.274 33.977 41.1516C34.1829 41.4984 34.5124 41.8044 34.9242 42.0085C35.9127 42.4573 36.9217 42.2329 37.4571 42.0493C37.9514 41.8861 38.4456 41.6208 38.9192 41.2332C39.0222 41.274 39.1251 41.3148 39.2075 41.3556C39.3105 42.3961 39.2899 43.4774 39.1251 44.5792C39.0222 45.0688 38.8986 45.5177 38.7545 45.9257C38.4868 46.803 37.9308 48.2312 36.6952 50.0266L36.6746 50.0674C36.6334 50.1286 36.6128 50.149 36.6128 50.2102C36.6334 50.3122 36.7158 50.2918 36.7158 50.2918C36.7158 50.2918 36.7364 50.2918 36.757 50.2918C36.7982 50.2714 36.8393 50.2306 37.0247 50.0266C37.1276 49.9246 37.2924 49.7409 37.4777 49.5165C37.5601 50.3122 37.766 51.0263 37.9308 51.4751C38.0131 51.7608 38.1367 52.0668 38.2603 52.3524C38.1779 52.434 38.0543 52.6177 37.8278 52.8421C37.1688 53.3929 36.5511 53.8418 35.9539 54.1478L35.8097 54.0254C35.8097 53.7806 35.7891 53.5358 35.6862 53.2297C35.6656 53.1481 35.5626 53.0053 35.4802 52.9645L35.3361 52.8217C35.2949 52.7809 35.2537 52.7401 35.2125 52.6993C35.1919 52.6789 35.1507 52.6585 35.1302 52.6177L35.0272 52.5361C34.7183 52.2708 34.3888 52.0056 34.0181 51.7404C34.6771 51.5975 35.2125 51.3119 35.542 51.0671C35.7891 50.9039 36.0362 50.659 36.1392 50.557C36.201 50.4958 36.2628 50.3122 36.0156 50.4142Z" fill="#F2F2E4"/>
<path d="M25.741 29.4818C25.741 29.4818 25.7616 29.5226 25.7822 29.5634L25.8233 29.645L25.8645 29.7266C25.9469 29.8694 26.091 30.0938 26.2558 30.3387C25.3909 30.1143 24.4848 29.7674 23.6405 29.3186C23.4346 29.1757 23.2492 29.0533 23.0845 28.9309C22.7962 28.6861 22.5285 28.4413 22.2608 28.1964C21.5606 27.4824 21.0664 26.7275 20.7987 25.9522C20.4486 24.9933 20.5104 23.9324 20.9429 23.0959C21.3753 22.2798 22.1784 21.5861 23.1669 21.2189C24.1759 20.8312 25.1644 20.8108 25.8439 20.872C26.2146 20.8924 26.5647 20.9536 26.8942 21.0352C27.409 21.1576 27.9238 21.3617 28.4386 21.5861L28.7269 21.7085C28.7475 21.7289 28.8093 21.7289 28.8299 21.6881C28.8505 21.6473 28.8505 21.6065 28.8299 21.5657L28.6857 21.3005C28.3768 20.77 28.0885 20.2395 27.8414 19.7091C27.6561 19.2602 27.5119 18.9134 27.409 18.587C26.5647 16.1183 26.3793 13.976 26.8324 12.2622C26.9971 11.691 27.2648 11.2013 27.6149 10.8749C28.0474 10.4464 28.6034 10.3444 28.9946 10.3444C29.8595 10.3036 30.7862 10.6097 31.7541 11.2421C32.1041 11.4666 32.4336 11.7114 32.7219 11.9766C33.1544 12.3847 33.5456 12.8131 33.9163 13.2824L34.1222 13.5272C34.1222 13.5272 34.1222 13.5272 34.1222 13.5476C34.1428 13.568 34.184 13.568 34.2046 13.568C34.2458 13.568 34.287 13.5272 34.2664 13.4864L34.2458 13.1803C34.2252 12.9763 34.2046 12.5479 34.184 12.201C35.1313 12.8947 35.955 13.7516 36.5316 14.6901C37.4994 16.1999 37.7877 17.7097 37.8701 18.7298C37.7054 18.7706 37.5612 18.8114 37.4171 18.8726C37.4171 18.3625 37.3553 17.8321 37.2111 17.322C37.1082 16.914 36.964 16.5467 36.7993 16.1999C36.7169 16.0571 36.5934 15.853 36.4286 15.6694C36.3462 15.547 36.1403 15.445 35.9344 15.445C35.7902 15.445 35.6667 15.5062 35.5843 15.6286C35.6049 15.6082 35.6049 15.6082 35.6255 15.6082C35.6049 15.6082 35.5637 15.6286 35.5637 15.6694V15.649C35.3784 16.0367 35.4196 16.3835 35.4402 16.7099C35.4402 16.7507 35.4402 16.7711 35.4608 16.812C35.4608 16.8732 35.4608 16.914 35.4813 16.9752C35.5225 17.322 35.5843 17.6689 35.6461 18.0157L35.6667 18.1381C35.6667 18.1381 35.6667 18.1381 35.6667 18.1177C35.6667 18.1177 35.6667 18.1177 35.7902 18.7502C35.8726 19.199 35.9344 19.5459 35.9962 19.8519C35.6667 20.1783 35.4608 20.4436 35.3784 20.5456C35.3578 20.566 35.296 20.6884 35.3372 20.7292C35.3578 20.7496 35.399 20.7496 35.4608 20.7292C35.4813 20.7088 35.5019 20.7088 35.5637 20.6476C35.6873 20.5252 36.0785 20.1375 36.6963 19.7907C37.2111 19.4847 37.8907 19.301 38.5909 19.2602C38.5909 20.6884 39.0027 21.5453 39.8264 21.7901C40.403 21.9533 41.1032 21.8309 41.721 21.4637C41.8239 22.0757 41.8033 22.749 41.6592 23.3815C41.4738 24.2384 40.9796 25.0749 40.2795 25.7686C39.5999 26.4418 38.735 26.9723 37.7877 27.2987C35.3578 28.1964 32.516 28.2168 30.189 27.3395C29.2006 26.9723 28.3151 26.4214 27.5737 25.6461C26.853 24.8913 26.4411 24.1568 26.194 23.6263C26.6265 23.5651 27.0589 23.5243 27.5119 23.5243C27.7179 23.5243 27.6355 23.3815 27.6355 23.3815C27.5737 23.2795 27.0383 23.1775 26.9765 23.1571C26.6471 23.0959 26.1528 23.0551 25.638 23.1571C24.629 23.3203 23.9906 24.1568 23.97 24.2384C23.9494 24.2588 23.97 24.2996 23.9906 24.32C23.9906 24.32 23.9906 24.32 24.0112 24.32C24.0318 24.3404 24.0524 24.3404 24.0935 24.3404H24.1141C24.1347 24.3404 24.1347 24.3404 24.1347 24.32H24.1553C24.4642 24.1364 25.0614 23.7895 25.7204 23.6875C26.1528 24.2996 26.4411 25.3605 26.5441 26.8091C26.6059 27.462 26.6882 28.2372 26.9148 29.0533C27.1825 29.9918 27.5943 30.6855 28.1709 31.1548C28.8093 31.6852 29.736 31.8484 30.642 31.624C31.4658 31.3996 32.1247 30.9303 32.6807 30.5019C32.9896 30.2571 33.2573 30.0326 33.5044 29.8286C34.2252 29.2166 34.9047 28.6657 35.5637 28.4617C35.8314 28.4209 36.0374 28.3801 36.2433 28.3393C36.0374 28.5229 35.8314 28.6861 35.6049 28.8493C35.3784 28.9921 35.1313 29.1145 34.8842 29.2166C34.8636 29.237 34.843 29.237 34.8224 29.2778C34.5135 29.5838 34.184 29.9102 33.8545 30.2163C33.7516 30.2979 33.6486 30.3999 33.525 30.4815C32.3512 31.3996 31.2186 31.9709 30.1684 32.1749C29.5094 32.3177 28.8505 32.2157 28.3151 31.9301C27.7797 31.6648 27.3678 31.2364 26.9971 30.8079C26.0499 29.645 25.9057 29.4614 25.8439 29.4206C25.7204 29.1961 25.6586 29.3594 25.741 29.4818Z" fill="#F2F2E4"/>
<path d="M36.2831 17.995C36.2008 17.9542 36.0978 17.9542 36.0154 17.995C36.0154 17.9746 35.9948 17.893 35.9948 17.893C35.9536 17.5666 35.8919 17.2197 35.8507 16.8525L35.8301 16.7097C35.8095 16.3832 35.7683 15.9956 35.8919 15.7508C35.9125 15.71 35.9536 15.71 35.9742 15.71C36.139 15.7304 36.3861 16.016 36.5097 16.2812C36.6744 16.5873 36.8185 16.9545 36.9215 17.3217C37.1274 17.995 37.1892 18.5663 37.2098 18.9539C37.0863 19.0151 36.9627 19.0763 36.8597 19.1375C36.7362 18.3419 36.4685 18.0766 36.2831 17.995Z" fill="#F2F2E4"/>
<path d="M32.2682 30.1954C31.7946 30.5423 31.218 30.8891 30.5384 31.0523C29.8177 31.236 29.0352 31.0931 28.5409 30.6647C27.6349 29.869 27.326 28.6245 27.1406 27.4819C27.9643 27.5635 28.7469 27.9104 29.1999 28.4C29.4676 28.6857 29.6941 29.0121 29.8383 29.3793C29.8795 29.4406 29.8795 29.4814 29.9206 29.5018H29.9412C29.9618 29.5018 29.9618 29.4814 29.9824 29.4814C30.003 29.4814 30.003 29.4814 30.0236 29.4814C30.0442 29.461 30.0236 29.461 30.0236 29.4406L30.003 29.461C30.0236 29.461 30.0236 29.4406 30.0236 29.4406C30.0236 29.4406 30.0236 29.4406 30.0236 29.4202C30.0236 29.3997 30.0236 29.3998 30.0236 29.3998C30.0236 29.3998 30.0236 29.3998 30.0236 29.3793C29.9824 29.0733 29.8383 28.7673 29.6941 28.4816C30.3119 28.5225 31.6093 28.7265 32.2682 29.5018C32.5153 29.7466 32.3712 30.0526 32.2682 30.1954Z" fill="#F2F2E4"/>
<path d="M42.0086 31.6852C42.0086 31.6852 42.9352 31.6444 43.759 31.93C44.0473 32.0116 44.3561 32.134 44.665 32.3177C44.8504 32.4809 44.9945 32.6441 45.1387 32.7869C44.9945 32.7665 44.8298 32.7257 44.7062 32.7257C44.4179 32.7257 44.1914 32.8073 44.109 32.8481C44.109 32.8481 43.9237 33.0113 44.1502 33.0113H44.1708C44.315 33.0113 45.0769 33.1134 45.6329 33.5418C45.8182 33.6642 45.983 33.807 46.1683 33.9703C46.3125 34.1539 46.436 34.3375 46.5596 34.5007C47.1774 35.582 47.548 36.6021 47.6304 37.5611C47.6922 38.3159 47.5068 38.9484 47.1156 39.2748C46.6625 39.7033 46.0242 39.7441 45.5711 39.6625C45.427 39.6421 45.3034 39.6013 45.1593 39.5809L45.0151 39.5605H44.9945C44.768 39.5197 44.5827 39.4789 44.4179 39.4585C44.768 39.1524 44.8092 39.0912 44.8298 39.0708C44.8298 39.0504 44.8298 39.0096 44.7886 38.9892C44.7062 38.9484 44.1914 38.9892 43.8413 39.2748C43.4295 39.5809 43.3883 40.1317 43.4295 40.2134C43.4501 40.2338 43.4707 40.2542 43.4912 40.2542C43.5118 40.2542 43.5324 40.2542 43.553 40.2338C43.5736 40.2338 43.5942 40.2134 43.5942 40.193V40.2134C43.6148 40.193 43.8825 39.9073 44.1502 39.7237C44.1708 39.7237 44.1914 39.7237 44.1914 39.7237C44.3356 39.7441 44.5415 39.8053 44.7474 39.8665L44.8504 39.8869L45.0151 39.9481C45.0975 39.9685 45.1799 40.0093 45.2622 40.0297C44.9739 40.9682 44.109 41.7027 43.0588 41.8455C42.3586 41.9067 41.6997 41.7435 41.1849 41.3763C40.6906 41.009 40.3406 40.4378 40.2788 39.8257C40.217 39.4381 40.2788 39.0708 40.32 38.6832C40.3612 38.4588 40.3817 38.2343 40.3817 38.0303C40.4023 37.4386 40.3406 36.9898 40.2994 36.6838C40.2788 36.5205 40.2376 36.3777 40.217 36.3165C40.1758 36.1941 40.1552 36.1533 40.114 36.1329C40.114 36.1329 40.0111 36.1125 39.9905 36.2553V36.2757C40.0523 36.8266 40.0523 37.3978 39.9699 37.9895C39.9493 38.1323 39.9081 38.3159 39.8875 38.4792L39.8669 38.5404V38.5608C39.7846 38.9484 39.6816 39.3769 39.7228 39.8665C39.7434 40.2134 39.8463 40.5806 40.0111 40.9274C39.208 40.805 38.446 40.4174 37.9106 39.8869C37.5811 39.4789 37.3546 39.0504 37.2928 38.5608C37.1075 37.7447 37.1487 36.8674 37.1693 36.1125V35.9697C37.1693 35.7248 37.1899 35.5004 37.1899 35.2964C37.2311 34.5415 37.0457 33.909 36.9222 33.7458C36.8398 33.6234 36.7162 33.6642 36.7574 33.807V33.8274V33.8478V33.8682C36.7574 33.8886 36.9016 34.4395 36.7574 35.276C36.7368 35.3984 36.7368 35.5208 36.7162 35.6432L36.6956 35.8473C36.6133 36.5205 36.4897 37.4386 36.6133 38.3567C35.9131 38.4792 35.1924 38.2139 34.7805 37.6631C34.2657 37.0714 34.1421 36.2553 34.0598 35.4596C33.9774 34.7251 34.0392 34.0111 34.2039 33.297C34.3893 32.5421 34.7187 31.8688 35.1718 31.2771C35.7072 30.5835 36.3867 29.9918 37.1693 29.5838C38.1371 29.0737 38.9814 28.9309 39.7228 29.1349C40.3611 29.2981 40.9995 29.6042 41.6791 30.0122C41.4114 30.0122 41.1231 30.0326 41.0819 30.1142C41.0613 30.155 41.0613 30.1958 41.0819 30.2162C41.1025 30.2366 41.1231 30.257 41.1437 30.257H41.1231L41.1643 30.2774C41.8232 30.4611 42.2351 30.6243 42.4616 30.7263C42.6675 30.8079 42.8735 30.8895 43.1206 31.0323C43.2441 31.1343 43.3677 31.2363 43.4912 31.3384C43.1824 31.2771 42.8735 31.2771 42.5234 31.318C42.3175 31.3588 41.885 31.4608 41.8438 31.5424C41.9056 31.5424 41.8232 31.6444 42.0086 31.6852Z" fill="#F2F2E4"/>
<path d="M37.3126 41.6412C36.8595 41.7636 35.9535 41.886 35.1503 41.5188C34.7385 41.3352 34.4296 41.0291 34.3266 40.6823C34.2648 40.4375 34.306 40.213 34.4502 39.9886C34.7385 39.499 35.1503 39.1317 35.5004 38.8257C35.9329 38.9889 36.4065 39.0297 36.8184 38.9277C36.9831 39.499 37.2714 40.009 37.6627 40.3559C37.9304 40.6415 38.2598 40.8863 38.6099 41.0699C38.1981 41.3352 37.7656 41.5392 37.3126 41.6412Z" fill="#F2F2E4"/>
<path d="M29.8373 55.311C30.0227 55.4539 30.311 55.6987 30.6405 55.9639C29.5902 56.1679 28.5812 56.2087 27.8398 56.2291C28.4782 56.0251 29.1784 55.6783 29.8373 55.311Z" fill="#F2F2E4"/>
<path d="M48.7619 34.8271C49.0502 35.5819 49.0708 36.398 48.8443 37.0713C48.7619 37.3569 48.6178 37.6018 48.4119 37.8466C48.3501 37.9078 48.3089 37.969 48.2471 38.0098C48.2677 37.8466 48.2677 37.6834 48.2471 37.5202C48.1442 36.4184 47.7117 35.3167 46.9498 34.2558C46.4967 33.5213 45.8995 32.7868 45.1582 32.0728C45.9201 32.0932 46.7233 32.3788 47.3822 32.9092C48.0206 33.4193 48.5148 34.113 48.7619 34.8271Z" fill="#F2F2E4"/>
<path d="M42.7078 70.4495C41.5134 70.4087 40.422 69.7966 39.8454 68.8377C39.4541 68.2256 39.2482 67.4912 39.207 66.5935C39.207 66.5935 39.207 66.5527 39.207 66.4914C39.8248 66.7771 40.5044 66.8995 41.1633 66.7771C42.09 66.6343 42.9549 66.0222 43.4903 65.1449C44.417 63.6147 44.4376 61.5133 43.5109 59.9219C43.2638 59.5139 42.9549 59.1262 42.5842 58.8202C42.6048 58.7794 42.6048 58.759 42.6254 58.7182L42.646 58.657C43.0373 57.7797 43.3256 56.3719 43.5109 55.3518L43.5315 55.1682L43.5521 55.0254C43.6963 54.1685 43.8198 53.3728 43.9846 52.6995C44.1699 52.1486 44.3964 51.659 44.6847 51.2305C45.2819 50.3124 46.1468 49.6799 47.0735 49.4759C49.2769 48.9047 51.5421 50.3532 52.8188 52.0262C53.519 52.9647 54.0956 54.0256 54.4251 55.1274C54.7958 56.3107 54.9193 57.4736 54.7958 58.6162C54.5075 60.9012 53.622 63.1455 52.2011 65.1449C50.8625 67.0015 49.0916 68.5317 47.0941 69.5314C46.8881 69.6334 46.6822 69.7354 46.4557 69.817C45.1172 70.3475 43.861 70.5515 42.7078 70.4495Z" fill="#F2F2E4"/>
<path d="M37.5396 63.2472L37.7249 63.4716L38.5074 64.3897C38.5074 64.3897 38.5074 64.3897 38.5074 64.3693C38.528 64.3897 38.5486 64.4101 38.5692 64.4101C38.5486 64.4101 38.5486 64.4101 38.5486 64.4101C39.1664 64.7569 39.9283 64.5529 40.3402 64.2265C40.4843 64.1245 40.6285 63.9817 40.7726 63.8388C41.0609 63.5532 41.308 63.1656 41.4934 62.7371C41.7817 62.0434 41.8641 61.2682 41.7199 60.5541C41.6993 60.3909 41.6375 60.2072 41.5552 59.9828V60.0032C41.5552 59.9828 41.5346 59.9624 41.5346 59.9624C41.5346 59.9624 41.5346 59.9624 41.5552 59.9828C41.4522 59.7992 41.3698 59.7176 41.308 59.636L41.2875 59.5952C41.2669 59.5748 41.2257 59.534 41.2051 59.4932C41.0198 59.2687 40.8344 59.0443 40.6491 58.8199L40.6285 58.7995L40.5049 58.6567C40.5049 58.6567 40.402 58.5342 40.3196 58.4526C40.3608 58.4526 40.3814 58.4526 40.4226 58.4526C40.5461 58.4526 40.6491 58.4526 40.752 58.4526C41.514 58.5546 42.5436 59.0647 43.0996 60.1868C43.4497 60.8397 43.635 61.6558 43.635 62.4719C43.635 63.3288 43.4085 64.1449 42.9967 64.8182C42.5436 65.5322 41.8435 66.0423 41.1021 66.1851C40.3608 66.3279 39.5577 66.1443 38.9193 65.675C37.8691 64.8998 37.5396 63.7368 37.416 63.0432" fill="#F2F2E4"/>
<path d="M32.598 18.7909C32.6186 18.8317 32.6392 18.8725 32.6392 18.9337C33.0099 19.9742 33.4835 20.6883 34.1837 20.5047C34.7809 20.3414 35.0486 19.4641 34.9456 18.24C34.9456 18.1788 34.9456 18.1176 34.925 18.0564C34.8632 17.3219 34.6779 16.465 34.369 15.6081C34.2043 15.1797 34.0189 14.7308 33.7306 14.3228C33.4629 13.9351 33.0305 13.4659 32.4127 13.5679C32.0832 13.6495 31.9391 13.9759 31.8773 14.2003C31.8155 14.4452 31.7949 14.69 31.7949 14.9552C31.7949 15.4449 31.8567 15.9345 31.9185 16.3834C32.0832 17.2607 32.3303 18.0972 32.598 18.7909Z" fill="#231F20"/>
<path d="M47.733 62.4925C47.7535 62.4925 47.7535 62.4925 47.733 62.4925C47.7535 62.4925 47.7535 62.4925 47.733 62.4925C47.7535 62.5129 47.7741 62.5129 47.7741 62.5129H47.7535C47.7741 62.5333 47.7741 62.5333 47.7947 62.5333H47.8153C47.8153 62.5333 47.8153 62.5333 47.7947 62.5333C47.8153 62.5333 47.8359 62.5129 47.8359 62.4925C47.8359 62.4721 47.8359 62.4517 47.8153 62.4313C47.733 62.3497 46.415 60.7787 45.6119 59.0241C44.7058 57.2287 44.1086 55.2497 44.1086 55.2293C44.1086 55.2497 44.1086 55.2497 44.088 55.2701C44.088 55.2497 44.1086 55.2497 44.088 55.2293C44.088 55.2089 44.0674 55.1885 44.0468 55.1885C44.0263 55.1885 44.0057 55.1885 43.9851 55.2089C43.9851 55.2293 43.9851 55.2293 43.9851 55.2497V55.2293V55.2701C43.9851 55.2701 43.9851 55.2701 43.9851 55.2905C43.9645 55.4741 44.0674 56.127 44.1704 56.5758C44.3146 57.2695 44.6029 58.2896 45.0971 59.2689C45.9208 61.0031 47.4447 62.3293 47.733 62.4925Z" fill="#231F20"/>
<path d="M9.18369 41.6616C8.52472 42.3348 8.15405 43.2121 8.17464 43.2121C8.17464 43.2121 8.81302 42.5389 9.45139 41.9064C10.0692 41.2535 10.6458 40.519 10.6458 40.519C10.6458 40.519 9.82206 40.9883 9.18369 41.6616Z" fill="#231F20"/>
<path d="M9.96599 39.1928C9.96599 39.1724 9.22465 39.254 8.60687 39.6213C7.9685 39.9681 7.55664 40.5802 7.55664 40.5802C7.55664 40.5802 8.17442 40.2334 8.77161 39.9273C9.3688 39.6009 9.96599 39.2132 9.96599 39.1928Z" fill="#231F20"/>
<path d="M10.1308 44.5591C10.1308 44.5591 10.5839 43.8858 10.9545 43.2125C11.3252 42.5188 11.5723 41.7435 11.5517 41.7231C11.5517 41.7231 10.9957 42.3352 10.625 43.0493C10.2544 43.743 10.1102 44.5591 10.1308 44.5591Z" fill="#231F20"/>
<path d="M33.6269 42.6207C33.318 42.5187 32.9885 42.5799 32.659 42.7431C32.4119 42.8859 32.1854 43.0899 31.9795 43.3348C31.9589 43.3756 31.9383 43.396 31.8971 43.4164C31.4646 43.9672 31.1352 44.7221 31.0116 45.579C30.9086 46.3951 30.8675 47.4356 31.6088 48.1905C32.0001 48.5577 32.659 48.5373 33.0503 48.2517C33.4621 47.9865 33.7299 47.5988 33.9358 47.2112C34.327 46.4359 34.4712 45.6402 34.5124 44.9669C34.5124 44.9261 34.5124 44.9057 34.5124 44.8649C34.5947 43.7836 34.3476 42.8247 33.6269 42.6207Z" fill="#231F20"/>
<path d="M37.6418 47.3541C37.9095 47.0685 38.0949 46.7421 38.239 46.436C38.5273 45.8036 38.6097 45.1507 38.5685 44.5998C38.5479 44.0694 38.4449 43.5593 38.2184 43.1921C38.0743 42.9472 37.9095 42.784 37.7242 42.7432C37.5389 42.7024 37.3535 42.7228 37.1682 42.8452C36.8799 43.0289 36.6122 43.3757 36.4063 43.8653C36.1592 44.355 35.9944 44.9467 35.912 45.5995C35.8709 45.9464 35.8503 46.3136 35.912 46.6809C35.9738 47.0277 36.0562 47.4766 36.4886 47.7418C36.9623 47.9254 37.3947 47.6194 37.6418 47.3541Z" fill="#231F20"/>
<path d="M25.9874 61.0437C26.008 61.0437 26.008 61.0437 25.9874 61.0437C25.7403 60.9213 23.331 60.6764 21.0864 61.4313C19.8508 61.7986 18.7388 62.4106 18.018 62.8595C17.6062 63.1247 17.2767 63.3491 17.0914 63.492C16.7207 63.7776 16.7207 63.798 16.7207 63.8184C16.7207 63.8388 16.7413 63.8592 16.7825 63.8592L16.8237 63.8388H16.8443C16.8649 63.8388 16.8854 63.8388 16.9266 63.8184C18.8624 62.7779 20.345 62.227 21.2511 61.9618C23.4134 61.2273 25.8021 61.1253 25.9669 61.1457C26.111 61.1457 26.0698 61.0641 25.9874 61.0437Z" fill="#231F20"/>
<path d="M33.4007 14.5267C33.689 14.9144 33.8743 15.3632 34.0185 15.7305C34.3274 16.5261 34.5539 17.3422 34.6363 18.0971C34.6568 18.2399 34.6568 18.3624 34.6774 18.4848C34.7186 19.3009 34.5745 19.8721 34.2862 20.117C34.3274 19.7905 34.2862 19.3825 34.1008 18.8724C33.8743 18.2603 33.5242 17.8115 33.1536 17.6483C32.9682 17.5667 32.7829 17.5667 32.6182 17.6279C32.5976 17.6483 32.5564 17.6687 32.5358 17.6891C32.4122 17.2198 32.3093 16.7506 32.2475 16.3221C32.1651 15.7917 32.1445 15.3632 32.1445 14.9552C32.1651 14.7307 32.1857 14.0371 32.474 13.9555C32.8241 13.8738 33.1948 14.2207 33.4007 14.5267Z" fill="#F2F2E4"/>
<path d="M31.9177 47.8436C31.3411 47.2723 31.3617 46.2114 31.4029 45.6197C31.4853 44.8445 31.753 44.11 32.1237 43.5795C32.1237 43.5795 32.1237 43.5591 32.1442 43.5591C32.3502 43.3143 32.5561 43.1103 32.7826 42.9878C33.0297 42.845 33.2974 42.8042 33.5446 42.8858C34.0388 43.0286 34.3065 43.8039 34.2447 44.8445C34.2447 44.8649 34.2447 44.8853 34.2447 44.9057C34.2447 44.9261 34.2447 44.9261 34.2447 44.9465C34.1829 45.4769 34.0182 46.2726 33.5857 47.0275C33.3592 47.4355 33.1121 47.7212 32.8238 47.8844C32.5355 48.068 32.1648 48.068 31.9177 47.8436Z" fill="#F2F2E4"/>
<path d="M37.6435 43.0081C37.7464 43.0489 37.87 43.1509 37.973 43.3346C38.1583 43.6406 38.2613 44.1098 38.2819 44.5995C38.2819 45.13 38.1377 45.7216 37.87 46.2521C37.7053 46.5785 37.5199 46.8438 37.3346 47.0478C37.1493 47.2518 36.861 47.415 36.6962 47.313C36.4697 47.211 36.3667 46.7417 36.3461 46.5989C36.305 46.2929 36.2844 45.9869 36.305 45.6196C36.3461 44.9667 36.4903 44.3751 36.6962 43.8854C36.8815 43.4978 37.0875 43.2121 37.314 43.0693C37.4376 43.0081 37.5405 42.9673 37.6435 43.0081Z" fill="#F2F2E4"/>
</svg>
