<svg width="87" height="87" viewBox="0 0 87 87" fill="none" xmlns="http://www.w3.org/2000/svg">
<circle opacity="0.14" cx="43.5" cy="43.5" r="43.5" fill="white"/>
<path d="M61.19 44.7636C60.5992 44.0366 59.6452 43.855 58.7819 44.3091C57.646 44.8999 50.558 50.0795 48.2408 51.8058C47.8773 51.3514 47.1503 50.9425 46.06 50.8515C45.3329 50.7606 45.3329 50.7606 44.7878 50.7606C44.288 50.7152 43.2884 50.6696 40.5624 50.5333C35.7006 50.2151 32.9294 53.1686 29.3853 56.8489C28.7038 57.5759 27.9768 58.3483 27.2044 59.0753C26.9319 59.3479 26.9319 59.7567 27.2044 60.0296L32.0202 65.0279C32.1565 65.1642 32.3384 65.2552 32.52 65.2552C32.7016 65.2552 32.8835 65.1642 33.0198 65.0279C33.0198 64.9826 35.2916 62.3473 36.2459 61.4387L36.5185 61.2114C37.2455 60.53 37.5181 60.2571 39.4716 60.3028C41.8797 60.3481 45.2874 60.2119 46.7868 60.0756C46.923 60.0756 47.014 60.0756 47.1503 60.0303C48.4678 59.9393 49.6946 59.8486 51.7848 57.6675C53.6021 55.7592 59.8724 49.0802 61.0537 47.6717C61.917 46.5808 61.7351 45.445 61.19 44.7636ZM32.4746 63.5285L28.6581 59.5301C29.2489 58.894 29.8394 58.3033 30.3848 57.7128C30.521 57.5766 30.6573 57.3946 30.8392 57.2584L34.3379 61.3931C33.6558 62.1655 32.9292 62.9831 32.4746 63.5285ZM60.0086 46.7173C58.9183 47.9895 52.966 54.3504 50.7852 56.6677C49.0586 58.485 48.1952 58.5307 47.0593 58.6213C46.923 58.6213 46.8321 58.6213 46.6958 58.6666C45.1964 58.8029 41.8797 58.9392 39.517 58.8939C37.1089 58.8486 36.5181 59.2574 35.5641 60.2114L35.2916 60.4839L31.7929 56.3492C34.5645 53.5776 36.8817 51.6693 40.5166 51.8966C43.2429 52.0782 44.2425 52.1238 44.7876 52.1238C45.2874 52.1691 45.2874 52.1691 45.9689 52.2148C46.9232 52.3057 47.2411 52.6236 47.2863 52.7599V52.8052C47.241 52.9868 46.9681 53.2597 46.3777 53.4413C44.4694 54.0774 41.4253 54.7588 41.3796 54.8045C41.0161 54.8954 40.7889 55.259 40.8798 55.6221C40.9708 55.9857 41.3343 56.2129 41.6975 56.122C41.8338 56.0766 44.8326 55.3949 46.7862 54.7588C47.6948 54.4406 48.3309 53.8954 48.5582 53.2594C51.4207 51.124 58.4632 46.0352 59.4628 45.4898C59.8716 45.2625 60.0988 45.4898 60.1442 45.5807C60.327 45.8086 60.4175 46.2628 60.0086 46.7173Z" fill="white"/>
<path d="M31.793 35.5402C31.793 42.4465 37.4271 48.0804 44.3332 48.0804C51.2395 48.0804 56.8734 42.4463 56.8734 35.5402C56.8734 33.8136 56.5099 32.1325 55.8739 30.6331C55.8739 30.5878 55.8285 30.5422 55.8285 30.4969C55.2834 29.2247 54.5111 28.0435 53.6021 27.0438C53.5568 26.9985 53.5568 26.9529 53.5111 26.9529C52.2843 25.6354 50.7848 24.5901 49.1039 23.9087C49.0586 23.9087 49.0586 23.8634 49.0129 23.8634H48.9676C47.5138 23.3179 45.9691 23 44.3787 23C42.1069 23 39.9714 23.5908 38.1541 24.681C38.1088 24.681 38.1088 24.7264 38.0631 24.7264C38.0631 24.7264 38.0178 24.7264 38.0178 24.7717C35.746 26.1348 33.9288 28.134 32.8835 30.5874C32.1568 32.1325 31.793 33.8135 31.793 35.5402ZM44.3332 46.7174C38.154 46.7174 33.156 41.7193 33.156 35.5402C33.156 34.3133 33.3833 33.0868 33.7468 31.9962C34.8827 33.0411 35.4734 33.5866 36.1549 34.4952C36.2912 34.6769 36.6094 35.1313 37.1092 35.1313H37.2002C37.7453 35.086 37.9272 34.6315 38.1088 34.268C38.2451 33.9498 38.3814 33.7228 38.5176 33.6772C38.7449 33.6319 38.8358 33.6319 38.9721 33.6319C39.8355 33.6772 39.9717 33.1774 40.3805 31.9509L40.4259 31.7692C40.6075 31.1332 41.1982 30.6787 41.6981 30.3151C42.1979 29.9063 42.743 29.4975 42.6524 28.861C42.6071 28.2703 42.0163 27.9067 41.4255 27.6342C39.6083 26.7708 38.9722 27.8158 38.654 28.3156C38.654 28.3609 38.6086 28.4066 38.563 28.4066C38.3814 28.3156 38.2904 28.2703 38.2448 28.225C38.2448 28.1796 38.2448 28.134 38.2901 28.134C38.3354 27.8614 38.4264 27.4979 38.3354 26.9528C38.2445 26.3167 38.5627 25.9984 38.6536 25.9078C40.0621 25.0901 41.6978 24.5447 43.4245 24.4084C43.2429 25.5897 43.2429 26.8618 44.0152 27.271C44.1968 27.3619 44.3334 27.4072 44.515 27.4072C45.2421 27.4072 45.8782 26.7258 46.1054 26.4529C47.3776 25.0898 48.2863 25.1807 48.4226 25.2261C49.7857 25.7712 50.9669 26.5892 52.0118 27.5432C51.6936 27.7705 51.1485 27.9068 50.6487 28.043C49.6491 28.3156 48.4223 28.6338 48.3769 29.8603C48.3769 30.2238 48.4679 30.5417 48.7404 30.8146C49.4218 31.496 50.8306 31.5417 53.0567 31.5417H54.6471C55.147 32.8139 55.4195 34.1769 55.4195 35.5854C55.5108 41.7194 50.5127 46.7174 44.3332 46.7174ZM46.2868 24.5448C45.9233 24.772 45.5597 25.0899 45.1962 25.4991C45.0146 25.6807 44.878 25.8173 44.7874 25.9079C44.7421 25.6354 44.7421 25.1356 44.8784 24.4085C45.3782 24.4085 45.8327 24.4538 46.2868 24.5448ZM54.1017 30.1333H53.1474C52.1478 30.1333 50.2395 30.1786 49.876 29.8607C49.967 29.6791 50.6937 29.4519 51.1029 29.3609C51.739 29.1793 52.466 28.9974 53.0112 28.5432C53.4203 29.0427 53.7839 29.5881 54.1017 30.1333ZM37.0633 27.0891C37.1087 27.4073 37.0633 27.6342 37.018 27.8614C36.8817 28.6338 36.9727 29.1336 38.063 29.6787C39.1535 30.2238 39.6986 29.3605 39.8802 29.0426C40.1075 28.6791 40.1528 28.5881 40.8798 28.9063C40.9708 28.9517 41.0614 28.9973 41.1524 29.0426C41.0614 29.1336 40.9708 29.1789 40.8798 29.2699C40.289 29.7244 39.4714 30.3604 39.1532 31.4053L39.1078 31.5869C39.0169 31.8595 38.9262 32.1321 38.8806 32.314C38.699 32.314 38.5171 32.314 38.2445 32.405C37.6084 32.5412 37.2449 33.041 37.0633 33.4045C36.3819 32.5412 35.7458 31.9504 34.6552 30.9512L34.337 30.6786C34.9734 29.2699 35.9275 28.0434 37.0633 27.0891Z" fill="white"/>
<path d="M41.7438 35.3128C40.6989 34.7677 39.8355 34.722 39.1995 35.1765C37.7911 36.1308 38.0636 39.0387 38.3362 41.8103C38.3815 42.4917 38.4725 43.1278 38.4725 43.6732C38.4725 43.7642 38.5178 43.8548 38.5178 43.9458C38.836 44.6272 39.3355 44.7182 39.5627 44.7182H39.608C40.6076 44.7182 41.38 43.4007 42.4706 41.4468C42.5615 41.2652 42.6978 41.0379 42.7888 40.856C42.925 40.5835 43.1523 40.3109 43.3339 40.0383C43.8337 39.3569 44.4244 38.539 44.2425 37.585C44.0612 36.8123 43.2889 36.0852 41.7438 35.3128ZM42.2893 39.2656C42.062 39.5838 41.8348 39.8564 41.6532 40.2199C41.5622 40.4015 41.426 40.5835 41.335 40.8107C40.9262 41.4921 40.2447 42.719 39.7903 43.2188C39.745 42.7643 39.6993 42.2192 39.654 41.7194C39.4724 39.9021 39.1995 36.8576 39.9266 36.3125C39.9719 36.2672 40.0628 36.2672 40.1991 36.2672C40.4264 36.2672 40.7443 36.3581 41.1078 36.5397C42.5619 37.2668 42.8797 37.7666 42.925 37.9938C43.0163 38.3117 42.6528 38.7661 42.2893 39.2656Z" fill="white"/>
<path d="M54.4658 37.0397L53.6935 35.2224C53.1027 33.814 52.8301 33.632 51.7399 33.2689C51.3311 33.1326 50.7856 32.9506 49.9679 32.5874C48.7411 32.0423 48.0596 31.8151 47.5145 32.0876C47.0147 32.3149 46.9238 32.769 46.7875 33.1782C46.6965 33.4507 46.6059 33.7689 46.424 34.0868C45.9695 34.9045 45.9242 35.8134 46.333 36.5858C46.7419 37.3583 47.5599 37.9033 48.3775 37.9943H49.1499C49.2409 38.1306 49.3315 38.585 49.3315 40.1751V40.2204C49.4225 41.7198 49.695 43.1283 50.6947 43.3099H50.8763C52.0122 43.3099 52.9665 41.4469 54.4203 37.7214L54.4656 37.5398C54.5569 37.4032 54.5568 37.2213 54.4658 37.0397ZM50.9675 41.8105C50.8766 41.5833 50.7859 41.0835 50.695 40.1748C50.695 37.5396 50.4224 36.6762 48.832 36.6762H48.4685C48.105 36.6309 47.6961 36.358 47.5142 35.9948C47.3326 35.6313 47.3326 35.2224 47.6052 34.8136C47.8777 34.3591 48.014 33.9049 48.0596 33.6323C48.0596 33.587 48.105 33.496 48.105 33.4507C48.2866 33.496 48.6501 33.587 49.3772 33.9505C50.2858 34.3594 50.9219 34.5413 51.3307 34.6776C52.0121 34.9048 52.0121 34.9048 52.4213 35.8588L53.1027 37.4492C52.1487 39.8113 51.4216 41.3107 50.9675 41.8105Z" fill="white"/>
<path fill-rule="evenodd" clip-rule="evenodd" d="M61.384 44.6059L61.3852 44.6074C62.0007 45.3768 62.1875 46.6418 61.2497 47.8268L61.2453 47.8324C60.0576 49.2485 53.7804 55.9344 51.9658 57.8399C50.9056 58.9463 50.0483 59.5393 49.2743 59.8633C48.5113 60.1827 47.8463 60.2327 47.1973 60.2776C47.0408 60.325 46.9238 60.3256 46.7981 60.3256C45.2832 60.4624 41.8774 60.5981 39.4669 60.5527L39.4657 60.5527C38.4929 60.53 37.977 60.5888 37.6211 60.7192C37.2734 60.8465 37.059 61.0474 36.6894 61.3938L36.6841 61.3987L36.4123 61.6254C35.9434 62.0729 35.1475 62.9468 34.4623 63.7225C34.1196 64.1106 33.8068 64.4715 33.58 64.7378C33.4665 64.8711 33.3752 64.9799 33.3127 65.0563C33.296 65.0767 33.2817 65.0944 33.2698 65.1093V65.1314L33.1966 65.2047C33.0252 65.376 32.783 65.5052 32.52 65.5052C32.257 65.5052 32.0147 65.376 31.8434 65.2047L31.8401 65.2014L27.0275 60.2062C27.0269 60.2057 27.0264 60.2051 27.0258 60.2046C26.6576 59.8341 26.658 59.2683 27.0276 58.8985L27.0329 58.8932C27.7989 58.1723 28.5209 57.4054 29.2029 56.6779L29.2052 56.6755C29.2646 56.6138 29.3237 56.5524 29.3827 56.4911C32.8287 52.9111 35.6663 49.9631 40.5768 50.2837C41.0269 50.3062 41.4301 50.3262 41.7919 50.3442C43.5998 50.4341 44.374 50.4725 44.799 50.5106C45.345 50.5106 45.3617 50.5123 46.086 50.6028C47.0887 50.6875 47.8271 51.0322 48.2733 51.47C49.485 50.5697 51.7134 48.9351 53.8084 47.4286C54.9107 46.636 55.977 45.8782 56.8392 45.2814C57.6941 44.6896 58.3646 44.2444 58.666 44.0875C59.6288 43.5814 60.7141 43.7816 61.384 44.6059ZM58.7819 44.3091C59.6452 43.855 60.5992 44.0366 61.19 44.7636C61.7351 45.445 61.917 46.5808 61.0537 47.6717C59.8724 49.0802 53.6021 55.7592 51.7848 57.6675C49.6946 59.8486 48.4678 59.9393 47.1503 60.0303C47.014 60.0756 46.923 60.0756 46.7868 60.0756C45.2874 60.2119 41.8797 60.3481 39.4716 60.3028C37.536 60.2575 37.2506 60.525 36.5383 61.1928L36.5185 61.2114L36.2459 61.4387C35.2916 62.3473 33.0198 64.9826 33.0198 65.0279C32.8835 65.1642 32.7016 65.2552 32.52 65.2552C32.3384 65.2552 32.1565 65.1642 32.0202 65.0279L27.2044 60.0296C26.9319 59.7567 26.9319 59.3479 27.2044 59.0753C27.9768 58.3483 28.7038 57.5759 29.3853 56.8489L29.5313 56.6972C33.0061 53.0878 35.7676 50.2195 40.5624 50.5333L41.7801 50.5939C43.6053 50.6847 44.3708 50.7227 44.7878 50.7606C45.3329 50.7606 45.3329 50.7606 46.06 50.8515C47.1503 50.9425 47.8773 51.3514 48.2408 51.8058C50.558 50.0795 57.646 44.8999 58.7819 44.3091ZM59.8227 46.5501C60.1497 46.1866 60.0553 45.8694 59.9492 45.7371L59.9325 45.7163L59.9205 45.6924C59.9218 45.695 59.9215 45.6946 59.9193 45.6923C59.9132 45.6858 59.8934 45.6645 59.8571 45.6519C59.8211 45.6392 59.7363 45.6238 59.5843 45.7083L59.5825 45.7092C59.3473 45.8376 58.7328 46.2484 57.8824 46.8389C57.0383 47.4251 55.9759 48.1782 54.8547 48.9816C52.6423 50.5666 50.2038 52.3448 48.7659 53.4164C48.4841 54.1144 47.7874 54.673 46.8688 54.9947L46.8636 54.9966C45.8784 55.3173 44.6335 55.6484 43.6216 55.9043C43.115 56.0324 42.6654 56.1419 42.3343 56.2222C42.1685 56.2625 42.0331 56.2952 41.9346 56.3193C41.8854 56.3314 41.8462 56.3411 41.8175 56.3484C41.7946 56.3543 41.7828 56.3575 41.7784 56.3587C41.7765 56.3592 41.7759 56.3594 41.7765 56.3592L41.7674 56.3622L41.7582 56.3645C41.2557 56.4902 40.7604 56.175 40.6373 55.6828C40.5137 55.1893 40.8158 54.7024 41.2932 54.5688C41.2981 54.5668 41.3024 54.5651 41.3058 54.5639C41.3199 54.5587 41.3355 54.5537 41.3498 54.5494C41.3793 54.5404 41.4187 54.5296 41.465 54.5173C41.5584 54.4925 41.6903 54.4592 41.8509 54.4191C41.9351 54.3981 42.0275 54.3751 42.127 54.3504C42.4088 54.2804 42.7476 54.1963 43.1186 54.102C44.1235 53.8465 45.3539 53.519 46.2986 53.2041L46.3042 53.2023C46.5771 53.1183 46.7647 53.0169 46.8839 52.9251C46.949 52.8751 46.9886 52.8321 47.0122 52.8004C46.983 52.7731 46.9334 52.7345 46.8518 52.6914C46.6838 52.6027 46.4003 52.5074 45.9486 52.464C45.2744 52.4188 45.2665 52.4182 44.7762 52.3738C44.2187 52.3731 43.2055 52.3262 40.5003 52.1461C37.0547 51.9308 34.8282 53.6851 32.1325 56.3636L35.3069 60.115L35.3873 60.0346C35.8686 59.5533 36.2861 59.1799 36.9064 58.9442C37.5199 58.7111 38.3084 58.6211 39.5217 58.6439C41.8614 58.6888 45.1435 58.5547 46.646 58.4201C46.8044 58.3717 46.9223 58.3713 47.0493 58.3713L47.0732 58.3694C47.6299 58.3251 48.0814 58.2891 48.6009 58.0628C49.132 57.8314 49.7525 57.3915 50.6034 56.496C52.7873 54.1754 58.7334 47.821 59.8187 46.5546L59.8227 46.5501ZM50.7852 56.6677C49.0818 58.4605 48.2186 58.5291 47.105 58.6176L47.0593 58.6213C46.923 58.6213 46.8321 58.6213 46.6958 58.6666C45.1964 58.8029 41.8797 58.9392 39.517 58.8939C37.1089 58.8486 36.5181 59.2574 35.5641 60.2114L35.2916 60.4839L31.7929 56.3492C34.5645 53.5776 36.8817 51.6693 40.5166 51.8966C43.2429 52.0782 44.2425 52.1238 44.7876 52.1238C45.287 52.169 45.2875 52.1691 45.9689 52.2148C46.9232 52.3057 47.2411 52.6236 47.2863 52.7599V52.8052C47.241 52.9868 46.9681 53.2597 46.3777 53.4413C45.0708 53.8769 43.2314 54.3337 42.187 54.5931C41.7063 54.7125 41.394 54.7901 41.3796 54.8045C41.0161 54.8954 40.7889 55.259 40.8798 55.6221C40.9708 55.9857 41.3343 56.2129 41.6975 56.122C41.7268 56.1122 41.8888 56.073 42.1444 56.011L42.1456 56.0107L42.1469 56.0104C43.0806 55.7842 45.2548 55.2574 46.7862 54.7588C47.6948 54.4406 48.3309 53.8954 48.5582 53.2594C51.4207 51.124 58.4632 46.0352 59.4628 45.4898C59.8716 45.2625 60.0988 45.4898 60.1442 45.5807C60.327 45.8086 60.4175 46.2628 60.0086 46.7173C58.9183 47.9895 52.966 54.3504 50.7852 56.6677ZM55.8285 30.4969C55.8285 30.5196 55.8398 30.5423 55.8512 30.565C55.8625 30.5877 55.8739 30.6105 55.8739 30.6331C56.5099 32.1325 56.8734 33.8136 56.8734 35.5402C56.8734 42.4463 51.2395 48.0804 44.3332 48.0804C37.4271 48.0804 31.793 42.4465 31.793 35.5402C31.793 33.8135 32.1568 32.1325 32.8835 30.5874C33.9288 28.134 35.746 26.1348 38.0178 24.7717C38.0178 24.7264 38.0631 24.7264 38.0631 24.7264C38.086 24.7264 38.0974 24.715 38.1088 24.7036C38.1201 24.6923 38.1315 24.681 38.1541 24.681C39.9714 23.5908 42.1069 23 44.3787 23C45.9691 23 47.5138 23.3179 48.9676 23.8634H49.0129C49.0358 23.8634 49.0472 23.8748 49.0586 23.8861C49.0699 23.8974 49.0813 23.9087 49.1039 23.9087C50.7848 24.5901 52.2843 25.6354 53.5111 26.9529C53.5394 26.9529 53.5501 26.9704 53.565 26.9944C53.5741 27.0092 53.5848 27.0265 53.6021 27.0438C54.5111 28.0435 55.2834 29.2247 55.8285 30.4969ZM53.6522 26.7379C53.6621 26.7432 53.6718 26.7491 53.6813 26.7558C53.7275 26.788 53.7541 26.8267 53.7647 26.8427C53.7772 26.8614 53.7819 26.8689 53.783 26.8712L53.7872 26.8754C54.7143 27.895 55.5018 29.0998 56.0583 30.3984L56.0785 30.4456V30.4606C56.0841 30.472 56.0932 30.4909 56.1009 30.5113C56.1061 30.5254 56.1122 30.5438 56.1168 30.5657C56.7575 32.0872 57.1234 33.7905 57.1234 35.5402C57.1234 42.5844 51.3775 48.3304 44.3332 48.3304C37.289 48.3304 31.543 42.5846 31.543 35.5402C31.543 33.7796 31.9137 32.0636 32.6553 30.4852C33.7129 28.0055 35.5417 25.9833 37.8239 24.5967C37.8562 24.5524 37.8957 24.5249 37.9286 24.5085C37.9446 24.5005 37.9599 24.4946 37.9737 24.4903C37.981 24.4849 37.9892 24.4793 37.9984 24.4738C38.0165 24.4629 38.0374 24.453 38.0609 24.4454C39.9108 23.3446 42.078 22.75 44.3787 22.75C45.987 22.75 47.5468 23.0684 49.0127 23.6134C49.0395 23.6134 49.0672 23.6168 49.0949 23.6245C49.1227 23.6322 49.147 23.6432 49.1679 23.6557C49.1807 23.6633 49.1916 23.6711 49.2007 23.6782C50.8959 24.3659 52.4097 25.4161 53.6522 26.7379ZM38.0631 24.7096C38.0631 24.6186 38.063 24.5631 38.063 24.5292L38.0631 24.7096ZM36.1549 34.4952C35.515 33.6421 34.9551 33.1091 33.9489 32.1822C33.8834 32.1219 33.8161 32.06 33.7468 31.9962C33.7179 32.0828 33.6899 32.1703 33.6628 32.2586C33.3486 33.2817 33.156 34.4108 33.156 35.5402C33.156 41.7193 38.154 46.7174 44.3332 46.7174C50.5127 46.7174 55.5108 41.7194 55.4195 35.5854C55.4195 34.1769 55.147 32.8139 54.6471 31.5417H53.0567C50.8306 31.5417 49.4218 31.496 48.7404 30.8146C48.4679 30.5417 48.3769 30.2238 48.3769 29.8603C48.4217 28.6498 49.6172 28.3241 50.6093 28.0537L50.6487 28.043L50.7601 28.0128C51.1221 27.9148 51.4971 27.8132 51.7848 27.6747C51.8687 27.6343 51.9452 27.5908 52.0118 27.5432C51.9483 27.4853 51.8844 27.4279 51.8199 27.371C50.8228 26.4909 49.7029 25.7381 48.4226 25.2261C48.2863 25.1807 47.3776 25.0898 46.1054 26.4529C45.8782 26.7258 45.2421 27.4072 44.515 27.4072C44.3334 27.4072 44.1968 27.3619 44.0152 27.271C43.2979 26.891 43.2468 25.7667 43.3886 24.6622C43.3995 24.5773 43.4115 24.4926 43.4245 24.4084C43.3388 24.4152 43.2533 24.4229 43.1681 24.4317C41.536 24.5995 39.9922 25.1307 38.6536 25.9078C38.5627 25.9984 38.2445 26.3167 38.3354 26.9528C38.4154 27.4322 38.3547 27.7711 38.3081 28.0313C38.3017 28.0669 38.2955 28.1011 38.2901 28.134C38.2448 28.134 38.2448 28.1796 38.2448 28.225C38.2566 28.2367 38.2714 28.2484 38.2901 28.261C38.3218 28.2822 38.3645 28.3057 38.422 28.3354C38.4463 28.348 38.4733 28.3616 38.5032 28.3766C38.5198 28.385 38.5374 28.3938 38.5559 28.4031L38.563 28.4066C38.6086 28.4066 38.654 28.3609 38.654 28.3156L38.6655 28.2975C38.9875 27.7912 39.6299 26.7811 41.4255 27.6342C42.0163 27.9067 42.6071 28.2703 42.6524 28.861C42.7387 29.4675 42.2479 29.8672 41.769 30.2572L41.6981 30.3151C41.1982 30.6787 40.6075 31.1332 40.4259 31.7692L40.3805 31.9509L40.3409 32.0699C39.9619 33.2098 39.807 33.6757 38.9721 33.6319C38.8358 33.6319 38.7449 33.6319 38.5176 33.6772C38.3814 33.7228 38.2451 33.9498 38.1088 34.268C38.0955 34.2945 38.0823 34.3215 38.0689 34.3488C37.8987 34.6956 37.7055 35.0893 37.2002 35.1313H37.1092C36.6291 35.1313 36.3166 34.7121 36.1719 34.518L36.1549 34.4952ZM38.5973 33.9163C38.588 33.9243 38.5617 33.9483 38.5212 34.009C38.4655 34.0927 38.4043 34.2129 38.3386 34.3664L38.3357 34.3732L38.3324 34.3797C38.3194 34.4058 38.3058 34.4338 38.2916 34.4634C38.13 34.7979 37.8749 35.3261 37.2209 35.3804L37.2105 35.3813H37.1092C36.7789 35.3813 36.5187 35.2303 36.333 35.0712C36.1643 34.9266 36.0408 34.7607 35.972 34.6681C35.9658 34.6599 35.9601 34.6522 35.9549 34.6452C35.3481 33.8363 34.8175 33.3235 33.8671 32.4469C33.5801 33.4179 33.406 34.4801 33.406 35.5402C33.406 41.5812 38.292 46.4674 44.3332 46.4674C50.376 46.4674 55.2587 41.5808 55.1695 35.5891L55.1694 35.5854C55.1695 34.2677 54.9254 32.9903 54.4753 31.7917H53.0567C51.9468 31.7917 51.021 31.7807 50.2858 31.6814C49.5539 31.5826 48.9634 31.3912 48.5636 30.9914C48.2325 30.6598 48.1269 30.2712 48.1269 29.8603V29.851C48.1534 29.134 48.5347 28.6796 49.0247 28.3805C49.4816 28.1017 50.051 27.9466 50.5303 27.8161C50.548 27.8113 50.5655 27.8066 50.5829 27.8018C50.6207 27.7915 50.6585 27.7813 50.6961 27.7711C50.9116 27.7127 51.1234 27.6554 51.3193 27.5901C51.4139 27.5585 51.5011 27.5263 51.5798 27.493C50.6215 26.6586 49.5534 25.9494 48.3417 25.463C48.3312 25.461 48.2826 25.4521 48.1948 25.4566C48.0951 25.4617 47.9526 25.4839 47.773 25.5471C47.4153 25.673 46.9046 25.9642 46.2928 26.6185C46.1714 26.7637 45.9429 27.0155 45.6456 27.2339C45.3477 27.4528 44.9548 27.6572 44.515 27.6572C44.2804 27.6572 44.1042 27.5952 43.9033 27.4946L43.8981 27.492C43.4073 27.2319 43.1929 26.7127 43.1146 26.1646C43.0494 25.708 43.0718 25.1907 43.1336 24.6867C41.5723 24.8562 40.0941 25.3657 38.8075 26.1076C38.7189 26.1989 38.5159 26.4424 38.5825 26.9147C38.6596 27.3795 38.6143 27.7296 38.5702 27.9854C38.7349 27.7426 38.9834 27.4338 39.3646 27.2407C39.8784 26.9804 40.5755 26.9539 41.5315 27.4078C41.8323 27.5466 42.1536 27.7175 42.4081 27.9401C42.6638 28.1638 42.8694 28.4557 42.901 28.8338C42.9559 29.2379 42.8054 29.5643 42.5914 29.8302C42.404 30.063 42.1524 30.2677 41.9285 30.4498C41.9041 30.4697 41.88 30.4893 41.8564 30.5086L41.8509 30.5131L41.8451 30.5173C41.3342 30.8889 40.8229 31.2956 40.6674 31.834L40.6207 32.0208L40.6176 32.03C40.6043 32.07 40.5912 32.1095 40.5782 32.1484C40.4935 32.4034 40.4177 32.6313 40.3428 32.8268C40.2567 33.0516 40.1655 33.2508 40.0508 33.4128C39.9328 33.5794 39.7876 33.7099 39.5965 33.791C39.4111 33.8697 39.2016 33.8936 38.9657 33.8819C38.8504 33.8819 38.7774 33.8819 38.5973 33.9163ZM51.1029 29.3609C50.8102 29.426 50.355 29.5608 50.0863 29.6987C50.0245 29.7304 49.9726 29.7623 49.9347 29.7935C49.907 29.8164 49.8869 29.8389 49.876 29.8607C49.9222 29.9011 49.9933 29.9357 50.0844 29.9652C50.0931 29.968 50.1019 29.9707 50.111 29.9734C50.6756 30.1435 51.9293 30.1381 52.8088 30.1343C52.9295 30.1338 53.0435 30.1333 53.1474 30.1333H54.1017C54.0531 30.0499 54.0034 29.9665 53.9526 29.8833C53.7144 29.4925 53.4525 29.1053 53.1672 28.7386C53.1159 28.6728 53.0639 28.6076 53.0112 28.5432C53.0012 28.5515 52.9911 28.5598 52.981 28.5679C52.4794 28.9718 51.8319 29.1548 51.243 29.3212L51.1029 29.3609ZM52.9674 28.8889C52.4535 29.2399 51.8391 29.4131 51.3183 29.5598C51.2684 29.5738 51.2194 29.5876 51.1715 29.6013L51.1644 29.6033L51.1571 29.6049C50.9715 29.6462 50.7155 29.7175 50.4912 29.7987C50.7138 29.8321 50.987 29.8534 51.2841 29.8665C51.7902 29.8887 52.3445 29.8863 52.8043 29.8843C52.9262 29.8838 53.0414 29.8833 53.1474 29.8833H53.6588C53.446 29.5427 53.2154 29.2074 52.9674 28.8889ZM37.018 27.8614L37.0182 27.8604C37.047 27.7157 37.0758 27.5711 37.0812 27.4029C37.0842 27.3074 37.0797 27.2042 37.0633 27.0891C36.985 27.1549 36.9075 27.222 36.831 27.2903C35.7974 28.2134 34.9295 29.367 34.337 30.6786L34.6552 30.9512C35.6543 31.8666 36.2719 32.4392 36.8924 33.1925C36.9492 33.2615 37.0061 33.3321 37.0633 33.4045C37.1001 33.3308 37.1444 33.2516 37.1969 33.1708C37.4034 32.8533 37.7373 32.5136 38.2445 32.405C38.5171 32.314 38.699 32.314 38.8806 32.314C38.9262 32.1321 39.0169 31.8595 39.1078 31.5869L39.1532 31.4053C39.4714 30.3604 40.289 29.7244 40.8798 29.2699C40.8997 29.25 40.9196 29.2322 40.9395 29.2157C40.965 29.1946 40.9906 29.1754 41.0161 29.1562C41.0615 29.1222 41.1069 29.0881 41.1524 29.0426L40.8798 28.9063C40.1617 28.592 40.1087 28.6769 39.8885 29.0293L39.8802 29.0426C39.6986 29.3605 39.1535 30.2238 38.063 29.6787C36.9727 29.1336 36.8817 28.6338 37.018 27.8614ZM40.0947 29.171C40.0001 29.3363 39.7938 29.6748 39.4464 29.8953C39.075 30.1311 38.5727 30.213 37.9512 29.9023C37.3873 29.6204 37.0337 29.3277 36.856 28.9653C36.6775 28.6012 36.7016 28.2159 36.7718 27.818L36.7727 27.8125C36.7834 27.7588 36.7938 27.707 36.8027 27.6555C35.9238 28.4833 35.1789 29.4857 34.6434 30.6119L34.8241 30.7668C35.7941 31.6554 36.416 32.2312 37.0317 32.9688C37.2629 32.6371 37.6292 32.2856 38.1784 32.1635C38.3846 32.096 38.548 32.0743 38.6899 32.0673C38.7395 31.9013 38.8046 31.7058 38.8676 31.5169L38.9137 31.3324C39.2514 30.2235 40.1076 29.5489 40.6931 29.0981C40.5586 29.0412 40.4587 29.0044 40.382 28.9831C40.288 28.9571 40.2532 28.9615 40.2457 28.9631C40.2439 28.9635 40.2437 28.9636 40.2422 28.9646C40.2396 28.9663 40.232 28.972 40.2186 28.9873C40.1876 29.023 40.1546 29.0753 40.0947 29.171ZM38.5178 43.9458C38.836 44.6272 39.3355 44.7182 39.5627 44.7182H39.608C40.6076 44.7182 41.38 43.4007 42.4706 41.4468C42.516 41.3562 42.5727 41.2541 42.6294 41.152C42.6863 41.0496 42.7432 40.9471 42.7888 40.856C42.8795 40.6746 43.0105 40.4931 43.1416 40.3116C43.2074 40.2205 43.2732 40.1294 43.3339 40.0383C43.8337 39.3569 44.4244 38.539 44.2425 37.585C44.0612 36.8123 43.2889 36.0852 41.7438 35.3128C40.6989 34.7677 39.8355 34.722 39.1995 35.1765C37.7911 36.1308 38.0636 39.0387 38.3362 41.8103C38.3533 42.0674 38.3769 42.318 38.3997 42.5598C38.4372 42.9588 38.4725 43.3336 38.4725 43.6732C38.4725 43.7187 38.4838 43.7641 38.4952 43.8095C38.5065 43.8549 38.5178 43.9003 38.5178 43.9458ZM38.087 41.8308C38.1052 42.1037 38.1295 42.3599 38.1524 42.6022C38.1891 42.9903 38.2225 43.3431 38.2225 43.6732C38.2225 43.7502 38.2405 43.822 38.2509 43.8631L38.2526 43.87C38.2654 43.9212 38.2678 43.9364 38.2678 43.9458V44.0013L38.2913 44.0516C38.4711 44.4366 38.7106 44.6706 38.9524 44.8057C39.1912 44.9392 39.4172 44.9682 39.5627 44.9682H39.608C40.2283 44.9682 40.736 44.5577 41.2012 43.9704C41.6706 43.3779 42.1464 42.5407 42.6889 41.5687L42.6942 41.5587C42.7367 41.4737 42.7907 41.3765 42.8482 41.2729L42.8496 41.2704C42.9053 41.1701 42.9644 41.0638 43.0124 40.9679C43.0716 40.8495 43.1532 40.726 43.2483 40.5917C43.2775 40.5505 43.3086 40.5075 43.3405 40.4633C43.4068 40.3715 43.4764 40.2751 43.5388 40.1817L43.5452 40.1729C44.0303 39.5116 44.6923 38.6092 44.4881 37.5382L44.4859 37.5279C44.2766 36.636 43.4065 35.8648 41.8575 35.0902C40.778 34.5275 39.8037 34.4392 39.0567 34.9713C38.2492 35.5203 37.9622 36.5968 37.888 37.7965C37.8127 39.0119 37.9514 40.4514 38.087 41.8308ZM42.0859 39.1203L42.0872 39.1185C42.1198 39.0737 42.1519 39.0299 42.1833 38.9871C42.3325 38.7835 42.4652 38.6025 42.5613 38.4364C42.6849 38.2229 42.6991 38.1129 42.6847 38.0628L42.6819 38.0529L42.6798 38.0427C42.6716 38.0015 42.6221 37.864 42.3759 37.6386C42.1321 37.4155 41.711 37.1209 40.9961 36.7633M42.925 37.9938C42.8797 37.7666 42.5619 37.2668 41.1078 36.5397C40.7443 36.3581 40.4264 36.2672 40.1991 36.2672C40.0628 36.2672 39.9719 36.2672 39.9266 36.3125C39.1995 36.8576 39.4724 39.9021 39.654 41.7194C39.6686 41.88 39.6832 42.0454 39.6978 42.2109C39.7174 42.4331 39.7371 42.6558 39.7567 42.8677C39.7679 42.9889 39.7791 43.1066 39.7903 43.2188C39.8603 43.1418 39.9357 43.0476 40.0146 42.9408C40.3499 42.487 40.7495 41.8059 41.0733 41.2538C41.1682 41.092 41.2566 40.9413 41.335 40.8107C41.3911 40.6707 41.4643 40.5479 41.5335 40.4318C41.5766 40.3595 41.6183 40.2896 41.6532 40.2199C41.7931 39.9398 41.9601 39.7137 42.1334 39.4791C42.185 39.4093 42.2371 39.3386 42.2893 39.2656C42.3203 39.223 42.3513 39.1807 42.3821 39.1388C42.7115 38.6896 43.0085 38.2846 42.925 37.9938ZM41.1107 40.6986C41.0322 40.8297 40.9462 40.9764 40.8548 41.1323C40.7036 41.3899 40.5377 41.6728 40.3666 41.9523C40.234 42.1687 40.103 42.3752 39.9795 42.5571C39.9687 42.4363 39.9578 42.3136 39.947 42.1908C39.9323 42.0249 39.9177 41.8589 39.903 41.6968L39.9028 41.6945C39.8119 40.785 39.6996 39.5812 39.6996 38.5389C39.6995 38.0169 39.7278 37.5463 39.7974 37.1782C39.8322 36.9943 39.8759 36.8437 39.9271 36.7283C39.9754 36.6197 40.0246 36.5555 40.0669 36.5202C40.0775 36.5191 40.0919 36.5183 40.1116 36.5178C40.1363 36.5172 40.1642 36.5172 40.1991 36.5172C40.3706 36.5172 40.648 36.5895 40.9961 36.7633M48.3775 37.9943C47.5599 37.9033 46.7419 37.3583 46.333 36.5858C45.9242 35.8134 45.9695 34.9045 46.424 34.0868C46.5798 33.8145 46.6686 33.5419 46.7481 33.2981C46.7614 33.2573 46.7744 33.2173 46.7875 33.1782C46.8025 33.1331 46.817 33.0874 46.8316 33.0415C46.9488 32.6716 47.0698 32.2898 47.5145 32.0876C48.0596 31.8151 48.7411 32.0423 49.9679 32.5874C50.7856 32.9506 51.3311 33.1326 51.7399 33.2689C52.8301 33.632 53.1027 33.814 53.6935 35.2224L54.4658 37.0397C54.5568 37.2213 54.5569 37.4032 54.4656 37.5398L54.4203 37.7214C52.9665 41.4469 52.0122 43.3099 50.8763 43.3099H50.6947C49.695 43.1283 49.4225 41.7198 49.3315 40.2204V40.1751C49.3315 38.585 49.2409 38.1306 49.1499 37.9943H48.3775ZM48.9776 38.2443H48.3636L48.3498 38.2428C47.4495 38.1426 46.5594 37.5479 46.112 36.7028C45.6585 35.8459 45.7155 34.8469 46.2055 33.9654L46.207 33.9626C46.3491 33.7143 46.4295 33.4682 46.5092 33.2241C46.5228 33.1824 46.5364 33.1408 46.5503 33.0992C46.5637 33.0588 46.5771 33.0158 46.5911 32.9707C46.7043 32.6069 46.8576 32.1138 47.4068 31.8619C47.7489 31.6924 48.1195 31.6894 48.542 31.7874C48.9601 31.8843 49.4573 32.087 50.0694 32.3589C50.8763 32.7173 51.413 32.8964 51.819 33.0317C52.3614 33.2124 52.7534 33.3628 53.077 33.6733C53.3963 33.9796 53.6286 34.4214 53.9237 35.125C53.9238 35.1252 53.9236 35.1248 53.9237 35.125L54.693 36.9352C54.8027 37.1588 54.8234 37.4179 54.6989 37.6375L54.659 37.7974L54.6532 37.8123C53.9267 39.6739 53.3179 41.0898 52.7431 42.0419C52.1804 42.9741 51.593 43.5599 50.8763 43.5599H50.6722L50.65 43.5559C50.0212 43.4417 49.6543 42.9414 49.4374 42.3448C49.2199 41.7468 49.1277 40.9896 49.0819 40.2356L49.0815 40.228V40.1751C49.0815 39.3831 49.0589 38.8819 49.0261 38.5652C49.0109 38.418 48.994 38.3153 48.9776 38.2443ZM47.6052 34.8136C47.3326 35.2224 47.3326 35.6313 47.5142 35.9948C47.6961 36.358 48.105 36.6309 48.4685 36.6762H48.832C50.4224 36.6762 50.695 37.5396 50.695 40.1748C50.7579 40.8037 50.8207 41.2367 50.8836 41.5191C50.9115 41.6447 50.9395 41.7405 50.9675 41.8105C51.0251 41.7471 51.0871 41.6676 51.1534 41.5723C51.6097 40.9164 52.2697 39.5117 53.1027 37.4492L52.4213 35.8588C52.1847 35.3072 52.0849 35.0745 51.911 34.9324C51.7842 34.8288 51.6181 34.7734 51.3307 34.6776C51.2631 34.6551 51.1892 34.6313 51.1089 34.6054C50.704 34.4749 50.1353 34.2917 49.3772 33.9505C48.8882 33.7061 48.5637 33.5849 48.3484 33.5179C48.2435 33.4853 48.1645 33.4655 48.105 33.4507C48.105 33.4732 48.0938 33.5071 48.0825 33.541C48.0824 33.5411 48.0825 33.5408 48.0825 33.541C48.0711 33.575 48.0596 33.6097 48.0596 33.6323C48.0595 33.6327 48.0595 33.6331 48.0594 33.6335C48.0561 33.6529 48.0524 33.6731 48.0483 33.6942C47.9936 33.9706 47.858 34.392 47.6052 34.8136ZM48.2897 33.7615C48.4941 33.8261 48.8023 33.9426 49.2654 34.1741L49.2746 34.1785C50.0464 34.5258 50.6285 34.7133 51.0335 34.8438C51.113 34.8694 51.1857 34.8928 51.2516 34.9148C51.6122 35.035 51.7107 35.0747 51.7944 35.1653C51.8386 35.2132 51.8858 35.2849 51.95 35.4147C52.0145 35.5448 52.0881 35.7162 52.1915 35.9573C52.1915 35.9572 52.1915 35.9573 52.1915 35.9573L52.8319 37.452C52.3721 38.5864 51.9674 39.5132 51.623 40.2185C51.4167 40.6409 51.2357 40.9758 51.0811 41.226C51.0374 40.9726 50.9915 40.6258 50.945 40.1623C50.9448 39.5064 50.9276 38.9513 50.876 38.4887C50.8242 38.0248 50.7361 37.6372 50.5844 37.3274C50.4293 37.0104 50.2083 36.7769 49.904 36.6278C49.607 36.4822 49.2489 36.4262 48.832 36.4262H48.4852M32.4746 63.5285C32.5253 63.4676 32.5795 63.4033 32.6365 63.3361C33.0261 62.8773 33.5531 62.2811 34.0775 61.6878L34.3379 61.3931L30.8392 57.2584C30.7956 57.291 30.7547 57.3262 30.7157 57.3628C30.6941 57.3832 30.6731 57.4039 30.6526 57.4249C30.6054 57.4731 30.5609 57.5224 30.5178 57.5702C30.4724 57.6204 30.4286 57.669 30.3848 57.7128C30.1074 58.0131 29.8183 58.3135 29.5235 58.6199C29.2386 58.9159 28.9484 59.2175 28.6581 59.5301L32.4746 63.5285ZM29.0019 59.5283L32.463 63.1543C32.853 62.6957 33.3742 62.106 33.8904 61.522C33.9294 61.4778 33.9685 61.4336 34.0074 61.3896L30.8149 57.6167C30.8026 57.6294 30.7904 57.6424 30.7781 57.6557C30.757 57.6783 30.7341 57.7037 30.7102 57.7302C30.663 57.7824 30.6121 57.8387 30.5652 57.8859C30.2915 58.1822 30.0068 58.4781 29.7186 58.7777L29.7045 58.7924C29.472 59.0339 29.2372 59.278 29.0019 59.5283ZM46.2868 24.5448C46.1685 24.5211 46.0502 24.5005 45.9311 24.483C45.5928 24.4333 45.248 24.4085 44.8784 24.4085C44.7852 24.9055 44.7557 25.2963 44.7609 25.5809C44.7632 25.7126 44.773 25.8217 44.7874 25.9079L45.1962 25.4991C45.4627 25.1991 45.7293 24.9481 45.9959 24.746C46.0928 24.6725 46.1898 24.6054 46.2868 24.5448ZM45.6539 24.6995C45.4698 24.6793 45.2822 24.6666 45.088 24.6613C45.0464 24.9197 45.0241 25.1413 45.0152 25.3264C45.2261 25.0896 45.4389 24.8803 45.6539 24.6995Z" fill="white"/>
</svg>
