<svg width="18" height="13" viewBox="0 0 18 13" fill="none" xmlns="http://www.w3.org/2000/svg">
<path fill-rule="evenodd" clip-rule="evenodd" d="M11.6665 8.47409C13.3005 6.81273 15.2023 4.81703 16.4551 3.48598L17.5474 4.51403C16.2903 5.84964 14.3804 7.85394 12.7359 9.52591C11.9146 10.361 11.1543 11.1185 10.573 11.6694C10.2837 11.9435 10.0299 12.175 9.83103 12.3412C9.73321 12.4229 9.63528 12.5002 9.54557 12.5608C9.50158 12.5905 9.44428 12.6268 9.37977 12.6583C9.33897 12.6783 9.1924 12.75 9.00123 12.75C8.81005 12.75 8.66422 12.6786 8.62343 12.6587C8.55892 12.6271 8.50088 12.5905 8.45688 12.5608C8.36718 12.5002 8.26925 12.4229 8.17143 12.3412C7.97255 12.175 7.71872 11.9435 7.42945 11.6694C6.84815 11.1185 6.08787 10.361 5.26651 9.52591C3.62208 7.85393 1.71212 5.84963 0.455078 4.51402L1.54738 3.48598C2.80014 4.81703 4.70195 6.81273 6.33594 8.47409C7.15381 9.30565 7.8994 10.0482 8.46124 10.5806C8.67389 10.7821 8.85519 10.9488 9.00123 11.0768C9.14726 10.9488 9.32856 10.7821 9.54121 10.5806C10.1031 10.0482 10.8487 9.30565 11.6665 8.47409Z" fill="white"/>
<path fill-rule="evenodd" clip-rule="evenodd" d="M9.75123 6.55671e-08V11H8.25123L8.25123 0L9.75123 6.55671e-08Z" fill="white"/>
</svg>
