<svg width="360" height="296" viewBox="0 0 360 296" fill="none" xmlns="http://www.w3.org/2000/svg">
<g opacity="0.04">
<path d="M0.701468 262.744C0.701468 262.744 2.8501 262.755 4.19718 262.744C10.6542 262.666 15.5638 266.936 15.6195 273.09C15.6751 279.311 10.7544 284.246 4.43096 284.324C-1.89248 284.39 -6.86885 279.544 -6.91339 273.279C-6.91339 272.791 -7.06925 270.141 -7.01358 269.675L-17.3337 269.675C-17.69 271.782 -17.4673 276.129 -17.0999 278.358C-16.1091 284.379 -13.0921 289.092 -7.80401 292.297C-2.60498 295.435 3.06163 296.034 8.93976 295.103C18.013 293.672 24.8597 286.575 26.0286 277.526C26.7189 272.214 25.2605 267.557 21.5421 263.631C21.3306 263.398 21.1079 263.176 20.6849 262.744L25.2827 262.744L25.2827 262.733C25.2827 258.885 25.2827 255.148 25.2827 251.4L0.690332 251.4L0.690333 262.744L0.701468 262.744Z" fill="#111111"/>
<path d="M26.1953 238.414C26.1842 242.413 23.2895 245.257 19.2414 245.235C15.2266 245.224 12.4206 242.336 12.4428 238.259C12.465 234.182 15.2487 231.471 19.3967 231.482C23.4448 231.494 26.2064 234.304 26.1953 238.414Z" fill="#111111"/>
<path d="M7.11103 232.943C7.11103 232.943 4.9624 232.931 3.61533 232.943C-2.84171 233.02 -7.75129 228.751 -7.80695 222.596C-7.86262 216.375 -2.94191 211.44 3.38154 211.363C9.70498 211.296 14.6814 216.142 14.7259 222.408C14.7259 222.896 14.8817 225.546 14.8261 226.012L25.1462 226.012C25.5025 223.905 25.2798 219.558 24.9124 217.329C23.9216 211.307 20.9046 206.594 15.6165 203.39C10.4175 200.251 4.75087 199.652 -1.12726 200.584C-10.2005 202.015 -17.0472 209.112 -18.2161 218.161C-18.9064 223.472 -17.448 228.13 -13.7296 232.055C-13.5181 232.288 -13.2954 232.51 -12.8724 232.943L-17.4702 232.943L-17.4702 232.954C-17.4702 236.802 -17.4702 240.539 -17.4702 244.287L7.12217 244.287L7.12217 232.943L7.11103 232.943Z" fill="#111111"/>
<path d="M0.701468 162.207C0.701468 162.207 2.8501 162.218 4.19718 162.207C10.6542 162.129 15.5638 166.399 15.6195 172.553C15.6751 178.774 10.7544 183.709 4.43096 183.787C-1.89248 183.853 -6.86885 179.007 -6.91339 172.742C-6.91339 172.254 -7.06925 169.603 -7.01358 169.138L-17.3337 169.138C-17.69 171.245 -17.4673 175.592 -17.0999 177.821C-16.1091 183.842 -13.0921 188.555 -7.80401 191.76C-2.60498 194.898 3.06163 195.497 8.93976 194.565C18.013 193.135 24.8597 186.038 26.0286 176.989C26.7189 171.677 25.2605 167.02 21.5421 163.094C21.3306 162.861 21.1079 162.639 20.6849 162.207L25.2827 162.207L25.2827 162.196C25.2827 158.348 25.2827 154.611 25.2827 150.862L0.690332 150.862L0.690333 162.207L0.701468 162.207Z" fill="#111111"/>
<path d="M26.1953 137.877C26.1842 141.876 23.2895 144.72 19.2414 144.698C15.2266 144.687 12.4206 141.798 12.4428 137.722C12.465 133.645 15.2487 130.934 19.3967 130.945C23.4448 130.956 26.2064 133.767 26.1953 137.877Z" fill="#111111"/>
<path d="M7.11103 132.405C7.11103 132.405 4.9624 132.394 3.61533 132.405C-2.84171 132.483 -7.75129 128.214 -7.80695 122.059C-7.86262 115.838 -2.94191 110.903 3.38154 110.826C9.70498 110.759 14.6814 115.605 14.7259 121.871C14.7259 122.359 14.8817 125.009 14.8261 125.475L25.1462 125.475C25.5025 123.368 25.2798 119.021 24.9124 116.792C23.9216 110.77 20.9046 106.057 15.6165 102.852C10.4175 99.7142 4.75087 99.1154 -1.12726 100.047C-10.2005 101.477 -17.0472 108.575 -18.2161 117.623C-18.9064 122.935 -17.448 127.593 -13.7296 131.518C-13.5181 131.751 -13.2954 131.973 -12.8724 132.405L-17.4702 132.405L-17.4702 132.417C-17.4702 136.265 -17.4702 140.002 -17.4702 143.75L7.12217 143.75L7.12217 132.405L7.11103 132.405Z" fill="#111111"/>
<path d="M36.2227 257.272C36.2338 253.273 39.1285 250.429 43.1766 250.452C47.1914 250.463 49.9974 253.351 49.9752 257.428C49.953 261.505 47.1692 264.215 43.0213 264.204C38.9732 264.193 36.2116 261.382 36.2227 257.272Z" fill="#111111"/>
<path d="M55.3069 262.744C55.3069 262.744 57.4556 262.755 58.8026 262.744C65.2597 262.666 70.1693 266.936 70.2249 273.09C70.2806 279.311 65.3599 284.246 59.0364 284.324C52.713 284.39 47.7366 279.544 47.6921 273.279C47.6921 272.791 47.5362 270.141 47.5919 269.675L37.2718 269.675C36.9155 271.782 37.1382 276.129 37.5055 278.358C38.4964 284.379 41.5134 289.092 46.8015 292.297C52.0005 295.435 57.6671 296.034 63.5452 295.103C72.6185 293.672 79.4652 286.575 80.6341 277.526C81.3244 272.214 79.866 267.557 76.1476 263.631C75.9361 263.398 75.7134 263.176 75.2904 262.744L79.8882 262.744L79.8882 262.733C79.8882 258.885 79.8882 255.148 79.8882 251.4L55.2958 251.4L55.2958 262.744L55.3069 262.744Z" fill="#111111"/>
<path d="M80.7988 238.414C80.7877 242.413 77.893 245.257 73.8449 245.235C69.8301 245.224 67.0241 242.336 67.0463 238.259C67.0685 234.182 69.8523 231.471 74.0002 231.482C78.0483 231.494 80.8099 234.304 80.7988 238.414Z" fill="#111111"/>
<path d="M61.7146 232.943C61.7146 232.943 59.5659 232.931 58.2188 232.943C51.7618 233.02 46.8522 228.751 46.7966 222.596C46.7409 216.375 51.6616 211.44 57.9851 211.363C64.3085 211.296 69.2849 216.142 69.3294 222.408C69.3294 222.896 69.4853 225.546 69.4296 226.012L79.7497 226.012C80.106 223.905 79.8833 219.558 79.5159 217.329C78.5251 211.307 75.5081 206.594 70.22 203.39C65.021 200.251 59.3544 199.652 53.4763 200.584C44.403 202.015 37.5563 209.112 36.3874 218.161C35.6971 223.472 37.1555 228.13 40.8739 232.055C41.0854 232.288 41.3081 232.51 41.7311 232.943L37.1333 232.943L37.1333 232.954C37.1333 236.802 37.1333 240.539 37.1333 244.287L61.7257 244.287L61.7257 232.943L61.7146 232.943Z" fill="#111111"/>
<path d="M36.2227 156.735C36.2338 152.736 39.1285 149.892 43.1766 149.914C47.1914 149.926 49.9974 152.814 49.9752 156.891C49.953 160.968 47.1692 163.678 43.0213 163.667C38.9732 163.656 36.2116 160.845 36.2227 156.735Z" fill="#111111"/>
<path d="M55.3069 162.207C55.3069 162.207 57.4556 162.218 58.8026 162.207C65.2597 162.129 70.1693 166.399 70.2249 172.553C70.2806 178.774 65.3599 183.709 59.0364 183.787C52.713 183.853 47.7366 179.007 47.6921 172.742C47.6921 172.254 47.5362 169.603 47.5919 169.138L37.2718 169.138C36.9155 171.245 37.1382 175.592 37.5055 177.821C38.4964 183.842 41.5134 188.555 46.8015 191.76C52.0005 194.898 57.6671 195.497 63.5452 194.565C72.6185 193.135 79.4652 186.038 80.6341 176.989C81.3244 171.677 79.866 167.02 76.1476 163.094C75.9361 162.861 75.7134 162.639 75.2904 162.207L79.8882 162.207L79.8882 162.196C79.8882 158.348 79.8882 154.611 79.8882 150.862L55.2958 150.862L55.2958 162.207L55.3069 162.207Z" fill="#111111"/>
<path d="M80.7988 137.877C80.7877 141.876 77.893 144.72 73.8449 144.698C69.8301 144.687 67.0241 141.798 67.0463 137.722C67.0685 133.645 69.8523 130.934 74.0002 130.945C78.0483 130.956 80.8099 133.767 80.7988 137.877Z" fill="#111111"/>
<path d="M61.7146 132.405C61.7146 132.405 59.5659 132.394 58.2188 132.405C51.7618 132.483 46.8522 128.214 46.7966 122.059C46.7409 115.838 51.6616 110.903 57.9851 110.826C64.3085 110.759 69.2849 115.605 69.3294 121.871C69.3294 122.359 69.4853 125.009 69.4296 125.475L79.7497 125.475C80.106 123.368 79.8833 119.021 79.5159 116.792C78.5251 110.77 75.5081 106.057 70.22 102.852C65.021 99.7142 59.3544 99.1154 53.4763 100.047C44.403 101.477 37.5563 108.575 36.3874 117.623C35.6971 122.935 37.1555 127.593 40.8739 131.518C41.0854 131.751 41.3081 131.973 41.7311 132.405L37.1333 132.405L37.1333 132.417C37.1333 136.265 37.1333 140.002 37.1333 143.75L61.7257 143.75L61.7257 132.405L61.7146 132.405Z" fill="#111111"/>
<path d="M90.8399 257.272C90.851 253.273 93.7456 250.429 97.7938 250.452C101.809 250.463 104.615 253.351 104.592 257.428C104.57 261.505 101.786 264.215 97.6385 264.204C93.5904 264.193 90.8288 261.382 90.8399 257.272Z" fill="#111111"/>
<path d="M109.924 262.744C109.924 262.744 112.073 262.755 113.42 262.744C119.877 262.666 124.786 266.936 124.842 273.09C124.898 279.311 119.977 284.246 113.654 284.324C107.33 284.39 102.354 279.544 102.309 273.279C102.309 272.791 102.153 270.141 102.209 269.675L91.8889 269.675C91.5327 271.782 91.7554 276.129 92.1227 278.358C93.1136 284.379 96.1306 289.092 101.419 292.297C106.618 295.435 112.284 296.034 118.162 295.103C127.236 293.672 134.082 286.575 135.251 277.526C135.942 272.214 134.483 267.557 130.765 263.631C130.553 263.398 130.331 263.176 129.908 262.744L134.505 262.744L134.505 262.733C134.505 258.885 134.505 255.148 134.505 251.4L109.913 251.4L109.913 262.744L109.924 262.744Z" fill="#111111"/>
<path d="M135.418 238.414C135.407 242.413 132.512 245.257 128.464 245.235C124.449 245.224 121.643 242.336 121.665 238.259C121.688 234.182 124.471 231.471 128.619 231.482C132.667 231.494 135.429 234.304 135.418 238.414Z" fill="#111111"/>
<path d="M116.334 232.943C116.334 232.943 114.185 232.931 112.838 232.943C106.381 233.02 101.471 228.751 101.416 222.596C101.36 216.375 106.281 211.44 112.604 211.363C118.928 211.296 123.904 216.142 123.949 222.408C123.949 222.896 124.104 225.546 124.049 226.012L134.369 226.012C134.725 223.905 134.502 219.558 134.135 217.329C133.144 211.307 130.127 206.594 124.839 203.39C119.64 200.251 113.974 199.652 108.095 200.584C99.0221 202.015 92.1755 209.112 91.0065 218.161C90.3163 223.472 91.7747 228.13 95.493 232.055C95.7046 232.288 95.9272 232.51 96.3503 232.943L91.7524 232.943L91.7524 232.954C91.7524 236.802 91.7524 240.539 91.7524 244.287L116.345 244.287L116.345 232.943L116.334 232.943Z" fill="#111111"/>
<path d="M90.8399 156.735C90.851 152.736 93.7456 149.892 97.7938 149.914C101.809 149.926 104.615 152.814 104.592 156.891C104.57 160.968 101.786 163.678 97.6385 163.667C93.5904 163.656 90.8288 160.845 90.8399 156.735Z" fill="#111111"/>
<path d="M109.924 162.207C109.924 162.207 112.073 162.218 113.42 162.207C119.877 162.129 124.786 166.399 124.842 172.553C124.898 178.774 119.977 183.709 113.654 183.787C107.33 183.853 102.354 179.007 102.309 172.742C102.309 172.254 102.153 169.603 102.209 169.138L91.8889 169.138C91.5327 171.245 91.7554 175.592 92.1227 177.821C93.1136 183.842 96.1306 188.555 101.419 191.76C106.618 194.898 112.284 195.497 118.162 194.565C127.236 193.135 134.082 186.038 135.251 176.989C135.942 171.677 134.483 167.02 130.765 163.094C130.553 162.861 130.331 162.639 129.908 162.207L134.505 162.207L134.505 162.196C134.505 158.348 134.505 154.611 134.505 150.862L109.913 150.862L109.913 162.207L109.924 162.207Z" fill="#111111"/>
<path d="M135.418 137.877C135.407 141.876 132.512 144.72 128.464 144.698C124.449 144.687 121.643 141.798 121.665 137.722C121.688 133.645 124.471 130.934 128.619 130.945C132.667 130.956 135.429 133.767 135.418 137.877Z" fill="#111111"/>
<path d="M116.334 132.405C116.334 132.405 114.185 132.394 112.838 132.405C106.381 132.483 101.471 128.214 101.416 122.059C101.36 115.838 106.281 110.903 112.604 110.826C118.928 110.759 123.904 115.605 123.949 121.871C123.949 122.359 124.104 125.009 124.049 125.475L134.369 125.475C134.725 123.368 134.502 119.021 134.135 116.792C133.144 110.77 130.127 106.057 124.839 102.852C119.64 99.7142 113.974 99.1154 108.095 100.047C99.0221 101.477 92.1755 108.575 91.0065 117.623C90.3163 122.935 91.7747 127.593 95.493 131.518C95.7046 131.751 95.9272 131.973 96.3503 132.405L91.7524 132.405L91.7524 132.417C91.7524 136.265 91.7524 140.002 91.7524 143.75L116.345 143.75L116.345 132.405L116.334 132.405Z" fill="#111111"/>
<path d="M151.203 157.626C151.214 153.627 154.109 150.783 158.157 150.805C162.172 150.816 164.978 153.704 164.956 157.781C164.933 161.858 162.15 164.569 158.002 164.558C153.954 164.546 151.192 161.736 151.203 157.626Z" fill="#111111"/>
<path d="M170.287 163.097C170.287 163.097 172.436 163.109 173.783 163.097C180.24 163.02 185.15 167.289 185.205 173.444C185.261 179.665 180.34 184.6 174.017 184.677C167.693 184.744 162.717 179.898 162.673 173.632C162.673 173.144 162.517 170.494 162.572 170.028L152.252 170.028C151.896 172.135 152.119 176.482 152.486 178.711C153.477 184.733 156.494 189.446 161.782 192.65C166.981 195.789 172.648 196.388 178.526 195.456C187.599 194.026 194.446 186.928 195.615 177.88C196.305 172.568 194.846 167.91 191.128 163.985C190.917 163.752 190.694 163.53 190.271 163.097L194.869 163.097L194.869 163.086C194.869 159.238 194.869 155.501 194.869 151.753L170.276 151.753L170.276 163.097L170.287 163.097Z" fill="#111111"/>
<path d="M195.781 138.768C195.77 142.767 192.875 145.611 188.827 145.588C184.812 145.577 182.007 142.689 182.029 138.612C182.051 134.535 184.835 131.825 188.983 131.836C193.031 131.847 195.792 134.658 195.781 138.768Z" fill="#111111"/>
<path d="M176.697 133.296C176.697 133.296 174.548 133.285 173.201 133.296C166.744 133.374 161.835 129.104 161.779 122.95C161.723 116.729 166.644 111.794 172.967 111.716C179.291 111.65 184.267 116.496 184.312 122.761C184.312 123.249 184.468 125.9 184.412 126.365L194.732 126.365C195.088 124.258 194.866 119.911 194.498 117.682C193.508 111.661 190.491 106.948 185.202 103.743C180.003 100.605 174.337 100.006 168.459 100.937C159.385 102.368 152.539 109.465 151.37 118.514C150.68 123.826 152.138 128.483 155.856 132.409C156.068 132.642 156.291 132.864 156.714 133.296L152.116 133.296L152.116 133.307C152.116 137.155 152.116 140.892 152.116 144.64L176.708 144.64L176.708 133.296L176.697 133.296Z" fill="#111111"/>
<path d="M151.203 57.0887C151.214 53.0896 154.109 50.2458 158.157 50.268C162.172 50.2791 164.978 53.1673 164.956 57.2442C164.933 61.3211 162.15 64.0316 158.002 64.0205C153.954 64.0094 151.192 61.1989 151.203 57.0887Z" fill="#111111"/>
<path d="M170.287 62.5603C170.287 62.5603 172.436 62.5714 173.783 62.5603C180.24 62.4827 185.15 66.7521 185.205 72.9067C185.261 79.1278 180.34 84.0625 174.017 84.1401C167.693 84.2067 162.717 79.3606 162.673 73.0952C162.673 72.6073 162.517 69.9569 162.572 69.4912L152.252 69.4912C151.896 71.5981 152.119 75.9451 152.486 78.1741C153.477 84.1956 156.494 88.9085 161.782 92.1134C166.981 95.2516 172.648 95.8505 178.526 94.9189C187.599 93.4884 194.446 86.3913 195.615 77.3424C196.305 72.0306 194.846 67.3731 191.128 63.4475C190.917 63.2146 190.694 62.9928 190.271 62.5603L194.869 62.5603L194.869 62.5493C194.869 58.7013 194.869 54.9642 194.869 51.216L170.276 51.216L170.276 62.5603L170.287 62.5603Z" fill="#111111"/>
<path d="M195.781 38.2307C195.77 42.2298 192.875 45.0736 188.827 45.0514C184.812 45.0403 182.007 42.152 182.029 38.0751C182.051 33.9983 184.835 31.2878 188.983 31.2989C193.031 31.31 195.792 34.1205 195.781 38.2307Z" fill="#111111"/>
<path d="M176.697 32.759C176.697 32.759 174.548 32.7479 173.201 32.759C166.744 32.8366 161.835 28.5672 161.779 22.4127C161.723 16.1916 166.644 11.2568 172.967 11.1792C179.291 11.1127 184.267 15.9587 184.312 22.2241C184.312 22.7121 184.468 25.3624 184.412 25.8282L194.732 25.8282C195.088 23.7212 194.866 19.3742 194.498 17.1452C193.508 11.1237 190.491 6.41079 185.202 3.20598C180.003 0.0677085 174.337 -0.531114 168.459 0.400389C159.385 1.83091 152.539 8.92807 151.37 17.9769C150.68 23.2887 152.138 27.9462 155.856 31.8719C156.068 32.1047 156.291 32.3265 156.714 32.759L152.116 32.759L152.116 32.7701C152.116 36.6181 152.116 40.3552 152.116 44.1034L176.708 44.1034L176.708 32.759L176.697 32.759Z" fill="#111111"/>
<path d="M205.824 157.626C205.835 153.627 208.73 150.783 212.778 150.805C216.793 150.816 219.599 153.704 219.577 157.781C219.555 161.858 216.771 164.569 212.623 164.558C208.575 164.546 205.813 161.736 205.824 157.626Z" fill="#111111"/>
<path d="M224.908 163.097C224.908 163.097 227.057 163.109 228.404 163.097C234.861 163.02 239.771 167.289 239.826 173.444C239.882 179.665 234.961 184.6 228.638 184.677C222.315 184.744 217.338 179.898 217.294 173.632C217.294 173.144 217.138 170.494 217.193 170.028L206.873 170.028C206.517 172.135 206.74 176.482 207.107 178.711C208.098 184.733 211.115 189.446 216.403 192.65C221.602 195.789 227.269 196.388 233.147 195.456C242.22 194.026 249.067 186.928 250.236 177.88C250.926 172.568 249.468 167.91 245.749 163.985C245.538 163.752 245.315 163.53 244.892 163.097L249.49 163.097L249.49 163.086C249.49 159.238 249.49 155.501 249.49 151.753L224.897 151.753L224.897 163.097L224.908 163.097Z" fill="#111111"/>
<path d="M250.398 138.768C250.387 142.767 247.493 145.611 243.445 145.588C239.43 145.577 236.624 142.689 236.646 138.612C236.668 134.535 239.452 131.825 243.6 131.836C247.648 131.847 250.409 134.658 250.398 138.768Z" fill="#111111"/>
<path d="M231.314 133.296C231.314 133.296 229.166 133.285 227.818 133.296C221.361 133.374 216.452 129.104 216.396 122.95C216.341 116.729 221.261 111.794 227.585 111.716C233.908 111.65 238.884 116.496 238.929 122.761C238.929 123.249 239.085 125.9 239.029 126.365L249.349 126.365C249.706 124.258 249.483 119.911 249.116 117.682C248.125 111.661 245.108 106.948 239.82 103.743C234.621 100.605 228.954 100.006 223.076 100.937C214.003 102.368 207.156 109.465 205.987 118.514C205.297 123.826 206.755 128.483 210.474 132.409C210.685 132.642 210.908 132.864 211.331 133.296L206.733 133.296L206.733 133.307C206.733 137.155 206.733 140.892 206.733 144.64L231.325 144.64L231.325 133.296L231.314 133.296Z" fill="#111111"/>
<path d="M205.824 57.0887C205.835 53.0896 208.73 50.2458 212.778 50.268C216.793 50.2791 219.599 53.1673 219.577 57.2442C219.555 61.3211 216.771 64.0316 212.623 64.0205C208.575 64.0094 205.813 61.1989 205.824 57.0887Z" fill="#111111"/>
<path d="M224.908 62.5603C224.908 62.5603 227.057 62.5714 228.404 62.5603C234.861 62.4827 239.771 66.7521 239.826 72.9067C239.882 79.1278 234.961 84.0625 228.638 84.1401C222.315 84.2067 217.338 79.3606 217.294 73.0952C217.294 72.6073 217.138 69.9569 217.193 69.4912L206.873 69.4912C206.517 71.5981 206.74 75.9451 207.107 78.1741C208.098 84.1956 211.115 88.9085 216.403 92.1134C221.602 95.2516 227.269 95.8505 233.147 94.9189C242.22 93.4884 249.067 86.3913 250.236 77.3424C250.926 72.0306 249.468 67.3731 245.749 63.4475C245.538 63.2146 245.315 62.9928 244.892 62.5603L249.49 62.5603L249.49 62.5493C249.49 58.7013 249.49 54.9642 249.49 51.216L224.897 51.216L224.897 62.5603L224.908 62.5603Z" fill="#111111"/>
<path d="M250.398 38.2307C250.387 42.2298 247.493 45.0736 243.445 45.0514C239.43 45.0403 236.624 42.152 236.646 38.0751C236.668 33.9983 239.452 31.2878 243.6 31.2989C247.648 31.31 250.409 34.1205 250.398 38.2307Z" fill="#111111"/>
<path d="M231.314 32.759C231.314 32.759 229.166 32.7479 227.818 32.759C221.361 32.8366 216.452 28.5672 216.396 22.4127C216.341 16.1916 221.261 11.2568 227.585 11.1792C233.908 11.1127 238.884 15.9587 238.929 22.2241C238.929 22.7121 239.085 25.3624 239.029 25.8282L249.349 25.8282C249.706 23.7212 249.483 19.3742 249.116 17.1452C248.125 11.1237 245.108 6.41079 239.82 3.20598C234.621 0.0677085 228.954 -0.531114 223.076 0.400389C214.003 1.83091 207.156 8.92807 205.987 17.9769C205.297 23.2887 206.755 27.9462 210.474 31.8719C210.685 32.1047 210.908 32.3265 211.331 32.759L206.733 32.759L206.733 32.7701C206.733 36.6181 206.733 40.3552 206.733 44.1034L231.325 44.1034L231.325 32.759L231.314 32.759Z" fill="#111111"/>
<path d="M260.426 157.626C260.437 153.627 263.332 150.783 267.38 150.805C271.395 150.816 274.2 153.704 274.178 157.781C274.156 161.858 271.372 164.569 267.224 164.558C263.176 164.546 260.415 161.736 260.426 157.626Z" fill="#111111"/>
<path d="M279.51 163.097C279.51 163.097 281.659 163.109 283.006 163.097C289.463 163.02 294.372 167.289 294.428 173.444C294.484 179.665 289.563 184.6 283.24 184.677C276.916 184.744 271.94 179.898 271.895 173.632C271.895 173.144 271.739 170.494 271.795 170.028L261.475 170.028C261.119 172.135 261.341 176.482 261.709 178.711C262.699 184.733 265.716 189.446 271.005 192.65C276.204 195.789 281.87 196.388 287.748 195.456C296.822 194.026 303.668 186.928 304.837 177.88C305.527 172.568 304.069 167.91 300.351 163.985C300.139 163.752 299.917 163.53 299.493 163.097L304.091 163.097L304.091 163.086C304.091 159.238 304.091 155.501 304.091 151.753L279.499 151.753L279.499 163.097L279.51 163.097Z" fill="#111111"/>
<path d="M305.004 138.768C304.993 142.767 302.098 145.611 298.05 145.588C294.035 145.577 291.229 142.689 291.251 138.612C291.274 134.535 294.057 131.825 298.205 131.836C302.253 131.847 305.015 134.658 305.004 138.768Z" fill="#111111"/>
<path d="M285.92 133.296C285.92 133.296 283.771 133.285 282.424 133.296C275.967 133.374 271.057 129.104 271.002 122.95C270.946 116.729 275.867 111.794 282.19 111.716C288.514 111.65 293.49 116.496 293.534 122.761C293.534 123.249 293.69 125.9 293.635 126.365L303.955 126.365C304.311 124.258 304.088 119.911 303.721 117.682C302.73 111.661 299.713 106.948 294.425 103.743C289.226 100.605 283.559 100.006 277.681 100.937C268.608 102.368 261.761 109.465 260.592 118.514C259.902 123.826 261.361 128.483 265.079 132.409C265.291 132.642 265.513 132.864 265.936 133.296L261.338 133.296L261.338 133.307C261.338 137.155 261.338 140.892 261.338 144.64L285.931 144.64L285.931 133.296L285.92 133.296Z" fill="#111111"/>
<path d="M260.426 57.0887C260.437 53.0896 263.332 50.2458 267.38 50.268C271.395 50.2791 274.2 53.1673 274.178 57.2442C274.156 61.3211 271.372 64.0316 267.224 64.0205C263.176 64.0094 260.415 61.1989 260.426 57.0887Z" fill="#111111"/>
<path d="M279.51 62.5603C279.51 62.5603 281.659 62.5714 283.006 62.5603C289.463 62.4827 294.372 66.7521 294.428 72.9067C294.484 79.1278 289.563 84.0625 283.24 84.1401C276.916 84.2067 271.94 79.3606 271.895 73.0952C271.895 72.6073 271.739 69.9569 271.795 69.4912L261.475 69.4912C261.119 71.5981 261.341 75.9451 261.709 78.1741C262.699 84.1956 265.716 88.9085 271.005 92.1134C276.204 95.2516 281.87 95.8505 287.748 94.9189C296.822 93.4884 303.668 86.3913 304.837 77.3424C305.527 72.0306 304.069 67.3731 300.351 63.4475C300.139 63.2146 299.917 62.9928 299.493 62.5603L304.091 62.5603L304.091 62.5493C304.091 58.7013 304.091 54.9642 304.091 51.216L279.499 51.216L279.499 62.5603L279.51 62.5603Z" fill="#111111"/>
<path d="M305.004 38.2307C304.993 42.2298 302.098 45.0736 298.05 45.0514C294.035 45.0403 291.229 42.152 291.251 38.0751C291.274 33.9983 294.057 31.2878 298.205 31.2989C302.253 31.31 305.015 34.1205 305.004 38.2307Z" fill="#111111"/>
<path d="M285.92 32.759C285.92 32.759 283.771 32.7479 282.424 32.759C275.967 32.8366 271.057 28.5672 271.002 22.4127C270.946 16.1916 275.867 11.2568 282.19 11.1792C288.514 11.1127 293.49 15.9587 293.534 22.2241C293.534 22.7121 293.69 25.3624 293.635 25.8282L303.955 25.8282C304.311 23.7212 304.088 19.3742 303.721 17.1452C302.73 11.1237 299.713 6.41079 294.425 3.20598C289.226 0.0677085 283.559 -0.531114 277.681 0.400389C268.608 1.83091 261.761 8.92807 260.592 17.9769C259.902 23.2887 261.361 27.9462 265.079 31.8719C265.291 32.1047 265.513 32.3265 265.936 32.759L261.338 32.759L261.338 32.7701C261.338 36.6181 261.338 40.3552 261.338 44.1034L285.931 44.1034L285.931 32.759L285.92 32.759Z" fill="#111111"/>
<path d="M315.043 157.626C315.054 153.627 317.949 150.783 321.997 150.805C326.012 150.816 328.818 153.704 328.795 157.781C328.773 161.858 325.99 164.569 321.842 164.558C317.794 164.546 315.032 161.736 315.043 157.626Z" fill="#111111"/>
<path d="M334.127 163.097C334.127 163.097 336.276 163.109 337.623 163.097C344.08 163.02 348.99 167.289 349.045 173.444C349.101 179.665 344.18 184.6 337.857 184.677C331.533 184.744 326.557 179.898 326.512 173.632C326.512 173.144 326.357 170.494 326.412 170.028L316.092 170.028C315.736 172.135 315.958 176.482 316.326 178.711C317.317 184.733 320.334 189.446 325.622 192.65C330.821 195.789 336.487 196.388 342.366 195.456C351.439 194.026 358.285 186.928 359.454 177.88C360.145 172.568 358.686 167.91 354.968 163.985C354.756 163.752 354.534 163.53 354.111 163.097L358.709 163.097L358.709 163.086C358.709 159.238 358.709 155.501 358.709 151.753L334.116 151.753L334.116 163.097L334.127 163.097Z" fill="#111111"/>
<path d="M359.621 138.768C359.61 142.767 356.715 145.611 352.667 145.588C348.652 145.577 345.846 142.689 345.869 138.612C345.891 134.535 348.675 131.825 352.822 131.836C356.871 131.847 359.632 134.658 359.621 138.768Z" fill="#111111"/>
<path d="M340.537 133.296C340.537 133.296 338.388 133.285 337.041 133.296C330.584 133.374 325.674 129.104 325.619 122.95C325.563 116.729 330.484 111.794 336.807 111.716C343.131 111.65 348.107 116.496 348.152 122.761C348.152 123.249 348.308 125.9 348.252 126.365L358.572 126.365C358.928 124.258 358.706 119.911 358.338 117.682C357.347 111.661 354.33 106.948 349.042 103.743C343.843 100.605 338.177 100.006 332.299 100.937C323.225 102.368 316.379 109.465 315.21 118.514C314.519 123.826 315.978 128.483 319.696 132.409C319.908 132.642 320.13 132.864 320.553 133.296L315.956 133.296L315.956 133.307C315.956 137.155 315.956 140.892 315.956 144.64L340.548 144.64L340.548 133.296L340.537 133.296Z" fill="#111111"/>
<path d="M315.043 57.0887C315.054 53.0896 317.949 50.2458 321.997 50.268C326.012 50.2791 328.818 53.1673 328.795 57.2442C328.773 61.3211 325.99 64.0316 321.842 64.0205C317.794 64.0094 315.032 61.1989 315.043 57.0887Z" fill="#111111"/>
<path d="M334.127 62.5603C334.127 62.5603 336.276 62.5714 337.623 62.5603C344.08 62.4827 348.99 66.7521 349.045 72.9067C349.101 79.1278 344.18 84.0625 337.857 84.1401C331.533 84.2067 326.557 79.3606 326.512 73.0952C326.512 72.6073 326.357 69.9569 326.412 69.4912L316.092 69.4912C315.736 71.5981 315.958 75.9451 316.326 78.1741C317.317 84.1956 320.334 88.9085 325.622 92.1134C330.821 95.2516 336.487 95.8505 342.366 94.9189C351.439 93.4884 358.285 86.3913 359.454 77.3424C360.145 72.0306 358.686 67.3731 354.968 63.4475C354.756 63.2146 354.534 62.9928 354.111 62.5603L358.709 62.5603L358.709 62.5493C358.709 58.7013 358.709 54.9642 358.709 51.216L334.116 51.216L334.116 62.5603L334.127 62.5603Z" fill="#111111"/>
<path d="M359.621 38.2307C359.61 42.2298 356.715 45.0736 352.667 45.0514C348.652 45.0403 345.846 42.152 345.869 38.0751C345.891 33.9983 348.675 31.2878 352.822 31.2989C356.871 31.31 359.632 34.1205 359.621 38.2307Z" fill="#111111"/>
<path d="M340.537 32.759C340.537 32.759 338.388 32.7479 337.041 32.759C330.584 32.8366 325.674 28.5672 325.619 22.4127C325.563 16.1916 330.484 11.2568 336.807 11.1792C343.131 11.1127 348.107 15.9587 348.152 22.2241C348.152 22.7121 348.308 25.3624 348.252 25.8282L358.572 25.8282C358.928 23.7212 358.706 19.3742 358.338 17.1452C357.347 11.1237 354.33 6.41079 349.042 3.20598C343.843 0.0677085 338.177 -0.531114 332.299 0.400389C323.225 1.83091 316.379 8.92807 315.21 17.9769C314.519 23.2887 315.978 27.9462 319.696 31.8719C319.908 32.1047 320.13 32.3265 320.553 32.759L315.956 32.759L315.956 32.7701C315.956 36.6181 315.956 40.3552 315.956 44.1034L340.548 44.1034L340.548 32.759L340.537 32.759Z" fill="#111111"/>
</g>
</svg>
