<svg width="87" height="87" viewBox="0 0 87 87" fill="none" xmlns="http://www.w3.org/2000/svg">
<circle opacity="0.14" cx="43.5" cy="43.5" r="43.5" fill="white"/>
<path d="M60.3574 50.9047L51.1087 33.5309C50.5468 32.4504 49.4663 31.7588 48.2562 31.6292L41.4707 30.981C41.2546 29.9437 40.8657 28.9066 40.3471 27.9558C39.4394 26.2272 38.1431 24.7576 36.76 23.8932C35.1176 22.899 33.4755 22.7262 32.1789 23.4178C30.8392 24.1094 30.1045 25.5787 30.018 27.4804C29.9749 29.1228 30.4503 30.981 31.3577 32.7531C31.8762 33.747 32.5247 34.6547 33.2594 35.3894L29.9749 41.3536C29.4129 42.4341 29.3698 43.6872 29.9749 44.7677L39.1804 62.0983C39.8286 63.3084 41.0821 64 42.3786 64C42.9406 64 43.5022 63.8704 44.0642 63.5677L58.8881 55.7019C60.6167 54.7945 61.2649 52.6336 60.3574 50.905V50.9047ZM32.6976 27.5667C32.7407 26.7024 33.0003 26.0109 33.4323 25.7947C33.8646 25.5785 34.5559 25.7082 35.2906 26.1836C36.2845 26.7886 37.2353 27.9122 37.9269 29.2088C38.1861 29.6842 38.4023 30.2028 38.575 30.7216L38.2724 30.6785C36.8461 30.5489 35.4633 31.2835 34.7717 32.5367L34.6421 32.796C34.3394 32.4071 34.0371 31.9317 33.7344 31.4129C33.0434 30.16 32.6976 28.7337 32.6976 27.5667L32.6976 27.5667ZM57.5915 53.3682L42.7675 61.2339C42.3352 61.4501 41.8167 61.277 41.6006 60.8881L32.3518 43.5143C32.2222 43.255 32.2222 42.9524 32.3518 42.6931L35.4205 37.0746C36.2417 37.5069 37.0629 37.7228 37.8406 37.7228C38.0568 37.7228 38.2729 37.7228 38.4888 37.6796C39.2235 37.55 39.6989 36.8584 39.5692 36.1238C39.4396 35.3891 38.748 34.8706 38.0134 35.0433C37.6676 35.0864 37.1922 35.0002 36.7168 34.7406L37.1491 33.9194C37.3218 33.6167 37.5814 33.444 37.9268 33.444H38.0134L47.9968 34.3517C48.2995 34.3948 48.5588 34.5679 48.6884 34.8272L57.9371 52.1578C58.153 52.5901 58.0234 53.1086 57.5913 53.3679L57.5915 53.3682Z" fill="white"/>
<path d="M50.2879 47.835C49.3802 45.6741 46.8304 44.7663 44.7991 45.8468L43.6755 46.4518C42.8112 46.8841 41.7738 46.5384 41.3849 45.6306C41.0822 44.8528 41.4714 43.902 42.2061 43.5128L43.5028 42.8213C43.9782 42.562 44.5832 42.6916 44.929 43.0805C45.0155 43.2102 45.1882 43.2102 45.3179 43.1671L46.7872 42.3893C46.96 42.3028 47.0034 42.0866 46.9169 41.9139C46.0091 40.5307 44.194 40.0122 42.6382 40.7037L41.8604 39.2344C41.7739 39.0616 41.5577 39.0182 41.4281 39.1048L39.9587 39.8825C39.786 39.9691 39.7426 40.1852 39.8291 40.3148L40.6069 41.7842C38.9213 42.9943 38.4028 45.3713 39.6129 47.1865C40.7365 48.9151 43.0705 49.3474 44.8856 48.3966L45.8364 47.8781C46.7007 47.4458 47.7381 47.7916 48.127 48.6993C48.4296 49.4771 48.0404 50.4279 47.3057 50.8171L46.0091 51.5087C45.5337 51.7679 44.9286 51.6383 44.5829 51.2494C44.4964 51.1198 44.3236 51.1198 44.194 51.1629L42.7246 51.9407C42.5519 52.0272 42.5085 52.2433 42.595 52.4161C43.5028 53.7992 45.3179 54.3178 46.8737 53.6262L47.6515 55.0955C47.738 55.2683 47.9542 55.3117 48.0838 55.2252L49.5532 54.4474C49.7259 54.3609 49.7693 54.1447 49.6828 54.0151L48.905 52.5023C50.331 51.4221 50.9794 49.5204 50.2878 47.8349L50.2879 47.835Z" fill="white"/>
</svg>
