<svg width="56" height="56" viewBox="0 0 56 56" fill="none" xmlns="http://www.w3.org/2000/svg">
<path d="M56 28C56 43.464 43.464 56 28 56C12.536 56 0 43.464 0 28C0 12.536 12.536 0 28 0C43.464 0 56 12.536 56 28Z" fill="#0C2F4A"/>
<path fill-rule="evenodd" clip-rule="evenodd" d="M31.2076 25.5482C29.6573 24.0235 27.795 22.2487 26.5528 21.0796L27.5809 19.9873C28.8276 21.1607 30.6985 22.9436 32.2594 24.4787C33.039 25.2455 33.7464 25.9555 34.2612 26.4987C34.5173 26.769 34.7342 27.0068 34.8903 27.1936C34.967 27.2854 35.0403 27.3783 35.0983 27.4641C35.1267 27.5061 35.162 27.5617 35.1928 27.6248L35.1933 27.6258C35.2128 27.6655 35.2835 27.8101 35.2835 28.0001C35.2835 28.1902 35.2128 28.3347 35.1933 28.3745L35.1928 28.3754C35.162 28.4385 35.1267 28.4941 35.0983 28.5362C35.0403 28.622 34.967 28.7149 34.8903 28.8067C34.7342 28.9935 34.5173 29.2313 34.2612 29.5015C33.7464 30.0447 33.039 30.7548 32.2594 31.5215C30.6985 33.0567 28.8276 34.8396 27.5809 36.0129L26.5528 34.9206C27.795 33.7515 29.6573 31.9768 31.2076 30.4521C31.9836 29.6889 32.6761 28.9935 33.1725 28.4697C33.3455 28.2872 33.4906 28.1297 33.6052 28.0001C33.4906 27.8705 33.3455 27.7131 33.1725 27.5305C32.6761 27.0068 31.9836 26.3114 31.2076 25.5482Z" fill="white"/>
<path fill-rule="evenodd" clip-rule="evenodd" d="M23.3335 27.2501H33.6002V28.7501H23.3335V27.2501Z" fill="white"/>
</svg>
