<?xml version="1.0" encoding="utf-8"?>
<!-- Generator: Adobe Illustrator 27.0.1, SVG Export Plug-In . SVG Version: 6.00 Build 0)  -->
<svg version="1.1" id="Layer_1" xmlns="http://www.w3.org/2000/svg" xmlns:xlink="http://www.w3.org/1999/xlink" x="0px" y="0px"
	 viewBox="0 0 143 146.5" style="enable-background:new 0 0 143 146.5;" xml:space="preserve">
<style type="text/css">
	.st0{fill:#0C2F4A;}
	.st1{fill:#6EBE4A;}
</style>
<g>
	<path class="st0" d="M1.3,72c0-2.4,1.8-4.2,4.6-4.2c2.8,0,4.5,1.8,4.5,4.3c0,1.8-1,3-2.1,3.5l6.1,0.1l0,1.1l-13-0.1l0-1.1l1.9,0
		C2.3,75,1.3,73.8,1.3,72z M2.3,72.3c0,1.8,1.3,3.3,3.5,3.3c2.2,0,3.6-1.5,3.6-3.3c0-1.9-1.3-3.3-3.5-3.3C3.6,69,2.3,70.4,2.3,72.3z
		"/>
	<path class="st0" d="M10.9,64.7l-0.2,1.1L2,64.5l0.2-1.1l1.6,0.2c-1-0.6-1.5-1.7-1.3-3.2l1.2,0.2l0,0.3C3.3,62.3,3.8,63.6,6,64
		L10.9,64.7z"/>
	<path class="st0" d="M0.6,57.6c-0.5-0.1-0.7-0.5-0.6-1c0.1-0.4,0.5-0.7,1-0.6c0.5,0.1,0.7,0.6,0.6,1C1.5,57.4,1.1,57.7,0.6,57.6z
		 M3.1,57.9l0.3-1.1l8.6,2l-0.3,1.1L3.1,57.9z"/>
	<path class="st0" d="M10.1,48.3c-1.8-0.7-3.1,0-3.7,1.5c-0.6,1.6,0,3,2.1,3.7l4.5,1.6l-0.4,1.1l-8.3-3l0.4-1.1l1.4,0.5
		c-0.8-0.9-1-2.2-0.6-3.4c0.7-1.9,2.4-3,4.8-2.1l4.9,1.8L14.8,50L10.1,48.3z"/>
	<path class="st0" d="M9.5,42.8l-0.6,1.1l-0.8-0.4l0.6-1.1l-2-1l0.5-1l2,1l1.1-2.2l0.8,0.4L10,41.7l4.9,2.5c1,0.5,1.4,0.3,1.9-0.6
		l0.5-0.9l0.9,0.4l-0.6,1.1c-0.7,1.4-1.6,1.8-3.2,1L9.5,42.8z"/>
	<path class="st0" d="M9.4,35.7c-0.4-0.3-0.5-0.8-0.3-1.1c0.2-0.4,0.7-0.5,1.1-0.3s0.5,0.8,0.3,1.1C10.4,35.8,9.9,35.9,9.4,35.7z
		 M11.7,36.8l0.6-1l7.5,4.7l-0.6,1L11.7,36.8z"/>
	<path class="st0" d="M21.3,29.9c-1.5-1.2-3-1-4,0.3c-1,1.3-0.9,2.8,0.8,4.2l3.8,3l-0.7,0.9l-6.9-5.5l0.7-0.9l1.2,0.9
		c-0.5-1.1-0.2-2.4,0.6-3.4c1.2-1.6,3.2-2,5.2-0.4l4.1,3.2L25.3,33L21.3,29.9z"/>
	<path class="st0" d="M24.4,21.2c1.3-1.2,2.9-1.3,4-0.8L27.1,19l0.8-0.8l6,6.8c1.6,1.9,1.5,4.2-0.3,5.8c-1.7,1.5-3.7,1.7-5.2,0.6
		l0.8-0.7c1.1,0.6,2.5,0.5,3.7-0.6c1.3-1.1,1.5-2.8,0.2-4.3l-1.5-1.6c0.4,1.2,0.1,2.7-1.2,3.9c-1.8,1.6-4.4,1.5-6.2-0.6
		C22.5,25.3,22.6,22.8,24.4,21.2z M25.3,21.8c-1.4,1.2-1.6,3.2-0.1,4.8c1.5,1.7,3.4,1.7,4.8,0.5c1.4-1.2,1.5-3.2,0.1-4.8
		C28.6,20.6,26.6,20.6,25.3,21.8z"/>
	<path class="st0" d="M42.6,19.5c-1.8,1-3.5,0.7-4.4-0.6l1-0.6c0.5,0.8,1.6,1,2.9,0.3c1.1-0.6,1.4-1.5,1-2.3c-1-1.9-5.1,1.7-6.7-1.2
		c-0.6-1.2,0-2.7,1.6-3.6c1.7-0.9,3.2-0.6,4.1,0.8l-1,0.5c-0.5-0.8-1.5-1.1-2.7-0.5c-1,0.6-1.4,1.5-1,2.2c1.1,2.1,5.1-1.5,6.7,1.2
		C44.8,17.1,44.2,18.6,42.6,19.5z"/>
	<path class="st0" d="M44.6,9.6l-1.1,0.5l-0.4-0.9l1.1-0.5l-0.8-2.1l1.1-0.4l0.8,2.1l2.3-0.9L48,8.3l-2.3,0.9l2,5.1
		c0.4,1,0.9,1.2,1.8,0.8l1-0.4l0.4,0.9l-1.1,0.5c-1.4,0.6-2.4,0.3-3.1-1.4L44.6,9.6z"/>
	<path class="st0" d="M56.4,14.1c-2.4,0.6-4.7-0.6-5.4-3.3c-0.7-2.7,0.8-4.9,3.2-5.5c2.4-0.6,4.7,0.6,5.4,3.3
		C60.3,11.3,58.8,13.5,56.4,14.1z M56.2,13.2c1.6-0.4,2.9-1.9,2.3-4.3c-0.6-2.4-2.4-3.1-4-2.7c-1.6,0.4-2.9,1.9-2.3,4.3
		C52.8,12.9,54.5,13.6,56.2,13.2z"/>
	<path class="st0" d="M63.9,12.6l-1.1,0.1l-1-8.8l1.1-0.1l0.2,1.6c0.4-1.1,1.3-1.9,2.8-2.1L66,4.5l-0.3,0c-1.5,0.2-2.6,1-2.4,3.2
		L63.9,12.6z"/>
	<path class="st0" d="M68.1,0.9c0-0.5,0.3-0.8,0.8-0.9c0.5,0,0.8,0.3,0.9,0.8c0,0.5-0.3,0.9-0.8,0.9C68.6,1.7,68.2,1.3,68.1,0.9z
		 M68.5,3.4l1.1,0l0.3,8.8l-1.1,0L68.5,3.4z"/>
	<path class="st0" d="M76.4,12.5c-2.5-0.2-4.2-2.1-4-4.9c0.2-2.8,2.2-4.4,4.7-4.2c2.6,0.2,4,2.2,3.8,4.4c0,0.4,0,0.6-0.1,0.9
		l-7.3-0.6c-0.1,2.1,1.3,3.3,2.9,3.4c1.5,0.1,2.6-0.6,3-1.7l1.2,0.1C80.1,11.5,78.6,12.6,76.4,12.5z M73.6,7.2l6.2,0.5
		c0.2-2-1.2-3.2-2.8-3.3C75.4,4.2,73.9,5.1,73.6,7.2z"/>
	<path class="st0" d="M85.5,13.9c-2-0.5-3.1-1.8-2.9-3.4l1.1,0.3c-0.1,1,0.5,1.8,1.9,2.2c1.2,0.3,2.1-0.2,2.3-1
		c0.5-2.1-5-2.1-4.2-5.3c0.3-1.3,1.8-2.1,3.6-1.6c1.8,0.4,2.8,1.7,2.5,3.4l-1.1-0.3c0.2-1-0.4-1.9-1.7-2.2c-1.2-0.3-2,0.2-2.2,0.9
		c-0.5,2.3,4.8,2.3,4.2,5.3C88.7,13.6,87.3,14.3,85.5,13.9z"/>
	<path class="st0" d="M103,10.7c2.2,1.1,3,3.5,1.7,5.9c-1.2,2.5-3.6,3.3-5.8,2.2c-1.6-0.8-2.2-2.2-2.2-3.4L94,20.9l-1-0.5l5.8-11.7
		l1,0.5L99,11C99.9,10.2,101.4,9.9,103,10.7z M102.4,11.5c-1.6-0.8-3.5-0.2-4.5,1.7c-1,2-0.3,3.9,1.4,4.7c1.7,0.8,3.5,0.3,4.5-1.7
		C104.8,14.1,104.1,12.3,102.4,11.5z"/>
	<path class="st0" d="M105.4,22.5l-0.9-0.6l5-7.3l0.9,0.6l-0.9,1.3c1-0.6,2.2-0.6,3.5,0.3l-0.7,1l-0.3-0.2c-1.2-0.8-2.6-1-3.9,0.8
		L105.4,22.5z"/>
	<path class="st0" d="M115,18.5l0.9,0.7l-5.6,6.9l-0.9-0.7L115,18.5z M116.3,16.4c0.3-0.4,0.8-0.4,1.2-0.1c0.4,0.3,0.4,0.8,0.1,1.2
		c-0.3,0.4-0.8,0.4-1.2,0.1C116.1,17.3,116,16.8,116.3,16.4z"/>
	<path class="st0" d="M120.6,28.9c1.4-1.4,1.4-2.8,0.2-4c-1.2-1.2-2.7-1.3-4.2,0.2l-3.4,3.4l-0.8-0.8l6.3-6.2l0.8,0.8l-1.1,1.1
		c1.2-0.4,2.4,0,3.3,1c1.4,1.4,1.6,3.4-0.2,5.2l-3.7,3.6l-0.8-0.8L120.6,28.9z"/>
	<path class="st0" d="M125.8,30.8l-0.7-1l0.8-0.6l0.7,1l1.8-1.3l0.7,0.9l-1.8,1.3l1.5,1.9l-0.8,0.6l-1.5-1.9l-4.4,3.3
		c-0.9,0.7-0.9,1.2-0.3,2l0.6,0.8l-0.8,0.6l-0.7-1c-0.9-1.2-0.9-2.3,0.5-3.3L125.8,30.8z"/>
	<path class="st0" d="M130.2,35.4l0.6,1l-7.5,4.7l-0.6-1L130.2,35.4z M132.2,33.8c0.4-0.3,0.9-0.1,1.1,0.3c0.2,0.4,0.2,0.9-0.3,1.1
		c-0.4,0.3-0.9,0.1-1.2-0.2C131.7,34.6,131.8,34.1,132.2,33.8z"/>
	<path class="st0" d="M132.2,47.1c1.8-0.9,2.2-2.2,1.5-3.7c-0.7-1.5-2.2-2.1-4.1-1.1l-4.3,2.1l-0.5-1l8-3.8l0.5,1l-1.4,0.7
		c1.2,0,2.2,0.8,2.8,2c0.9,1.8,0.5,3.8-1.9,4.9l-4.7,2.2l-0.5-1L132.2,47.1z"/>
	<path class="st0" d="M138.7,53.6c0.5,1.7-0.1,3.1-1,3.9l1.9-0.5l0.3,1.1l-8.7,2.5c-2.4,0.7-4.4-0.5-5.1-2.8c-0.6-2.2,0.1-4,1.7-4.9
		l0.3,1.1c-1.1,0.7-1.5,2-1.1,3.5c0.5,1.6,1.9,2.6,3.8,2l2.1-0.6c-1.2-0.2-2.5-1.1-3-2.8c-0.7-2.3,0.6-4.6,3.2-5.3
		C135.8,50,138,51.3,138.7,53.6z M137.8,54.1c-0.5-1.8-2.1-2.8-4.3-2.2c-2.2,0.6-3.1,2.3-2.5,4.1c0.5,1.7,2.2,2.8,4.3,2.2
		S138.3,55.9,137.8,54.1z"/>
	<path class="st0" d="M132.3,75.3c0.1-2,1.1-3.4,2.7-3.5l0,1.2c-1,0.1-1.7,0.9-1.7,2.3c0,1.3,0.6,2,1.5,2c2.2,0.1,1.1-5.3,4.4-5.2
		c1.3,0,2.4,1.3,2.3,3.2c-0.1,1.9-1.1,3.1-2.8,3.2l0-1.1c1,0,1.8-0.7,1.8-2.1c0-1.2-0.6-1.9-1.4-2c-2.4-0.1-1.3,5.2-4.4,5.2
		C133.3,78.4,132.3,77.1,132.3,75.3z"/>
	<path class="st0" d="M139.9,82l0.2-1.2L141,81l-0.2,1.2l2.2,0.3l-0.2,1.1l-2.2-0.3l-0.4,2.4l-0.9-0.1l0.4-2.4l-5.4-0.8
		c-1.1-0.2-1.5,0.2-1.6,1.2l-0.2,1l-1-0.1l0.2-1.2c0.2-1.5,1-2.2,2.7-2L139.9,82z"/>
	<path class="st0" d="M130.1,90c0.7-2.4,2.9-3.7,5.6-3c2.7,0.8,3.8,3.1,3.2,5.5c-0.7,2.4-2.9,3.8-5.6,3
		C130.5,94.7,129.4,92.4,130.1,90z M131,90.2c-0.5,1.6,0.2,3.5,2.5,4.1c2.3,0.7,3.9-0.5,4.3-2.2c0.5-1.6-0.2-3.4-2.5-4.1
		C133,87.4,131.5,88.6,131,90.2z"/>
	<path class="st0" d="M127.6,97.2l0.5-1l8.1,3.5l-0.5,1l-1.4-0.6c0.8,0.9,1,2.1,0.4,3.5l-1.1-0.5l0.1-0.3c0.6-1.3,0.5-2.8-1.5-3.6
		L127.6,97.2z"/>
	<path class="st0" d="M133.3,105.8l-0.5,1l-7.8-4.2l0.5-1L133.3,105.8z M135.6,106.8c0.4,0.2,0.6,0.7,0.3,1.1s-0.7,0.6-1.1,0.3
		c-0.4-0.2-0.6-0.7-0.4-1.1C134.7,106.7,135.2,106.6,135.6,106.8z"/>
	<path class="st0" d="M121.5,108.1c1.4-2.1,3.9-2.6,6.2-1c2.3,1.6,2.7,4.1,1.3,6.2c-1.5,2.1-3.9,2.4-5.7,1.1
		c-0.3-0.2-0.5-0.3-0.7-0.5l4.2-6c-1.8-1.1-3.5-0.5-4.4,0.8c-0.9,1.2-0.8,2.5,0,3.5l-0.7,1C120.4,111.8,120.2,109.9,121.5,108.1z
		 M127.4,108.3l-3.5,5.1c1.7,1.2,3.4,0.6,4.3-0.8C129.1,111.3,129,109.6,127.4,108.3z"/>
	<path class="st0" d="M115.6,115.2c1.4-1.5,3.1-1.8,4.4-0.8l-0.8,0.8c-0.8-0.6-1.9-0.5-2.8,0.6c-0.9,0.9-0.9,1.9-0.2,2.5
		c1.6,1.5,4.3-3.2,6.7-1c1,0.9,0.9,2.6-0.4,3.9c-1.3,1.4-2.9,1.6-4.2,0.5l0.8-0.8c0.8,0.6,1.8,0.6,2.7-0.4c0.8-0.9,0.9-1.8,0.3-2.4
		c-1.7-1.6-4.4,3-6.7,0.9C114.3,118.2,114.4,116.6,115.6,115.2z"/>
	<path class="st0" d="M105.1,134.7c-2.1,1.2-4.5,0.5-5.9-1.9c-1.3-2.4-0.7-4.9,1.5-6c1.5-0.9,3.1-0.6,4.1,0.1l-3-5.3l1-0.5l6.3,11.4
		l-1,0.5l-0.9-1.7C107.2,132.4,106.6,133.9,105.1,134.7z M104.8,133.7c1.6-0.9,2.2-2.8,1.1-4.7c-1.1-1.9-3-2.4-4.6-1.5
		c-1.6,0.9-2.2,2.8-1.1,4.7C101.3,134.2,103.2,134.6,104.8,133.7z"/>
	<path class="st0" d="M94,130l1.1-0.4l3.2,8.2l-1.1,0.4l-0.6-1.5c-0.1,1.2-0.8,2.2-2.2,2.7l-0.4-1.1l0.3-0.1
		c1.4-0.5,2.3-1.6,1.5-3.7L94,130z"/>
	<path class="st0" d="M91.9,140.1l-1.1,0.3l-2.5-8.5l1.1-0.3L91.9,140.1z M92.8,142.5c0.1,0.5-0.1,0.9-0.6,1c-0.4,0.1-0.9-0.1-1-0.6
		c-0.1-0.5,0.1-0.9,0.6-1C92.2,141.8,92.7,142,92.8,142.5z"/>
	<path class="st0" d="M80.1,138.9c0.3,1.9,1.6,2.7,3.2,2.5c1.6-0.3,2.6-1.5,2.2-3.6l-0.8-4.8l1.1-0.2l1.5,8.7l-1.1,0.2l-0.3-1.5
		c-0.4,1.2-1.4,1.9-2.7,2.2c-2,0.3-3.8-0.6-4.2-3.1l-0.9-5.1l1.1-0.2L80.1,138.9z"/>
	<path class="st0" d="M75.6,142.1l1.2-0.1l0,1l-1.2,0.1l0.1,2.2l-1.1,0l-0.1-2.2l-2.4,0.1l0-1l2.4-0.1l-0.2-5.5
		c0-1.1-0.4-1.4-1.5-1.4l-1,0l0-1l1.2-0.1c1.5-0.1,2.4,0.5,2.5,2.3L75.6,142.1z"/>
	<path class="st0" d="M69.5,145.7c0,0.5-0.4,0.8-0.9,0.8c-0.5,0-0.8-0.4-0.8-0.9c0-0.5,0.4-0.8,0.9-0.8
		C69.1,144.8,69.5,145.2,69.5,145.7z M69.3,143.2l-1.1,0l0.3-8.8l1.1,0L69.3,143.2z"/>
	<path class="st0" d="M58.6,138.2c-0.3,1.9,0.6,3.1,2.2,3.3c1.6,0.3,2.9-0.6,3.3-2.7l0.7-4.8l1.1,0.2l-1.3,8.7l-1.1-0.2l0.2-1.5
		c-0.7,1-1.9,1.4-3.2,1.2c-2-0.3-3.4-1.8-3-4.3l0.8-5.1l1.1,0.2L58.6,138.2z"/>
	<path class="st0" d="M49.5,139.8c-1.7-0.6-2.5-1.8-2.7-3.1l-0.6,1.8l-1.1-0.4l2.9-8.6c0.8-2.3,2.9-3.4,5.2-2.6
		c2.2,0.7,3.3,2.3,3,4.2l-1.1-0.4c0-1.3-0.8-2.4-2.3-2.9c-1.6-0.5-3.2,0.1-3.8,2l-0.7,2.1c0.9-0.9,2.3-1.4,4-0.9
		c2.3,0.8,3.4,3.1,2.5,5.7S51.8,140.6,49.5,139.8z M49.6,138.8c1.8,0.6,3.5-0.2,4.2-2.3c0.7-2.1-0.2-3.8-2-4.4
		c-1.7-0.6-3.5,0.2-4.3,2.3C46.9,136.5,47.9,138.2,49.6,138.8z"/>
	<path class="st0" d="M39,124.9c1.7,1.1,2.4,2.7,1.6,4.1l-1-0.6c0.4-0.9,0.1-1.9-1.1-2.7c-1.1-0.7-2-0.5-2.5,0.2
		c-1.2,1.9,4,3.6,2.3,6.4c-0.7,1.1-2.3,1.4-3.9,0.4c-1.6-1-2.1-2.5-1.3-4l1,0.6c-0.5,0.9-0.2,1.9,0.9,2.6c1,0.6,2,0.5,2.4-0.2
		c1.3-2-3.8-3.7-2.2-6.4C35.9,124.2,37.5,123.9,39,124.9z"/>
	<path class="st0" d="M29.4,128l1,0.8l-0.6,0.7l-1-0.8l-1.4,1.7l-0.9-0.7l1.4-1.7l-1.9-1.5l0.6-0.7l1.9,1.5L32,123
		c0.7-0.8,0.6-1.3-0.2-2l-0.8-0.6l0.6-0.8l0.9,0.8c1.2,1,1.5,2,0.4,3.3L29.4,128z"/>
	<path class="st0" d="M27.5,115.5c1.7,1.8,1.8,4.4-0.2,6.3c-2,2-4.6,1.8-6.3,0c-1.7-1.8-1.8-4.4,0.2-6.3
		C23.1,113.6,25.8,113.8,27.5,115.5z M26.8,116.2c-1.2-1.2-3.1-1.6-4.8,0.1c-1.7,1.7-1.5,3.6-0.3,4.8c1.2,1.2,3.1,1.6,4.8-0.1
		S27.9,117.4,26.8,116.2z"/>
	<path class="st0" d="M22.4,109.8l0.7,0.9l-7.1,5.2l-0.7-0.9l1.3-0.9c-1.2,0.3-2.3-0.2-3.2-1.4l1-0.7l0.2,0.2
		c0.9,1.2,2.1,1.8,3.9,0.5L22.4,109.8z"/>
	<path class="st0" d="M10.1,111.9c-0.4,0.3-0.9,0.1-1.1-0.3c-0.2-0.4-0.1-0.9,0.3-1.1c0.4-0.3,0.9-0.1,1.2,0.3
		C10.6,111.2,10.5,111.7,10.1,111.9z M12.1,110.4l-0.6-1l7.5-4.6l0.6,1L12.1,110.4z"/>
	<path class="st0" d="M16.1,99c1.1,2.3,0.3,4.7-2.3,5.9c-2.6,1.2-4.9,0.3-6-2c-1.1-2.3-0.1-4.6,1.9-5.5c0.3-0.2,0.5-0.2,0.8-0.3
		l3.1,6.6c1.8-1,2.2-2.7,1.5-4.2c-0.6-1.4-1.8-2-3-1.7l-0.5-1.1C13.4,96.3,15.2,97,16.1,99z M12.9,104.1l-2.6-5.6
		c-1.9,0.8-2.2,2.6-1.5,4.1C9.5,104,11,104.8,12.9,104.1z"/>
	<path class="st0" d="M12.9,90.4c0.6,1.9,0,3.6-1.5,4.2L11,93.4c0.9-0.4,1.3-1.4,0.9-2.8c-0.4-1.2-1.2-1.7-2-1.5
		c-2.1,0.6,0.6,5.4-2.5,6.3c-1.3,0.4-2.7-0.5-3.2-2.3c-0.5-1.8,0.1-3.3,1.7-3.9l0.3,1.1c-0.9,0.3-1.4,1.3-1.1,2.5
		c0.3,1.1,1.2,1.7,1.9,1.4c2.3-0.7-0.4-5.3,2.6-6.3C11,87.7,12.4,88.6,12.9,90.4z"/>
</g>
<g>
	<path class="st1" d="M102.7,79.2c2.4,0,4.2,1.8,4.2,4.3c0,2.5-1.8,4.2-4.3,4.2c-2.5,0-4.1-1.7-4.1-4.3
		C98.5,80.9,100.2,79.2,102.7,79.2z"/>
</g>
<g>
	<path class="st0" d="M67.5,50.1c2.3,0,4.6,0,6.9,0c0,12.4,0,24.8,0,37.2c-2.3,0-4.6,0-6.9,0C67.5,74.9,67.5,62.5,67.5,50.1z"/>
</g>
<g>
	<path class="st1" d="M59.3,60.7c2.4,0,4.2,1.8,4.2,4.3c0,2.5-1.8,4.2-4.3,4.2c-2.5,0-4.1-1.7-4.1-4.3
		C55.1,62.3,56.8,60.7,59.3,60.7z"/>
</g>
<g>
	<path class="st0" d="M55.9,72.3c0,0,0,1.3,0,2.1c0,3.9-2.6,6.9-6.3,7c-3.8,0-6.8-3-6.9-6.8c0-3.8,2.9-6.9,6.8-6.9
		c0.3,0,1.9-0.1,2.2-0.1v-6.3c-1.3-0.2-3.9-0.1-5.3,0.1c-3.7,0.6-6.6,2.4-8.5,5.7c-1.9,3.2-2.3,6.6-1.7,10.2
		c0.9,5.5,5.2,9.7,10.7,10.4c3.2,0.4,6.1-0.5,8.5-2.7c0.1-0.1,0.3-0.3,0.5-0.5v2.8h0c0,0,0,0,0,0c2.4,0,4.6,0,6.9,0c0,0,0,0,0,0
		c0-5.1,0-9.9,0-15H55.9z"/>
</g>
<g>
	<path class="st0" d="M94.6,81.4l0-0.6c-1-0.1-1.9-0.2-2.8-0.3c-0.8-0.1-1.5-0.5-1.7-1.4c-0.1-0.5-0.3-1-0.3-1.4c0-3.1,0-6.2,0-9.4
		c0-0.1,0-0.2,0-0.2c1.3,0,2.7,0,4.1,0c0.5,0,0.8-0.2,0.7-0.7c0-1.6,0-3.3,0-4.9c0-0.5-0.2-0.7-0.7-0.7c-1.3,0-2.7,0-4.2,0
		c0-3.3,0-6.5,0-9.7c-0.2,0.1-4.6,2.4-6.6,3.5c-0.2,0.1-0.3,0.5-0.3,0.7c0,1.6,0,3.2,0,4.8c0,0.4-0.1,0.6-0.4,0.7
		c-1.1,0-2.2,0-3.2,0c-0.5,0-0.7,0.1-0.7,0.7c0,1.6,0,3.3,0,4.9c0,0.6,0.2,0.7,0.7,0.7l3.2,0c0.4,0,0.5,0.2,0.5,0.7
		c0,2.4-0.1,4.9,0,7.3c0.1,1.7,0.2,3.5,0.5,5.2c0.5,2.5,1.9,4.3,4.4,5.2c2,0.7,4.1,0.8,6.3,0.8c0.5,0,0.7-0.2,0.7-0.7
		C94.6,84.9,94.6,83.2,94.6,81.4z"/>
</g>
<g>
</g>
<g>
</g>
<g>
</g>
<g>
</g>
<g>
</g>
<g>
</g>
<g>
</g>
<g>
</g>
<g>
</g>
<g>
</g>
<g>
</g>
<g>
</g>
<g>
</g>
<g>
</g>
<g>
</g>
</svg>
