<svg width="175" height="30" viewBox="0 0 175 30" fill="none" xmlns="http://www.w3.org/2000/svg">
<g clip-path="url(#clip0_192_436)">
<path d="M122.656 11.1894C122.656 10.6512 122.667 10.183 122.656 9.71474C122.646 9.40258 122.766 9.3057 123.058 9.31108C124.689 9.32184 126.326 9.31108 128.005 9.31108V29.5156H122.677V27.3627C122.177 27.7879 121.775 28.1754 121.327 28.4984C118.804 30.296 116.093 30.4037 113.346 29.225C109.358 27.5188 107.174 23.8052 107.278 19.225C107.325 17.1798 107.752 15.2583 108.8 13.4984C110.317 10.9526 112.533 9.49946 115.363 9.02583C117.501 8.67061 119.534 8.97201 121.379 10.2045C121.796 10.4844 122.182 10.8235 122.651 11.1894H122.656ZM117.798 24.8493C120.665 24.8385 122.807 22.5081 122.813 19.3972C122.818 16.2863 120.634 13.9397 117.735 13.9559C114.806 13.972 112.527 16.3455 112.527 19.3757C112.527 22.465 114.842 24.8654 117.793 24.8493H117.798Z" fill="white"/>
<path d="M66.9556 16.2756C65.6002 12.056 62.853 9.53176 58.5106 8.9774C55.4766 8.59527 52.7867 9.45641 50.5191 11.5285C47.8552 13.9666 46.7292 17.0883 47.1358 20.7481C47.4434 23.5307 48.6372 25.8611 50.7484 27.6426C54.6582 30.9419 61.4351 30.7804 65.0216 26.733C65.595 26.0872 66.0642 25.3391 66.6063 24.6071C65.3656 23.8428 64.2449 23.1593 63.1241 22.465C62.3421 21.9806 62.3317 21.9645 61.8417 22.7287C59.9337 25.6889 56.0448 25.6243 53.8762 23.972C53.0682 23.3531 52.5365 22.5296 52.2654 21.4424H52.9066C57.3168 21.4424 66.0903 21.4424 66.648 21.4424C67.1433 21.4424 67.3622 21.2164 67.3779 20.9526C67.3935 20.6889 67.4508 17.831 66.9504 16.2702L66.9556 16.2756ZM52.5625 16.9107C53.0474 15.1668 55.0752 13.8159 57.223 13.7783C59.5219 13.7352 61.2317 14.8654 61.899 16.9107H52.5573H52.5625Z" fill="white"/>
<path d="M91.5297 11.4747V9.29493H90.9875C89.58 9.29493 88.1725 9.31108 86.765 9.28417C86.3063 9.2734 86.1864 9.41872 86.1916 9.88159C86.2072 16.2433 86.202 22.6049 86.202 28.9666C86.202 29.1442 86.2176 29.3272 86.2281 29.5102H91.6027V28.9236C91.6027 27.0183 91.5974 25.1076 91.6027 23.2024C91.6131 21.3132 91.5974 19.4241 91.6704 17.535C91.7173 16.2648 92.1709 15.1561 93.2083 14.3434C94.621 13.24 97.3682 13.3961 98.3535 15.2476C98.8226 16.1356 98.9373 17.0936 98.9373 18.084C98.9373 21.6954 98.9373 25.3068 98.9373 28.9182V29.521H104.348C104.364 29.4402 104.39 29.3757 104.39 29.3111C104.38 24.9085 104.406 20.5005 104.338 16.0979C104.312 14.4941 103.827 12.9817 102.889 11.6577C101.674 9.95155 99.9851 9.13885 97.9938 8.93971C95.6375 8.7029 93.0831 9.45101 91.5401 11.4693" fill="white"/>
<path d="M174.38 9.28954C172.988 9.28954 171.596 9.31645 170.209 9.2734C169.714 9.25725 169.5 9.4241 169.339 9.90311C168.02 13.8536 166.675 17.7933 165.335 21.7384C165.267 21.9322 165.179 22.1152 165.069 22.3735C165.012 22.2228 164.991 22.1797 164.976 22.1313C163.542 18.0247 162.098 13.9236 160.68 9.81161C160.539 9.39719 160.346 9.27878 159.94 9.28416C158.47 9.30569 156.994 9.28954 155.524 9.29493C155.368 9.29493 155.206 9.31107 154.993 9.31645L162.228 29.1819C162.333 29.4672 162.463 29.564 162.755 29.5586C164.293 29.5425 165.83 29.5371 167.368 29.5586C167.712 29.5586 167.837 29.4295 167.952 29.1173L175 9.28416H174.38V9.28954Z" fill="white"/>
<path d="M24.2925 0H29.6045V29.521H24.2925V0Z" fill="white"/>
<path d="M83.0063 9.34337V14.6717C82.777 14.6717 82.5372 14.6717 82.2974 14.6717C81.3642 14.6717 80.4311 14.6502 79.5032 14.6878C77.3763 14.7686 76.1408 15.9096 75.8489 18.084C75.7551 18.7998 75.7238 19.5264 75.7186 20.253C75.7029 23.1378 75.7134 26.0226 75.7134 28.9074C75.7134 29.1066 75.7134 29.3003 75.7134 29.5264H70.344V9.34337H75.6404V12.3681C75.6769 12.4004 75.7082 12.4273 75.7446 12.4596C77.3502 9.34875 80.0819 9.12809 83.0116 9.34337H83.0063Z" fill="white"/>
<path d="M146.892 9.34338H152.172V29.5156H146.892V9.34338Z" fill="white"/>
<path d="M149.555 0.0107583C151.432 0.0161405 152.767 1.42088 152.756 3.38535C152.751 5.33369 151.396 6.69537 149.482 6.6846C147.569 6.67384 146.297 5.32292 146.303 3.31C146.308 1.34553 147.627 0.00537621 149.555 0.0107583V0.0107583Z" fill="#6EBE4A"/>
<path d="M17.9744 8.40688C19.851 8.41226 21.1856 9.81699 21.1751 11.7815C21.1699 13.7298 19.8145 15.0915 17.9014 15.0807C15.9882 15.07 14.7162 13.719 14.7215 11.7061C14.7267 9.74164 16.0456 8.40149 17.9744 8.40688V8.40688Z" fill="#6EBE4A"/>
<path d="M15.3992 17.6372C15.3992 17.6372 15.394 18.676 15.3992 19.3272C15.4357 22.4489 13.4287 24.8224 10.5355 24.8493C7.61102 24.8762 5.29124 22.4973 5.25475 19.4402C5.22348 16.3832 7.50155 13.9774 10.4469 13.9559C10.6763 13.9559 11.9222 13.8805 12.1411 13.9074V8.91818C11.1506 8.74595 9.10715 8.85359 8.05934 9.0312C5.22869 9.51021 3.01317 10.9688 1.50662 13.5253C0.03134 16.0387 -0.250161 18.7782 0.18773 21.62C0.860205 26.0064 4.19652 29.3165 8.45031 29.8816C10.9473 30.2153 13.1368 29.5102 14.9822 27.7126C15.0917 27.6103 15.1959 27.5027 15.3992 27.2982V29.521H15.4044C17.2133 29.521 18.9701 29.521 20.7321 29.521V17.6318H15.3992V17.6372Z" fill="white"/>
<path d="M44.5868 14.3003C45.0091 14.3111 45.1654 14.1819 45.1602 13.7352C45.1394 12.4381 45.1394 11.1356 45.1602 9.83854C45.1654 9.41336 45.0247 9.28957 44.6233 9.30033C43.5963 9.32724 42.5642 9.31109 41.4329 9.31109V1.60388C41.2661 1.66309 37.9246 3.49839 36.3607 4.40797C36.2147 4.49409 36.1001 4.77934 36.0948 4.9731C36.0688 6.2379 36.0688 7.5027 36.0948 8.7675C36.1001 9.11196 36.0219 9.26804 35.756 9.30033C34.8906 9.30033 34.0774 9.31109 33.2694 9.28957C32.8628 9.2788 32.722 9.40259 32.7325 9.82778C32.7533 11.1249 32.7533 12.4273 32.7325 13.7244C32.7273 14.1712 32.8836 14.3003 33.3059 14.2896L35.7404 14.2788C36.0219 14.3111 36.1001 14.4672 36.0948 14.8224C36.0792 16.7653 36.0427 18.7029 36.1053 20.6405C36.147 22.0183 36.2408 23.4069 36.4858 24.7578C36.8455 26.7438 37.9455 28.1808 39.8378 28.9021C41.4017 29.4941 43.0281 29.5694 44.6702 29.5533C45.0664 29.5533 45.1759 29.4134 45.1707 29.0258C45.155 27.6426 45.1707 26.2594 45.1602 24.8762L45.1707 24.4134C44.4356 24.3326 43.6954 24.2734 43.0177 24.1765C42.3713 24.0797 41.8761 23.7406 41.6936 23.0624C41.5945 22.6911 41.5007 22.3036 41.4955 21.9214C41.4746 19.4403 41.4746 16.9591 41.4694 14.4833C41.4694 14.4349 41.4694 14.2896 41.4694 14.2896C42.4808 14.2896 43.5651 14.2734 44.5868 14.3003V14.3003Z" fill="white"/>
<path d="M143.008 14.3003C143.43 14.3111 143.587 14.1819 143.581 13.7352C143.561 12.4381 143.561 11.1356 143.581 9.83854C143.587 9.41336 143.446 9.28957 143.044 9.30033C142.017 9.32724 140.985 9.31109 139.854 9.31109V1.60388C139.687 1.66309 136.346 3.49839 134.782 4.40797C134.636 4.49409 134.521 4.77934 134.516 4.9731C134.49 6.2379 134.49 7.5027 134.516 8.7675C134.521 9.11196 134.443 9.26804 134.177 9.30033C133.312 9.30033 132.499 9.31109 131.691 9.28957C131.284 9.2788 131.143 9.40259 131.154 9.82778C131.174 11.1249 131.174 12.4273 131.154 13.7244C131.148 14.1712 131.305 14.3003 131.727 14.2896L134.161 14.2788C134.443 14.3111 134.521 14.4672 134.516 14.8224C134.5 16.7653 134.464 18.7029 134.526 20.6405C134.568 22.0183 134.662 23.4069 134.907 24.7578C135.267 26.7438 136.367 28.1808 138.259 28.9021C139.823 29.4941 141.449 29.5694 143.091 29.5533C143.488 29.5533 143.597 29.4134 143.592 29.0258C143.576 27.6426 143.592 26.2594 143.581 24.8762L143.592 24.4134C142.857 24.3326 142.117 24.2734 141.439 24.1765C140.792 24.0797 140.297 23.7406 140.115 23.0624C140.016 22.6911 139.922 22.3036 139.917 21.9214C139.896 19.4403 139.896 16.9591 139.891 14.4833C139.891 14.4349 139.891 14.2896 139.891 14.2896C140.902 14.2896 141.986 14.2734 143.008 14.3003V14.3003Z" fill="white"/>
</g>
<defs>
<clipPath id="clip0_192_436">
<rect width="175" height="30" fill="white"/>
</clipPath>
</defs>
</svg>
