<svg width="157" height="83" viewBox="0 0 157 83" fill="none" xmlns="http://www.w3.org/2000/svg">
<path d="M147.796 63.7526C153.159 63.7526 156.961 67.6325 156.939 73.0163C156.939 78.3566 153.049 82.1057 147.576 82.0621C142.103 82.0403 138.477 78.313 138.477 72.7984C138.477 67.3927 142.257 63.7308 147.774 63.7526H147.796Z" fill="#6EBE4A"/>
<path d="M70.406 0.301453H85.5939V81.3428H70.406V0.301453Z" fill="white"/>
<path d="M52.3608 23.3845C57.7238 23.3845 61.5263 27.2644 61.5043 32.6482C61.5043 37.9885 57.6139 41.7376 52.141 41.694C46.6681 41.6722 43.0415 37.9449 43.0415 32.4303C43.0415 27.0246 46.822 23.3627 52.3388 23.3845H52.3608Z" fill="#6EBE4A"/>
<path d="M44.9977 48.7127C44.9977 48.7127 44.9977 51.5681 44.9977 53.3554C45.1076 61.9217 39.3709 68.439 31.1066 68.5262C22.7544 68.6134 16.1166 62.0742 16.0287 53.6606C15.9407 45.2687 22.4467 38.6642 30.8648 38.5988C31.5242 38.5988 35.0849 38.3809 35.7003 38.4681V24.7795C32.865 24.3218 27.0184 24.6052 24.0292 25.0847C15.9407 26.3925 9.61064 30.4032 5.30266 37.4218C1.06061 44.3315 0.269342 51.8514 1.52217 59.6548C3.45637 71.6867 12.9735 80.7979 25.1282 82.3455C32.2715 83.2609 38.5357 81.321 43.7888 76.3949C44.0965 76.1115 44.4042 75.8064 44.9757 75.2614V81.3646C50.1409 81.3646 55.1522 81.3646 60.2075 81.3646V48.7345H44.9537L44.9977 48.7127Z" fill="white"/>
<path d="M130.015 68.6134V67.3491C127.948 67.1312 125.838 66.9568 123.904 66.6952C122.058 66.4336 120.651 65.4964 120.124 63.6436C119.838 62.6192 119.574 61.5511 119.552 60.5049C119.486 53.7042 119.486 46.8817 119.486 40.081C119.486 39.9503 119.486 39.5361 119.486 39.5361C122.388 39.5361 125.465 39.4925 128.388 39.5579C129.597 39.5797 130.037 39.231 130.015 38.0103C129.949 34.4356 129.949 30.8827 130.015 27.308C130.015 26.1309 129.641 25.804 128.476 25.8258C125.531 25.8912 122.585 25.8476 119.354 25.8476V4.70447C118.871 4.85705 109.332 9.89216 104.848 12.3988C104.43 12.6386 104.101 13.4233 104.079 13.9464C104.013 17.4121 103.991 20.8997 104.079 24.3654C104.079 25.3027 103.859 25.7386 103.112 25.8258C100.65 25.8258 98.32 25.8476 96.0122 25.804C94.8473 25.7822 94.4517 26.1309 94.4736 27.2862C94.5396 30.8609 94.5396 34.4138 94.4736 37.9885C94.4736 39.2092 94.8912 39.5797 96.1001 39.5361H103.046C103.837 39.5797 104.079 40.0375 104.057 40.9965C104.013 46.315 103.903 51.6553 104.079 56.9737C104.211 60.7446 104.474 64.5591 105.156 68.2646C106.167 73.7138 109.31 77.6591 114.739 79.6426C119.223 81.2774 123.86 81.4736 128.542 81.43C129.685 81.43 129.993 81.0377 129.971 79.9914C129.927 76.1987 129.971 72.406 129.949 68.5916L130.015 68.6134Z" fill="white"/>
</svg>
