<svg width="433" height="296" viewBox="0 0 433 296" fill="none" xmlns="http://www.w3.org/2000/svg">
<g opacity="0.04">
<path d="M432.621 38.2308C432.61 42.2299 429.715 45.0737 425.667 45.0515C421.652 45.0404 418.846 42.1521 418.869 38.0753C418.891 33.9984 421.675 31.2879 425.822 31.299C429.871 31.3101 432.632 34.1206 432.621 38.2308V38.2308Z" fill="white"/>
<path d="M413.537 32.759C413.537 32.759 411.388 32.7479 410.041 32.759C403.584 32.8366 398.674 28.5672 398.619 22.4127C398.563 16.1916 403.484 11.2568 409.807 11.1792C416.131 11.1127 421.107 15.9587 421.152 22.2241C421.152 22.7121 421.308 25.3624 421.252 25.8282L431.572 25.8282C431.928 23.7212 431.706 19.3742 431.338 17.1452C430.347 11.1237 427.33 6.41079 422.042 3.20598C416.843 0.0677059 411.177 -0.531117 405.299 0.400384C396.225 1.8309 389.379 8.92806 388.21 17.9769C387.519 23.2887 388.978 27.9462 392.696 31.8718C392.908 32.1047 393.13 32.3265 393.553 32.759L388.956 32.759L388.956 32.7701C388.956 36.6181 388.956 40.3552 388.956 44.1034L413.548 44.1034L413.548 32.759L413.537 32.759Z" fill="white"/>
<path d="M388.043 57.0887C388.054 53.0896 390.949 50.2458 394.997 50.268C399.012 50.2791 401.818 53.1673 401.795 57.2442C401.773 61.3211 398.99 64.0316 394.842 64.0205C390.794 64.0094 388.032 61.1989 388.043 57.0887V57.0887Z" fill="white"/>
<path d="M407.127 62.5605C407.127 62.5605 409.276 62.5716 410.623 62.5605C417.08 62.4828 421.99 66.7522 422.045 72.9068C422.101 79.1279 417.18 84.0626 410.857 84.1403C404.533 84.2068 399.557 79.3608 399.512 73.0953C399.512 72.6074 399.357 69.957 399.412 69.4913L389.092 69.4913C388.736 71.5983 388.958 75.9453 389.326 78.1742C390.317 84.1957 393.334 88.9087 398.622 92.1135C403.821 95.2518 409.487 95.8506 415.366 94.9191C424.439 93.4885 431.285 86.3914 432.454 77.3425C433.145 72.0307 431.686 67.3732 427.968 63.4476C427.756 63.2147 427.534 62.9929 427.111 62.5605L431.709 62.5605L431.709 62.5494C431.709 58.7014 431.709 54.9643 431.709 51.2161L407.116 51.2161L407.116 62.5605L407.127 62.5605Z" fill="white"/>
<path d="M432.621 138.768C432.61 142.767 429.715 145.611 425.667 145.589C421.652 145.578 418.846 142.689 418.869 138.613C418.891 134.536 421.675 131.825 425.822 131.836C429.871 131.847 432.632 134.658 432.621 138.768V138.768Z" fill="white"/>
<path d="M413.537 133.296C413.537 133.296 411.388 133.285 410.041 133.296C403.584 133.374 398.674 129.105 398.619 122.95C398.563 116.729 403.484 111.794 409.807 111.717C416.131 111.65 421.107 116.496 421.152 122.761C421.152 123.249 421.308 125.9 421.252 126.366L431.572 126.366C431.928 124.259 431.706 119.912 431.338 117.683C430.347 111.661 427.33 106.948 422.042 103.743C416.843 100.605 411.177 100.006 405.299 100.938C396.225 102.368 389.379 109.465 388.21 118.514C387.519 123.826 388.978 128.484 392.696 132.409C392.908 132.642 393.13 132.864 393.553 133.296L388.956 133.296L388.956 133.307C388.956 137.155 388.956 140.893 388.956 144.641L413.548 144.641L413.548 133.296L413.537 133.296Z" fill="white"/>
<path d="M388.043 157.626C388.054 153.627 390.949 150.783 394.997 150.805C399.012 150.816 401.818 153.705 401.795 157.782C401.773 161.858 398.99 164.569 394.842 164.558C390.794 164.547 388.032 161.736 388.043 157.626V157.626Z" fill="white"/>
<path d="M407.127 163.098C407.127 163.098 409.276 163.109 410.623 163.098C417.08 163.02 421.99 167.29 422.045 173.444C422.101 179.665 417.18 184.6 410.857 184.678C404.533 184.744 399.557 179.898 399.512 173.633C399.512 173.145 399.357 170.494 399.412 170.029L389.092 170.029C388.736 172.136 388.958 176.483 389.326 178.712C390.317 184.733 393.334 189.446 398.622 192.651C403.821 195.789 409.487 196.388 415.366 195.456C424.439 194.026 431.285 186.929 432.454 177.88C433.145 172.568 431.686 167.911 427.968 163.985C427.756 163.752 427.534 163.53 427.111 163.098L431.709 163.098L431.709 163.087C431.709 159.239 431.709 155.502 431.709 151.753L407.116 151.753L407.116 163.098L407.127 163.098Z" fill="white"/>
<path d="M378.004 38.2308C377.993 42.2299 375.098 45.0737 371.05 45.0515C367.035 45.0404 364.229 42.1521 364.251 38.0753C364.274 33.9984 367.057 31.2879 371.205 31.299C375.253 31.3101 378.015 34.1206 378.004 38.2308V38.2308Z" fill="white"/>
<path d="M358.92 32.759C358.92 32.759 356.771 32.7479 355.424 32.759C348.967 32.8366 344.057 28.5672 344.002 22.4127C343.946 16.1916 348.867 11.2568 355.19 11.1792C361.514 11.1127 366.49 15.9587 366.534 22.2241C366.534 22.7121 366.69 25.3624 366.635 25.8282L376.955 25.8282C377.311 23.7212 377.088 19.3742 376.721 17.1452C375.73 11.1237 372.713 6.41079 367.425 3.20598C362.226 0.0677059 356.559 -0.531117 350.681 0.400384C341.608 1.8309 334.761 8.92806 333.592 17.9769C332.902 23.2887 334.361 27.9462 338.079 31.8718C338.29 32.1047 338.513 32.3265 338.936 32.759L334.338 32.759L334.338 32.7701C334.338 36.6181 334.338 40.3552 334.338 44.1034L358.931 44.1034L358.931 32.759L358.92 32.759Z" fill="white"/>
<path d="M333.426 57.0887C333.437 53.0896 336.332 50.2458 340.38 50.268C344.395 50.2791 347.2 53.1673 347.178 57.2442C347.156 61.3211 344.372 64.0316 340.224 64.0205C336.176 64.0094 333.415 61.1989 333.426 57.0887V57.0887Z" fill="white"/>
<path d="M352.51 62.5605C352.51 62.5605 354.659 62.5716 356.006 62.5605C362.463 62.4828 367.372 66.7522 367.428 72.9068C367.484 79.1279 362.563 84.0626 356.24 84.1403C349.916 84.2068 344.94 79.3608 344.895 73.0953C344.895 72.6074 344.739 69.957 344.795 69.4913L334.475 69.4913C334.119 71.5983 334.341 75.9453 334.709 78.1742C335.699 84.1957 338.716 88.9087 344.005 92.1135C349.204 95.2518 354.87 95.8506 360.748 94.9191C369.822 93.4885 376.668 86.3914 377.837 77.3425C378.527 72.0307 377.069 67.3732 373.351 63.4476C373.139 63.2147 372.917 62.9929 372.493 62.5605L377.091 62.5605L377.091 62.5494C377.091 58.7014 377.091 54.9643 377.091 51.2161L352.499 51.2161L352.499 62.5605L352.51 62.5605Z" fill="white"/>
<path d="M378.004 138.768C377.993 142.767 375.098 145.611 371.05 145.589C367.035 145.578 364.229 142.689 364.251 138.613C364.274 134.536 367.057 131.825 371.205 131.836C375.253 131.847 378.015 134.658 378.004 138.768V138.768Z" fill="white"/>
<path d="M358.92 133.296C358.92 133.296 356.771 133.285 355.424 133.296C348.967 133.374 344.057 129.105 344.002 122.95C343.946 116.729 348.867 111.794 355.19 111.717C361.514 111.65 366.49 116.496 366.534 122.761C366.534 123.249 366.69 125.9 366.635 126.366L376.955 126.366C377.311 124.259 377.088 119.912 376.721 117.683C375.73 111.661 372.713 106.948 367.425 103.743C362.226 100.605 356.559 100.006 350.681 100.938C341.608 102.368 334.761 109.465 333.592 118.514C332.902 123.826 334.361 128.484 338.079 132.409C338.29 132.642 338.513 132.864 338.936 133.296L334.338 133.296L334.338 133.307C334.338 137.155 334.338 140.893 334.338 144.641L358.931 144.641L358.931 133.296L358.92 133.296Z" fill="white"/>
<path d="M333.426 157.626C333.437 153.627 336.332 150.783 340.38 150.805C344.395 150.816 347.2 153.705 347.178 157.782C347.156 161.858 344.372 164.569 340.224 164.558C336.176 164.547 333.415 161.736 333.426 157.626V157.626Z" fill="white"/>
<path d="M352.51 163.098C352.51 163.098 354.659 163.109 356.006 163.098C362.463 163.02 367.372 167.29 367.428 173.444C367.484 179.665 362.563 184.6 356.24 184.678C349.916 184.744 344.94 179.898 344.895 173.633C344.895 173.145 344.739 170.494 344.795 170.029L334.475 170.029C334.119 172.136 334.341 176.483 334.709 178.712C335.699 184.733 338.716 189.446 344.005 192.651C349.204 195.789 354.87 196.388 360.748 195.456C369.822 194.026 376.668 186.929 377.837 177.88C378.527 172.568 377.069 167.911 373.351 163.985C373.139 163.752 372.917 163.53 372.493 163.098L377.091 163.098L377.091 163.087C377.091 159.239 377.091 155.502 377.091 151.753L352.499 151.753L352.499 163.098L352.51 163.098Z" fill="white"/>
<path d="M323.398 38.2308C323.387 42.2299 320.493 45.0737 316.445 45.0515C312.43 45.0404 309.624 42.1521 309.646 38.0753C309.668 33.9984 312.452 31.2879 316.6 31.299C320.648 31.3101 323.409 34.1206 323.398 38.2308V38.2308Z" fill="white"/>
<path d="M304.314 32.759C304.314 32.759 302.166 32.7479 300.818 32.759C294.361 32.8366 289.452 28.5672 289.396 22.4127C289.341 16.1916 294.261 11.2568 300.585 11.1792C306.908 11.1127 311.884 15.9587 311.929 22.2241C311.929 22.7121 312.085 25.3624 312.029 25.8282L322.349 25.8282C322.706 23.7212 322.483 19.3742 322.116 17.1452C321.125 11.1237 318.108 6.41079 312.82 3.20598C307.621 0.0677059 301.954 -0.531117 296.076 0.400384C287.003 1.8309 280.156 8.92806 278.987 17.9769C278.297 23.2887 279.755 27.9462 283.474 31.8718C283.685 32.1047 283.908 32.3265 284.331 32.759L279.733 32.759L279.733 32.7701C279.733 36.6181 279.733 40.3552 279.733 44.1034L304.325 44.1034L304.325 32.759L304.314 32.759Z" fill="white"/>
<path d="M278.822 57.0887C278.833 53.0896 281.728 50.2458 285.776 50.268C289.791 50.2791 292.597 53.1673 292.575 57.2442C292.553 61.3211 289.769 64.0316 285.621 64.0205C281.573 64.0094 278.811 61.1989 278.822 57.0887V57.0887Z" fill="white"/>
<path d="M297.907 62.5605C297.907 62.5605 300.055 62.5716 301.402 62.5605C307.859 62.4828 312.769 66.7522 312.825 72.9068C312.88 79.1279 307.959 84.0626 301.636 84.1403C295.313 84.2068 290.336 79.3608 290.292 73.0953C290.292 72.6074 290.136 69.957 290.191 69.4913L279.871 69.4913C279.515 71.5983 279.738 75.9453 280.105 78.1742C281.096 84.1957 284.113 88.9087 289.401 92.1135C294.6 95.2518 300.267 95.8506 306.145 94.9191C315.218 93.4885 322.065 86.3914 323.234 77.3425C323.924 72.0307 322.466 67.3732 318.747 63.4476C318.536 63.2147 318.313 62.9929 317.89 62.5605L322.488 62.5605L322.488 62.5494C322.488 58.7014 322.488 54.9643 322.488 51.2161L297.895 51.2161L297.895 62.5605L297.907 62.5605Z" fill="white"/>
<path d="M323.398 138.768C323.387 142.767 320.493 145.611 316.445 145.589C312.43 145.578 309.624 142.689 309.646 138.613C309.668 134.536 312.452 131.825 316.6 131.836C320.648 131.847 323.409 134.658 323.398 138.768V138.768Z" fill="white"/>
<path d="M304.314 133.296C304.314 133.296 302.166 133.285 300.818 133.296C294.361 133.374 289.452 129.105 289.396 122.95C289.341 116.729 294.261 111.794 300.585 111.717C306.908 111.65 311.884 116.496 311.929 122.761C311.929 123.249 312.085 125.9 312.029 126.366L322.349 126.366C322.706 124.259 322.483 119.912 322.116 117.683C321.125 111.661 318.108 106.948 312.82 103.743C307.621 100.605 301.954 100.006 296.076 100.938C287.003 102.368 280.156 109.465 278.987 118.514C278.297 123.826 279.755 128.484 283.474 132.409C283.685 132.642 283.908 132.864 284.331 133.296L279.733 133.296L279.733 133.307C279.733 137.155 279.733 140.893 279.733 144.641L304.325 144.641L304.325 133.296L304.314 133.296Z" fill="white"/>
<path d="M278.822 157.626C278.833 153.627 281.728 150.783 285.776 150.805C289.791 150.816 292.597 153.705 292.575 157.782C292.553 161.858 289.769 164.569 285.621 164.558C281.573 164.547 278.811 161.736 278.822 157.626V157.626Z" fill="white"/>
<path d="M297.907 163.098C297.907 163.098 300.055 163.109 301.402 163.098C307.859 163.02 312.769 167.29 312.825 173.444C312.88 179.665 307.959 184.6 301.636 184.678C295.313 184.744 290.336 179.898 290.292 173.633C290.292 173.145 290.136 170.494 290.191 170.029L279.871 170.029C279.515 172.136 279.738 176.483 280.105 178.712C281.096 184.733 284.113 189.446 289.401 192.651C294.6 195.789 300.267 196.388 306.145 195.456C315.218 194.026 322.065 186.929 323.234 177.88C323.924 172.568 322.466 167.911 318.747 163.985C318.536 163.752 318.313 163.53 317.89 163.098L322.488 163.098L322.488 163.087C322.488 159.239 322.488 155.502 322.488 151.753L297.895 151.753L297.895 163.098L297.907 163.098Z" fill="white"/>
<path d="M268.781 38.2308C268.77 42.2299 265.875 45.0737 261.827 45.0515C257.812 45.0404 255.007 42.1521 255.029 38.0753C255.051 33.9984 257.835 31.2879 261.983 31.299C266.031 31.3101 268.792 34.1206 268.781 38.2308V38.2308Z" fill="white"/>
<path d="M249.697 32.759C249.697 32.759 247.548 32.7479 246.201 32.759C239.744 32.8366 234.835 28.5672 234.779 22.4127C234.723 16.1916 239.644 11.2568 245.967 11.1792C252.291 11.1127 257.267 15.9587 257.312 22.2241C257.312 22.7121 257.468 25.3624 257.412 25.8282L267.732 25.8282C268.088 23.7212 267.866 19.3742 267.498 17.1452C266.508 11.1237 263.491 6.41079 258.202 3.20598C253.003 0.0677059 247.337 -0.531117 241.459 0.400384C232.385 1.8309 225.539 8.92806 224.37 17.9769C223.68 23.2887 225.138 27.9462 228.856 31.8718C229.068 32.1047 229.29 32.3265 229.714 32.759L225.116 32.759L225.116 32.7701C225.116 36.6181 225.116 40.3552 225.116 44.1034L249.708 44.1034L249.708 32.759L249.697 32.759Z" fill="white"/>
<path d="M224.203 57.0887C224.214 53.0896 227.109 50.2458 231.157 50.268C235.172 50.2791 237.978 53.1673 237.956 57.2442C237.933 61.3211 235.15 64.0316 231.002 64.0205C226.954 64.0094 224.192 61.1989 224.203 57.0887V57.0887Z" fill="white"/>
<path d="M243.287 62.5605C243.287 62.5605 245.436 62.5716 246.783 62.5605C253.24 62.4828 258.15 66.7522 258.205 72.9068C258.261 79.1279 253.34 84.0626 247.017 84.1403C240.693 84.2068 235.717 79.3608 235.673 73.0953C235.673 72.6074 235.517 69.957 235.572 69.4913L225.252 69.4913C224.896 71.5983 225.119 75.9453 225.486 78.1742C226.477 84.1957 229.494 88.9087 234.782 92.1135C239.981 95.2518 245.648 95.8506 251.526 94.9191C260.599 93.4885 267.446 86.3914 268.615 77.3425C269.305 72.0307 267.846 67.3732 264.128 63.4476C263.917 63.2147 263.694 62.9929 263.271 62.5605L267.869 62.5605L267.869 62.5494C267.869 58.7014 267.869 54.9643 267.869 51.2161L243.276 51.2161L243.276 62.5605L243.287 62.5605Z" fill="white"/>
<path d="M268.781 138.768C268.77 142.767 265.875 145.611 261.827 145.589C257.812 145.578 255.007 142.689 255.029 138.613C255.051 134.536 257.835 131.825 261.983 131.836C266.031 131.847 268.792 134.658 268.781 138.768V138.768Z" fill="white"/>
<path d="M249.697 133.296C249.697 133.296 247.548 133.285 246.201 133.296C239.744 133.374 234.835 129.105 234.779 122.95C234.723 116.729 239.644 111.794 245.967 111.717C252.291 111.65 257.267 116.496 257.312 122.761C257.312 123.249 257.468 125.9 257.412 126.366L267.732 126.366C268.088 124.259 267.866 119.912 267.498 117.683C266.508 111.661 263.491 106.948 258.202 103.743C253.003 100.605 247.337 100.006 241.459 100.938C232.385 102.368 225.539 109.465 224.37 118.514C223.68 123.826 225.138 128.484 228.856 132.409C229.068 132.642 229.29 132.864 229.714 133.296L225.116 133.296L225.116 133.307C225.116 137.155 225.116 140.893 225.116 144.641L249.708 144.641L249.708 133.296L249.697 133.296Z" fill="white"/>
<path d="M224.203 157.626C224.214 153.627 227.109 150.783 231.157 150.805C235.172 150.816 237.978 153.705 237.956 157.782C237.933 161.858 235.15 164.569 231.002 164.558C226.954 164.547 224.192 161.736 224.203 157.626V157.626Z" fill="white"/>
<path d="M243.287 163.098C243.287 163.098 245.436 163.109 246.783 163.098C253.24 163.02 258.15 167.29 258.205 173.444C258.261 179.665 253.34 184.6 247.017 184.678C240.693 184.744 235.717 179.898 235.673 173.633C235.673 173.145 235.517 170.494 235.572 170.029L225.252 170.029C224.896 172.136 225.119 176.483 225.486 178.712C226.477 184.733 229.494 189.446 234.782 192.651C239.981 195.789 245.648 196.388 251.526 195.456C260.599 194.026 267.446 186.929 268.615 177.88C269.305 172.568 267.846 167.911 264.128 163.985C263.917 163.752 263.694 163.53 263.271 163.098L267.869 163.098L267.869 163.087C267.869 159.239 267.869 155.502 267.869 151.753L243.276 151.753L243.276 163.098L243.287 163.098Z" fill="white"/>
<path d="M208.418 137.877C208.407 141.876 205.512 144.72 201.464 144.698C197.449 144.687 194.643 141.799 194.665 137.722C194.688 133.645 197.471 130.934 201.619 130.945C205.667 130.957 208.429 133.767 208.418 137.877V137.877Z" fill="white"/>
<path d="M189.334 132.405C189.334 132.405 187.185 132.394 185.838 132.405C179.381 132.483 174.471 128.214 174.416 122.059C174.36 115.838 179.281 110.903 185.604 110.826C191.928 110.759 196.904 115.605 196.949 121.871C196.949 122.359 197.104 125.009 197.049 125.475L207.369 125.475C207.725 123.368 207.502 119.021 207.135 116.792C206.144 110.77 203.127 106.057 197.839 102.852C192.64 99.7142 186.974 99.1154 181.095 100.047C172.022 101.477 165.175 108.575 164.007 117.623C163.316 122.935 164.775 127.593 168.493 131.518C168.705 131.751 168.927 131.973 169.35 132.405L164.752 132.405L164.752 132.417C164.752 136.265 164.752 140.002 164.752 143.75L189.345 143.75L189.345 132.405L189.334 132.405Z" fill="white"/>
<path d="M163.84 156.735C163.851 152.736 166.746 149.892 170.794 149.914C174.809 149.926 177.615 152.814 177.592 156.891C177.57 160.968 174.786 163.678 170.638 163.667C166.59 163.656 163.829 160.845 163.84 156.735V156.735Z" fill="white"/>
<path d="M182.924 162.207C182.924 162.207 185.073 162.218 186.42 162.207C192.877 162.129 197.786 166.399 197.842 172.553C197.898 178.774 192.977 183.709 186.654 183.787C180.33 183.853 175.354 179.007 175.309 172.742C175.309 172.254 175.153 169.604 175.209 169.138L164.889 169.138C164.533 171.245 164.755 175.592 165.123 177.821C166.114 183.842 169.131 188.555 174.419 191.76C179.618 194.898 185.284 195.497 191.162 194.566C200.236 193.135 207.082 186.038 208.251 176.989C208.942 171.677 207.483 167.02 203.765 163.094C203.553 162.861 203.331 162.639 202.908 162.207L207.505 162.207L207.505 162.196C207.505 158.348 207.505 154.611 207.505 150.863L182.913 150.863L182.913 162.207L182.924 162.207Z" fill="white"/>
<path d="M208.418 238.415C208.407 242.414 205.512 245.258 201.464 245.235C197.449 245.224 194.643 242.336 194.665 238.259C194.688 234.182 197.471 231.472 201.619 231.483C205.667 231.494 208.429 234.304 208.418 238.415V238.415Z" fill="white"/>
<path d="M189.334 232.943C189.334 232.943 187.185 232.932 185.838 232.943C179.381 233.02 174.471 228.751 174.416 222.596C174.36 216.375 179.281 211.441 185.604 211.363C191.928 211.296 196.904 216.143 196.949 222.408C196.949 222.896 197.104 225.546 197.049 226.012L207.369 226.012C207.725 223.905 207.502 219.558 207.135 217.329C206.144 211.308 203.127 206.595 197.839 203.39C192.64 200.252 186.974 199.653 181.095 200.584C172.022 202.015 165.175 209.112 164.007 218.161C163.316 223.473 164.775 228.13 168.493 232.056C168.705 232.289 168.927 232.51 169.35 232.943L164.752 232.943L164.752 232.954C164.752 236.802 164.752 240.539 164.752 244.287L189.345 244.287L189.345 232.943L189.334 232.943Z" fill="white"/>
<path d="M163.84 257.273C163.851 253.273 166.746 250.43 170.794 250.452C174.809 250.463 177.615 253.351 177.592 257.428C177.57 261.505 174.786 264.215 170.638 264.204C166.59 264.193 163.829 261.383 163.84 257.273V257.273Z" fill="white"/>
<path d="M182.924 262.744C182.924 262.744 185.073 262.755 186.42 262.744C192.877 262.667 197.786 266.936 197.842 273.091C197.898 279.312 192.977 284.246 186.654 284.324C180.33 284.391 175.354 279.545 175.309 273.279C175.309 272.791 175.153 270.141 175.209 269.675L164.889 269.675C164.533 271.782 164.755 276.129 165.123 278.358C166.114 284.38 169.131 289.093 174.419 292.297C179.618 295.436 185.284 296.034 191.162 295.103C200.236 293.672 207.082 286.575 208.251 277.526C208.942 272.215 207.483 267.557 203.765 263.631C203.553 263.399 203.331 263.177 202.908 262.744L207.505 262.744L207.505 262.733C207.505 258.885 207.505 255.148 207.505 251.4L182.913 251.4L182.913 262.744L182.924 262.744Z" fill="white"/>
<path d="M153.797 137.877C153.786 141.876 150.891 144.72 146.843 144.698C142.828 144.687 140.022 141.799 140.044 137.722C140.067 133.645 142.85 130.934 146.998 130.945C151.046 130.957 153.808 133.767 153.797 137.877V137.877Z" fill="white"/>
<path d="M134.713 132.405C134.713 132.405 132.564 132.394 131.217 132.405C124.76 132.483 119.85 128.214 119.795 122.059C119.739 115.838 124.66 110.903 130.983 110.826C137.307 110.759 142.283 115.605 142.327 121.871C142.327 122.359 142.483 125.009 142.428 125.475L152.748 125.475C153.104 123.368 152.881 119.021 152.514 116.792C151.523 110.77 148.506 106.057 143.218 102.852C138.019 99.7142 132.352 99.1154 126.474 100.047C117.401 101.477 110.554 108.575 109.385 117.623C108.695 122.935 110.154 127.593 113.872 131.518C114.083 131.751 114.306 131.973 114.729 132.405L110.131 132.405L110.131 132.417C110.131 136.265 110.131 140.002 110.131 143.75L134.724 143.75L134.724 132.405L134.713 132.405Z" fill="white"/>
<path d="M109.223 156.735C109.234 152.736 112.128 149.892 116.177 149.914C120.191 149.926 122.997 152.814 122.975 156.891C122.953 160.968 120.169 163.678 116.021 163.667C111.973 163.656 109.212 160.845 109.223 156.735V156.735Z" fill="white"/>
<path d="M128.307 162.207C128.307 162.207 130.456 162.218 131.803 162.207C138.26 162.129 143.169 166.399 143.225 172.553C143.281 178.774 138.36 183.709 132.036 183.787C125.713 183.853 120.737 179.007 120.692 172.742C120.692 172.254 120.536 169.604 120.592 169.138L110.272 169.138C109.916 171.245 110.138 175.592 110.506 177.821C111.496 183.842 114.513 188.555 119.801 191.76C125 194.898 130.667 195.497 136.545 194.566C145.618 193.135 152.465 186.038 153.634 176.989C154.324 171.677 152.866 167.02 149.148 163.094C148.936 162.861 148.713 162.639 148.29 162.207L152.888 162.207L152.888 162.196C152.888 158.348 152.888 154.611 152.888 150.863L128.296 150.863L128.296 162.207L128.307 162.207Z" fill="white"/>
<path d="M153.797 238.415C153.786 242.414 150.891 245.258 146.843 245.235C142.828 245.224 140.022 242.336 140.044 238.259C140.067 234.182 142.85 231.472 146.998 231.483C151.046 231.494 153.808 234.304 153.797 238.415V238.415Z" fill="white"/>
<path d="M134.713 232.943C134.713 232.943 132.564 232.932 131.217 232.943C124.76 233.02 119.85 228.751 119.795 222.596C119.739 216.375 124.66 211.441 130.983 211.363C137.307 211.296 142.283 216.143 142.327 222.408C142.327 222.896 142.483 225.546 142.428 226.012L152.748 226.012C153.104 223.905 152.881 219.558 152.514 217.329C151.523 211.308 148.506 206.595 143.218 203.39C138.019 200.252 132.352 199.653 126.474 200.584C117.401 202.015 110.554 209.112 109.385 218.161C108.695 223.473 110.154 228.13 113.872 232.056C114.083 232.289 114.306 232.51 114.729 232.943L110.131 232.943L110.131 232.954C110.131 236.802 110.131 240.539 110.131 244.287L134.724 244.287L134.724 232.943L134.713 232.943Z" fill="white"/>
<path d="M109.223 257.273C109.234 253.273 112.128 250.43 116.177 250.452C120.191 250.463 122.997 253.351 122.975 257.428C122.953 261.505 120.169 264.215 116.021 264.204C111.973 264.193 109.212 261.383 109.223 257.273V257.273Z" fill="white"/>
<path d="M128.307 262.744C128.307 262.744 130.456 262.755 131.803 262.744C138.26 262.667 143.169 266.936 143.225 273.091C143.281 279.312 138.36 284.246 132.036 284.324C125.713 284.391 120.737 279.545 120.692 273.279C120.692 272.791 120.536 270.141 120.592 269.675L110.272 269.675C109.916 271.782 110.138 276.129 110.506 278.358C111.496 284.38 114.513 289.093 119.801 292.297C125 295.436 130.667 296.034 136.545 295.103C145.618 293.672 152.465 286.575 153.634 277.526C154.324 272.215 152.866 267.557 149.148 263.631C148.936 263.399 148.713 263.177 148.29 262.744L152.888 262.744L152.888 262.733C152.888 258.885 152.888 255.148 152.888 251.4L128.296 251.4L128.296 262.744L128.307 262.744Z" fill="white"/>
<path d="M99.1953 137.877C99.1842 141.876 96.2895 144.72 92.2414 144.698C88.2266 144.687 85.4206 141.799 85.4428 137.722C85.465 133.645 88.2487 130.934 92.3967 130.945C96.4448 130.957 99.2064 133.767 99.1953 137.877V137.877Z" fill="white"/>
<path d="M80.111 132.405C80.111 132.405 77.9624 132.394 76.6153 132.405C70.1583 132.483 65.2487 128.214 65.193 122.059C65.1374 115.838 70.0581 110.903 76.3815 110.826C82.705 110.759 87.6814 115.605 87.7259 121.871C87.7259 122.359 87.8817 125.009 87.8261 125.475L98.1462 125.475C98.5025 123.368 98.2798 119.021 97.9124 116.792C96.9216 110.77 93.9046 106.057 88.6165 102.852C83.4175 99.7142 77.7509 99.1154 71.8727 100.047C62.7995 101.477 55.9528 108.575 54.7839 117.623C54.0936 122.935 55.552 127.593 59.2704 131.518C59.4819 131.751 59.7046 131.973 60.1276 132.405L55.5298 132.405L55.5298 132.417C55.5298 136.265 55.5298 140.002 55.5298 143.75L80.1222 143.75L80.1222 132.405L80.111 132.405Z" fill="white"/>
<path d="M54.6172 156.735C54.6283 152.736 57.523 149.892 61.5711 149.914C65.5859 149.926 68.3919 152.814 68.3697 156.891C68.3475 160.968 65.5638 163.678 61.4158 163.667C57.3677 163.656 54.6061 160.845 54.6172 156.735V156.735Z" fill="white"/>
<path d="M73.7015 162.207C73.7015 162.207 75.8501 162.218 77.1972 162.207C83.6542 162.129 88.5638 166.399 88.6195 172.553C88.6751 178.774 83.7544 183.709 77.431 183.787C71.1075 183.853 66.1311 179.007 66.0866 172.742C66.0866 172.254 65.9308 169.604 65.9864 169.138L55.6663 169.138C55.31 171.245 55.5327 175.592 55.9001 177.821C56.8909 183.842 59.9079 188.555 65.196 191.76C70.395 194.898 76.0616 195.497 81.9398 194.566C91.013 193.135 97.8597 186.038 99.0286 176.989C99.7189 171.677 98.2605 167.02 94.5421 163.094C94.3306 162.861 94.1079 162.639 93.6849 162.207L98.2827 162.207L98.2827 162.196C98.2827 158.348 98.2827 154.611 98.2827 150.863L73.6903 150.863L73.6903 162.207L73.7015 162.207Z" fill="white"/>
<path d="M99.1953 238.415C99.1842 242.414 96.2895 245.258 92.2414 245.235C88.2266 245.224 85.4206 242.336 85.4428 238.259C85.465 234.182 88.2487 231.472 92.3967 231.483C96.4448 231.494 99.2064 234.304 99.1953 238.415V238.415Z" fill="white"/>
<path d="M80.111 232.943C80.111 232.943 77.9624 232.932 76.6153 232.943C70.1583 233.02 65.2487 228.751 65.193 222.596C65.1374 216.375 70.0581 211.441 76.3815 211.363C82.705 211.296 87.6814 216.143 87.7259 222.408C87.7259 222.896 87.8817 225.546 87.8261 226.012L98.1462 226.012C98.5025 223.905 98.2798 219.558 97.9124 217.329C96.9216 211.308 93.9046 206.595 88.6165 203.39C83.4175 200.252 77.7509 199.653 71.8727 200.584C62.7995 202.015 55.9528 209.112 54.7839 218.161C54.0936 223.473 55.552 228.13 59.2704 232.056C59.4819 232.289 59.7046 232.51 60.1276 232.943L55.5298 232.943L55.5298 232.954C55.5298 236.802 55.5298 240.539 55.5298 244.287L80.1222 244.287L80.1222 232.943L80.111 232.943Z" fill="white"/>
<path d="M54.6172 257.273C54.6283 253.273 57.523 250.43 61.5711 250.452C65.5859 250.463 68.3919 253.351 68.3697 257.428C68.3475 261.505 65.5638 264.215 61.4158 264.204C57.3677 264.193 54.6061 261.383 54.6172 257.273V257.273Z" fill="white"/>
<path d="M73.7015 262.744C73.7015 262.744 75.8501 262.755 77.1972 262.744C83.6542 262.667 88.5638 266.936 88.6195 273.091C88.6751 279.312 83.7544 284.246 77.431 284.324C71.1075 284.391 66.1311 279.545 66.0866 273.279C66.0866 272.791 65.9308 270.141 65.9864 269.675L55.6663 269.675C55.31 271.782 55.5327 276.129 55.9001 278.358C56.8909 284.38 59.9079 289.093 65.196 292.297C70.395 295.436 76.0616 296.034 81.9398 295.103C91.013 293.672 97.8597 286.575 99.0286 277.526C99.7189 272.215 98.2605 267.557 94.5421 263.631C94.3306 263.399 94.1079 263.177 93.6849 262.744L98.2827 262.744L98.2827 262.733C98.2827 258.885 98.2827 255.148 98.2827 251.4L73.6903 251.4L73.6903 262.744L73.7015 262.744Z" fill="white"/>
<path d="M44.5781 137.877C44.567 141.876 41.6723 144.72 37.6242 144.698C33.6094 144.687 30.8034 141.799 30.8256 137.722C30.8478 133.645 33.6315 130.934 37.7795 130.945C41.8276 130.957 44.5892 133.767 44.5781 137.877V137.877Z" fill="white"/>
<path d="M25.4938 132.405C25.4938 132.405 23.3452 132.394 21.9981 132.405C15.5411 132.483 10.6315 128.214 10.5759 122.059C10.5202 115.838 15.4409 110.903 21.7643 110.826C28.0878 110.759 33.0642 115.605 33.1087 121.871C33.1087 122.359 33.2646 125.009 33.2089 125.475L43.529 125.475C43.8853 123.368 43.6626 119.021 43.2952 116.792C42.3044 110.77 39.2874 106.057 33.9993 102.852C28.8003 99.7142 23.1337 99.1154 17.2556 100.047C8.1823 101.477 1.33561 108.575 0.166663 117.623C-0.523573 122.935 0.934826 127.593 4.65319 131.518C4.86471 131.751 5.08737 131.973 5.51042 132.405L0.912564 132.405L0.912564 132.417C0.912563 136.265 0.912563 140.002 0.912563 143.75L25.505 143.75L25.505 132.405L25.4938 132.405Z" fill="white"/>
<path d="M3.29811e-05 156.735C0.0111235 152.736 2.9058 149.892 6.95391 149.914C10.9688 149.926 13.7747 152.814 13.7525 156.891C13.7303 160.968 10.9466 163.678 6.79865 163.667C2.75053 163.656 -0.0110576 160.845 3.29811e-05 156.735V156.735Z" fill="white"/>
<path d="M19.0843 162.207C19.0843 162.207 21.2329 162.218 22.58 162.207C29.037 162.129 33.9466 166.399 34.0023 172.553C34.0579 178.774 29.1372 183.709 22.8138 183.787C16.4903 183.853 11.514 179.007 11.4694 172.742C11.4694 172.254 11.3136 169.604 11.3692 169.138L1.0491 169.138C0.69285 171.245 0.915508 175.592 1.28289 177.821C2.27371 183.842 5.29071 188.555 10.5788 191.76C15.7778 194.898 21.4444 195.497 27.3226 194.566C36.3958 193.135 43.2425 186.038 44.4115 176.989C45.1017 171.677 43.6433 167.02 39.9249 163.094C39.7134 162.861 39.4908 162.639 39.0677 162.207L43.6656 162.207L43.6656 162.196C43.6656 158.348 43.6656 154.611 43.6656 150.863L19.0731 150.863L19.0731 162.207L19.0843 162.207Z" fill="white"/>
<path d="M44.5781 238.415C44.567 242.414 41.6723 245.258 37.6242 245.235C33.6094 245.224 30.8034 242.336 30.8256 238.259C30.8478 234.182 33.6315 231.472 37.7795 231.483C41.8276 231.494 44.5892 234.304 44.5781 238.415V238.415Z" fill="white"/>
<path d="M25.4938 232.943C25.4938 232.943 23.3452 232.932 21.9981 232.943C15.5411 233.02 10.6315 228.751 10.5759 222.596C10.5202 216.375 15.4409 211.441 21.7643 211.363C28.0878 211.296 33.0642 216.143 33.1087 222.408C33.1087 222.896 33.2646 225.546 33.2089 226.012L43.529 226.012C43.8853 223.905 43.6626 219.558 43.2952 217.329C42.3044 211.308 39.2874 206.595 33.9993 203.39C28.8003 200.252 23.1337 199.653 17.2556 200.584C8.1823 202.015 1.33561 209.112 0.166663 218.161C-0.523573 223.473 0.934826 228.13 4.65319 232.056C4.86471 232.289 5.08737 232.51 5.51042 232.943L0.912564 232.943L0.912564 232.954C0.912563 236.802 0.912563 240.539 0.912563 244.287L25.505 244.287L25.505 232.943L25.4938 232.943Z" fill="white"/>
<path d="M3.29811e-05 257.273C0.0111235 253.273 2.9058 250.43 6.95391 250.452C10.9688 250.463 13.7747 253.351 13.7525 257.428C13.7303 261.505 10.9466 264.215 6.79865 264.204C2.75053 264.193 -0.0110576 261.383 3.29811e-05 257.273V257.273Z" fill="white"/>
<path d="M19.0843 262.744C19.0843 262.744 21.2329 262.755 22.58 262.744C29.037 262.667 33.9466 266.936 34.0023 273.091C34.0579 279.312 29.1372 284.246 22.8138 284.324C16.4903 284.391 11.514 279.545 11.4694 273.279C11.4694 272.791 11.3136 270.141 11.3692 269.675L1.0491 269.675C0.69285 271.782 0.915508 276.129 1.28289 278.358C2.27371 284.38 5.29071 289.093 10.5788 292.297C15.7778 295.436 21.4444 296.034 27.3226 295.103C36.3958 293.672 43.2425 286.575 44.4115 277.526C45.1017 272.215 43.6433 267.557 39.9249 263.631C39.7134 263.399 39.4908 263.177 39.0677 262.744L43.6656 262.744L43.6656 262.733C43.6656 258.885 43.6656 255.148 43.6656 251.4L19.0731 251.4L19.0731 262.744L19.0843 262.744Z" fill="white"/>
</g>
</svg>
