<svg width="335" height="178" viewBox="0 0 335 178" fill="none" xmlns="http://www.w3.org/2000/svg">
<path d="M315.36 137.157C326.879 137.157 335.047 145.543 335 157.181C335 168.725 326.643 176.829 314.888 176.735C303.132 176.687 295.342 168.63 295.342 156.71C295.342 145.025 303.462 137.109 315.312 137.157H315.36Z" fill="#6EBE4A"/>
<path d="M149.125 0H181.749V175.18H149.125V0Z" fill="#0C2F4A"/>
<path d="M110.364 49.8966C121.883 49.8966 130.051 58.2833 130.004 69.9212C130.004 81.4647 121.647 89.5688 109.891 89.4746C98.1355 89.4275 90.3455 81.3705 90.3455 69.45C90.3455 57.7651 98.466 49.8495 110.316 49.8966H110.364Z" fill="#6EBE4A"/>
<path d="M94.5475 104.646C94.5475 104.646 94.5475 110.818 94.5475 114.682C94.7835 133.199 82.4611 147.287 64.7093 147.475C46.7686 147.664 32.5105 133.529 32.3216 115.342C32.1328 97.2016 46.1076 82.9253 64.1899 82.7839C65.6063 82.7839 73.2547 82.3128 74.5767 82.5012V52.912C68.4863 51.9225 55.9278 52.5351 49.5069 53.5716C32.1328 56.3986 18.5356 65.0681 9.28202 80.2396C0.170041 95.1756 -1.52961 111.431 1.16149 128.299C5.31618 154.307 25.7591 174.002 51.8675 177.347C67.2115 179.326 80.667 175.133 91.9508 164.484C92.6118 163.872 93.2727 163.212 94.5003 162.034V175.227C105.595 175.227 116.36 175.227 127.218 175.227V104.693H94.453L94.5475 104.646Z" fill="#0C2F4A"/>
<path d="M277.165 147.664V144.931C272.727 144.46 268.194 144.083 264.04 143.517C260.074 142.952 257.052 140.926 255.919 136.921C255.306 134.706 254.739 132.398 254.692 130.136C254.55 115.436 254.55 100.688 254.55 85.9879C254.55 85.7052 254.55 84.8099 254.55 84.8099C260.782 84.8099 267.392 84.7157 273.671 84.8571C276.268 84.9042 277.212 84.1503 277.165 81.5118C277.023 73.7847 277.023 66.1046 277.165 58.3775C277.165 55.8332 276.362 55.1265 273.86 55.1736C267.534 55.3149 261.207 55.2207 254.267 55.2207V9.51756C253.228 9.84738 232.738 20.7313 223.107 26.1497C222.21 26.668 221.502 28.3642 221.454 29.495C221.313 36.9866 221.265 44.5252 221.454 52.0168C221.454 54.0428 220.982 54.9851 219.377 55.1736C214.089 55.1736 209.085 55.2207 204.127 55.1265C201.625 55.0793 200.775 55.8332 200.823 58.3304C200.964 66.0575 200.964 73.7375 200.823 81.4647C200.823 84.1032 201.72 84.9042 204.316 84.8099H219.235C220.935 84.9042 221.454 85.8936 221.407 87.9668C221.313 99.4632 221.077 111.007 221.454 122.503C221.738 130.654 222.304 138.9 223.768 146.91C225.939 158.689 232.691 167.217 244.352 171.505C253.984 175.038 263.945 175.462 274.002 175.368C276.457 175.368 277.118 174.52 277.07 172.258C276.976 164.06 277.07 155.862 277.023 147.616L277.165 147.664Z" fill="#0C2F4A"/>
</svg>
