<svg width="60" height="60" viewBox="0 0 60 60" fill="none" xmlns="http://www.w3.org/2000/svg">
<path d="M60 30C60 46.5685 46.5685 60 30 60C13.4315 60 0 46.5685 0 30C0 13.4315 13.4315 0 30 0C46.5685 0 60 13.4315 60 30Z" fill="#60AA3E"/>
<path fill-rule="evenodd" clip-rule="evenodd" d="M33.4741 27.3347C31.8127 25.7007 29.817 23.7989 28.486 22.5462L29.514 21.4539C30.8496 22.7109 32.8539 24.6209 34.5259 26.2653C35.361 27.0866 36.1185 27.8469 36.6694 28.4282C36.9435 28.7175 37.175 28.9713 37.3412 29.1702C37.4229 29.268 37.5002 29.366 37.5608 29.4557C37.5905 29.4997 37.6268 29.557 37.6583 29.6215C37.6783 29.6623 37.75 29.8088 37.75 30C37.75 30.1912 37.6786 30.337 37.6587 30.3778C37.6271 30.4423 37.5905 30.5004 37.5608 30.5444C37.5002 30.6341 37.4229 30.732 37.3412 30.8298C37.175 31.0287 36.9435 31.2825 36.6694 31.5718C36.1185 32.1531 35.361 32.9134 34.5259 33.7347C32.8539 35.3792 30.8496 37.2891 29.514 38.5462L28.486 37.4539C29.817 36.2011 31.8127 34.2993 33.4741 32.6653C34.3056 31.8474 35.0482 31.1018 35.5806 30.54C35.7821 30.3273 35.9488 30.146 36.0768 30C35.9488 29.854 35.7821 29.6727 35.5806 29.46C35.0482 28.8982 34.3056 28.1526 33.4741 27.3347Z" fill="white"/>
<path fill-rule="evenodd" clip-rule="evenodd" d="M25 29.25H36V30.75H25V29.25Z" fill="white"/>
</svg>
