<svg width="38" height="38" viewBox="0 0 38 38" fill="none" xmlns="http://www.w3.org/2000/svg">
<path d="M11.2638 18.104C13.5908 18.104 15.2678 16.791 15.4368 14.841H13.4868C13.3308 15.777 12.4338 16.414 11.2638 16.414C9.79479 16.414 8.66379 15.4 8.66379 13.45C8.66379 11.5 9.79479 10.473 11.2638 10.473C12.4078 10.473 13.3048 11.11 13.4348 12.059H15.4758C15.2288 10.096 13.5518 8.796 11.2638 8.796C8.83279 8.796 6.70079 10.382 6.70079 13.45C6.70079 16.518 8.79379 18.104 11.2638 18.104Z" fill="white"/>
<path d="M16.638 18H22.735V16.31H18.601V8.9H16.638V18Z" fill="white"/>
<path d="M27.6683 18.104C30.3333 18.104 32.3093 16.128 32.3093 13.45C32.3093 10.772 30.3333 8.796 27.6683 8.796C24.9903 8.796 23.0143 10.772 23.0143 13.45C23.0143 16.128 24.9903 18.104 27.6683 18.104ZM27.6553 16.414C26.0953 16.414 24.9773 15.153 24.9773 13.45C24.9773 11.747 26.0953 10.473 27.6553 10.473C29.2153 10.473 30.3463 11.747 30.3463 13.45C30.3463 15.153 29.2153 16.414 27.6553 16.414Z" fill="white"/>
<path d="M15.7369 30.104C17.7779 30.104 19.1559 29.038 19.1559 27.335C19.1559 23.734 14.3719 25.268 14.3719 23.37C14.3719 22.837 14.8529 22.473 15.6199 22.473C16.4909 22.473 17.0369 22.941 17.1019 23.656H18.9609C18.9089 21.927 17.5829 20.796 15.6199 20.796C13.7739 20.796 12.4739 21.862 12.4739 23.37C12.4739 26.945 17.1929 25.58 17.1929 27.361C17.1929 28.05 16.6079 28.414 15.7369 28.414C14.7749 28.414 14.1639 27.829 14.0859 26.906H12.2139C12.2919 28.843 13.6699 30.104 15.7369 30.104Z" fill="white"/>
<path d="M20.326 30H26.657V28.31H22.276V26.191H25.656V24.501H22.276V22.577H26.514V20.9H20.326V30Z" fill="white"/>
<path fill-rule="evenodd" clip-rule="evenodd" d="M19 36C28.3888 36 36 28.3888 36 19C36 9.61116 28.3888 2 19 2C9.61116 2 2 9.61116 2 19C2 28.3888 9.61116 36 19 36ZM19 38C29.4934 38 38 29.4934 38 19C38 8.50659 29.4934 0 19 0C8.50659 0 0 8.50659 0 19C0 29.4934 8.50659 38 19 38Z" fill="white"/>
</svg>
