<svg width="459" height="97" viewBox="0 0 459 97" fill="none" xmlns="http://www.w3.org/2000/svg">
<path d="M0 1.26774V95.2215H46.9293C62.1041 95.2215 75.1712 85.5021 75.1712 69.444C75.1712 57.7527 69.1294 48.315 59.9965 45.2161C66.4598 41.6946 70.956 34.0882 70.956 24.7914C70.956 8.73333 57.4673 1.26774 43.8382 1.26774H0ZM20.0925 38.4548V19.2978H39.3419C45.6648 19.2978 51.8471 22.5376 51.8471 29.2989C51.8471 35.4968 46.3673 38.314 40.6065 38.4548H20.0925ZM20.0925 77.1914V54.2312H40.6065C49.1774 54.2312 55.9218 57.4709 55.9218 65.9225C55.9218 73.1064 50.0205 77.1914 42.4331 77.1914H20.0925Z" fill="#111111"/>
<path d="M133.288 0C105.328 0 82.9869 21.5516 82.9869 48.315C82.9869 74.9376 105.328 96.4892 133.288 96.4892C160.547 96.4892 182.606 74.9376 182.606 48.315C182.606 21.5516 160.547 0 133.288 0ZM133.288 19.2978C149.166 19.2978 162.233 32.3978 162.233 48.315C162.233 64.2322 149.166 77.3322 133.288 77.3322C116.709 77.3322 103.22 64.2322 103.22 48.315C103.22 32.3978 116.709 19.2978 133.288 19.2978Z" fill="#111111"/>
<path d="M241.451 0C213.49 0 191.15 21.5516 191.15 48.315C191.15 74.9376 213.49 96.4892 241.451 96.4892C268.71 96.4892 290.769 74.9376 290.769 48.315C290.769 21.5516 268.71 0 241.451 0ZM241.451 19.2978C257.329 19.2978 270.396 32.3978 270.396 48.315C270.396 64.2322 257.329 77.3322 241.451 77.3322C224.872 77.3322 211.383 64.2322 211.383 48.315C211.383 32.3978 224.872 19.2978 241.451 19.2978Z" fill="#111111"/>
<path d="M322.356 36.6236V1.26774H302.123V95.2215H322.356V63.8096L333.596 52.4L359.169 95.2215H382.633L348.209 37.7505L380.104 1.26774H353.548L322.356 36.6236Z" fill="#111111"/>
<path d="M389.59 84.5161C398.863 92.5451 411.79 96.4892 423.452 96.4892C440.453 96.4892 459 88.1785 459 69.3032C459 48.5968 440.313 43.6666 425.419 39.7226C415.864 37.1871 407.715 34.9333 407.715 28.5946C407.715 20.143 416.426 18.0301 423.452 18.0301C433.849 18.0301 446.214 22.8193 454.925 31.8344V11.6914C446.214 3.94409 434.411 0 423.452 0C406.45 0 388.606 8.87419 388.606 27.4677C388.606 50.4279 409.823 53.9494 424.857 58.5978C432.725 60.8516 438.908 63.1053 438.908 68.1763C438.908 76.0645 431.039 78.3182 424.576 78.3182C413.054 78.3182 398.863 73.6699 389.59 64.3731V84.5161Z" fill="#111111"/>
</svg>
