<svg width="137" height="193" viewBox="0 0 137 193" fill="none" xmlns="http://www.w3.org/2000/svg">
<mask id="mask0_428_347" style="mask-type:alpha" maskUnits="userSpaceOnUse" x="0" y="0" width="137" height="193">
<rect width="137" height="193" fill="#D9D9D9"/>
</mask>
<g mask="url(#mask0_428_347)">
<g opacity="0.09">
<path d="M-9.46677 152.112C-9.4562 148.304 -6.69951 145.596 -2.84436 145.617C0.979105 145.627 3.65131 148.378 3.63018 152.261C3.60906 156.143 0.957982 158.724 -2.99223 158.714C-6.84738 158.703 -9.47733 156.027 -9.46677 152.112V152.112Z" fill="#111111"/>
<path d="M8.7082 157.323C8.7082 157.323 10.7544 157.334 12.0373 157.323C18.1865 157.249 22.8621 161.315 22.9151 167.177C22.9681 173.101 18.2819 177.801 12.2599 177.875C6.2379 177.938 1.49873 173.323 1.45632 167.356C1.45632 166.891 1.30789 164.367 1.36091 163.924L-8.46729 163.924C-8.80656 165.93 -8.59451 170.07 -8.24464 172.193C-7.30105 177.927 -4.42787 182.416 0.608152 185.468C5.55936 188.456 10.9559 189.027 16.5538 188.14C25.1945 186.777 31.7149 180.018 32.8281 171.401C33.4854 166.342 32.0965 161.907 28.5554 158.168C28.354 157.947 28.1419 157.735 27.7391 157.323L32.1177 157.323L32.1177 157.313C32.1177 153.648 32.1177 150.089 32.1177 146.52L8.69759 146.52L8.69759 157.323L8.7082 157.323Z" fill="#111111"/>
<path d="M32.9843 134.153C32.9738 137.962 30.2171 140.67 26.3619 140.649C22.5385 140.638 19.8663 137.888 19.8874 134.005C19.9085 130.123 22.5596 127.541 26.5098 127.552C30.365 127.563 32.9949 130.239 32.9843 134.153V134.153Z" fill="#111111"/>
<path d="M14.8094 128.942C14.8094 128.942 12.7632 128.932 11.4803 128.942C5.33106 129.016 0.655512 124.95 0.6025 119.089C0.549488 113.165 5.23564 108.465 11.2577 108.391C17.2797 108.328 22.0188 112.943 22.0613 118.91C22.0613 119.374 22.2097 121.898 22.1567 122.342L31.9849 122.342C32.3241 120.335 32.1121 116.196 31.7622 114.073C30.8186 108.339 27.9454 103.85 22.9094 100.798C17.9582 97.8095 12.5617 97.2392 6.96379 98.1263C-1.67696 99.4886 -8.19729 106.247 -9.31051 114.865C-9.96785 119.924 -8.57896 124.359 -5.03785 128.098C-4.8364 128.319 -4.62436 128.531 -4.22148 128.942L-8.60017 128.942L-8.60017 128.953C-8.60016 132.618 -8.60016 136.177 -8.60016 139.746L14.82 139.746L14.82 128.942L14.8094 128.942Z" fill="#111111"/>
<path d="M-9.46677 56.3675C-9.4562 52.559 -6.69951 49.8507 -2.84436 49.8719C0.979105 49.8825 3.65131 52.633 3.63018 56.5156C3.60906 60.3981 0.957982 62.9794 -2.99223 62.9688C-6.84738 62.9583 -9.47733 60.2817 -9.46677 56.3675V56.3675Z" fill="#111111"/>
<path d="M8.7082 61.5784C8.7082 61.5784 10.7544 61.589 12.0373 61.5784C18.1865 61.5045 22.8621 65.5704 22.9151 71.4316C22.9681 77.3561 18.2819 82.0556 12.2599 82.1296C6.2379 82.1929 1.49873 77.5779 1.45632 71.6111C1.45632 71.1464 1.30789 68.6224 1.36091 68.1789L-8.46729 68.1789C-8.80656 70.1854 -8.59451 74.3252 -8.24464 76.4479C-7.30105 82.1824 -4.42787 86.6707 0.608152 89.7227C5.55936 92.7114 10.9559 93.2817 16.5538 92.3946C25.1945 91.0322 31.7149 84.2734 32.8281 75.6559C33.4854 70.5973 32.0965 66.1618 28.5554 62.4233C28.354 62.2015 28.1419 61.9903 27.7391 61.5784L32.1177 61.5784L32.1177 61.5679C32.1177 57.9033 32.1177 54.3443 32.1177 50.7748L8.69759 50.7748L8.69759 61.5784L8.7082 61.5784Z" fill="#111111"/>
<path d="M32.9843 38.4084C32.9738 42.2169 30.2171 44.9251 26.3619 44.904C22.5385 44.8934 19.8663 42.1428 19.8874 38.2603C19.9085 34.3778 22.5596 31.7965 26.5098 31.807C30.365 31.8176 32.9949 34.4941 32.9843 38.4084V38.4084Z" fill="#111111"/>
<path d="M14.8094 33.1975C14.8094 33.1975 12.7632 33.187 11.4803 33.1975C5.33106 33.2714 0.655512 29.2056 0.6025 23.3444C0.549488 17.4198 5.23564 12.7203 11.2577 12.6464C17.2797 12.583 22.0188 17.198 22.0613 23.1648C22.0613 23.6295 22.2097 26.1535 22.1567 26.5971L31.9849 26.5971C32.3241 24.5905 32.1121 20.4507 31.7622 18.328C30.8186 12.5936 27.9454 8.10527 22.9094 5.05322C17.9582 2.06454 12.5617 1.49426 6.96379 2.38136C-1.67696 3.7437 -8.19729 10.5026 -9.31051 19.1201C-9.96785 24.1787 -8.57896 28.6142 -5.03785 32.3527C-4.8364 32.5744 -4.62436 32.7856 -4.22148 33.1975L-8.60017 33.1975L-8.60017 33.2081C-8.60016 36.8726 -8.60016 40.4316 -8.60016 44.0011L14.82 44.0011L14.82 33.1975L14.8094 33.1975Z" fill="#111111"/>
<path d="M42.5313 152.112C42.5418 148.304 45.2985 145.596 49.1537 145.617C52.9772 145.627 55.6494 148.378 55.6282 152.261C55.6071 156.143 52.956 158.724 49.0058 158.714C45.1507 158.703 42.5207 156.027 42.5313 152.112V152.112Z" fill="#111111"/>
<path d="M60.7062 157.323C60.7062 157.323 62.7525 157.334 64.0353 157.323C70.1846 157.249 74.8601 161.315 74.9131 167.177C74.9661 173.101 70.28 177.801 64.258 177.875C58.2359 177.938 53.4968 173.323 53.4544 167.356C53.4544 166.891 53.3059 164.367 53.359 163.924L43.5308 163.924C43.1915 165.93 43.4035 170.07 43.7534 172.193C44.697 177.927 47.5702 182.416 52.6062 185.468C57.5574 188.456 62.9539 189.027 68.5518 188.14C77.1926 186.777 83.7129 180.018 84.8261 171.401C85.4835 166.342 84.0946 161.907 80.5535 158.168C80.352 157.947 80.14 157.735 79.7371 157.323L84.1158 157.323L84.1158 157.313C84.1158 153.648 84.1158 150.089 84.1158 146.52L60.6956 146.52L60.6956 157.323L60.7062 157.323Z" fill="#111111"/>
<path d="M84.9843 134.153C84.9738 137.962 82.2171 140.67 78.3619 140.649C74.5385 140.638 71.8663 137.888 71.8874 134.005C71.9085 130.123 74.5596 127.541 78.5098 127.552C82.365 127.563 84.9949 130.239 84.9843 134.153V134.153Z" fill="#111111"/>
<path d="M66.8094 128.942C66.8094 128.942 64.7632 128.932 63.4803 128.942C57.3311 129.016 52.6555 124.95 52.6025 119.089C52.5495 113.165 57.2356 108.465 63.2577 108.391C69.2797 108.328 74.0188 112.943 74.0613 118.91C74.0613 119.374 74.2097 121.898 74.1567 122.342L83.9849 122.342C84.3241 120.335 84.1121 116.196 83.7622 114.073C82.8186 108.339 79.9454 103.85 74.9094 100.798C69.9582 97.8095 64.5617 97.2392 58.9638 98.1263C50.323 99.4886 43.8027 106.247 42.6895 114.865C42.0322 119.924 43.421 124.359 46.9622 128.098C47.1636 128.319 47.3756 128.531 47.7785 128.942L43.3998 128.942L43.3998 128.953C43.3998 132.618 43.3998 136.177 43.3998 139.746L66.82 139.746L66.82 128.942L66.8094 128.942Z" fill="#111111"/>
<path d="M42.5313 56.3675C42.5418 52.559 45.2985 49.8507 49.1537 49.8719C52.9772 49.8825 55.6494 52.633 55.6282 56.5156C55.6071 60.3981 52.956 62.9794 49.0058 62.9688C45.1507 62.9583 42.5207 60.2817 42.5313 56.3675V56.3675Z" fill="#111111"/>
<path d="M60.7062 61.5784C60.7062 61.5784 62.7525 61.589 64.0353 61.5784C70.1846 61.5045 74.8601 65.5704 74.9131 71.4316C74.9661 77.3561 70.28 82.0556 64.258 82.1296C58.2359 82.1929 53.4968 77.5779 53.4544 71.6111C53.4544 71.1464 53.3059 68.6224 53.359 68.1789L43.5308 68.1789C43.1915 70.1854 43.4035 74.3252 43.7534 76.4479C44.697 82.1824 47.5702 86.6707 52.6062 89.7227C57.5574 92.7114 62.9539 93.2817 68.5518 92.3946C77.1926 91.0322 83.7129 84.2734 84.8261 75.6559C85.4835 70.5973 84.0946 66.1618 80.5535 62.4233C80.352 62.2015 80.14 61.9903 79.7371 61.5784L84.1158 61.5784L84.1158 61.5679C84.1158 57.9033 84.1158 54.3443 84.1158 50.7748L60.6956 50.7748L60.6956 61.5784L60.7062 61.5784Z" fill="#111111"/>
<path d="M84.9843 38.4084C84.9738 42.2169 82.2171 44.9251 78.3619 44.904C74.5385 44.8934 71.8663 42.1428 71.8874 38.2603C71.9085 34.3778 74.5596 31.7965 78.5098 31.807C82.365 31.8176 84.9949 34.4941 84.9843 38.4084V38.4084Z" fill="#111111"/>
<path d="M66.8094 33.1975C66.8094 33.1975 64.7632 33.187 63.4803 33.1975C57.3311 33.2714 52.6555 29.2056 52.6025 23.3444C52.5495 17.4198 57.2356 12.7203 63.2577 12.6464C69.2797 12.583 74.0188 17.198 74.0613 23.1648C74.0613 23.6295 74.2097 26.1535 74.1567 26.5971L83.9849 26.5971C84.3241 24.5905 84.1121 20.4507 83.7622 18.328C82.8186 12.5936 79.9454 8.10527 74.9094 5.05322C69.9582 2.06454 64.5617 1.49426 58.9638 2.38136C50.323 3.7437 43.8027 10.5026 42.6895 19.1201C42.0322 24.1787 43.421 28.6142 46.9622 32.3527C47.1636 32.5744 47.3756 32.7856 47.7785 33.1975L43.3998 33.1975L43.3998 33.2081C43.3998 36.8726 43.3998 40.4316 43.3998 44.0011L66.82 44.0011L66.82 33.1975L66.8094 33.1975Z" fill="#111111"/>
<path d="M94.5469 152.112C94.5575 148.304 97.3142 145.596 101.169 145.617C104.993 145.627 107.665 148.378 107.644 152.261C107.623 156.143 104.972 158.724 101.021 158.714C97.1663 158.703 94.5363 156.027 94.5469 152.112V152.112Z" fill="#111111"/>
<path d="M112.722 157.323C112.722 157.323 114.768 157.334 116.051 157.323C122.2 157.249 126.876 161.315 126.929 167.177C126.982 173.101 122.296 177.801 116.274 177.875C110.252 177.938 105.512 173.323 105.47 167.356C105.47 166.891 105.322 164.367 105.375 163.924L95.5464 163.924C95.2071 165.93 95.4192 170.07 95.769 172.193C96.7126 177.927 99.5858 182.416 104.622 185.468C109.573 188.456 114.97 189.027 120.567 188.14C129.208 186.777 135.729 180.018 136.842 171.401C137.499 166.342 136.11 161.907 132.569 158.168C132.368 157.947 132.156 157.735 131.753 157.323L136.131 157.323L136.131 157.313C136.131 153.648 136.131 150.089 136.131 146.52L112.711 146.52L112.711 157.323L112.722 157.323Z" fill="#111111"/>
<path d="M136.998 134.153C136.987 137.962 134.231 140.67 130.376 140.649C126.552 140.638 123.88 137.888 123.901 134.005C123.922 130.123 126.573 127.541 130.523 127.552C134.379 127.563 137.009 130.239 136.998 134.153V134.153Z" fill="#111111"/>
<path d="M118.823 128.942C118.823 128.942 116.777 128.932 115.494 128.942C109.345 129.016 104.669 124.95 104.616 119.089C104.563 113.165 109.249 108.465 115.271 108.391C121.293 108.328 126.033 112.943 126.075 118.91C126.075 119.374 126.223 121.898 126.17 122.342L135.999 122.342C136.338 120.335 136.126 116.196 135.776 114.073C134.832 108.339 131.959 103.85 126.923 100.798C121.972 97.8095 116.575 97.2392 110.977 98.1263C102.337 99.4886 95.8164 106.247 94.7032 114.865C94.0458 119.924 95.4347 124.359 98.9758 128.098C99.1773 128.319 99.3893 128.531 99.7922 128.942L95.4135 128.942L95.4135 128.953C95.4135 132.618 95.4135 136.177 95.4135 139.746L118.834 139.746L118.834 128.942L118.823 128.942Z" fill="#111111"/>
<path d="M94.5469 56.3675C94.5575 52.559 97.3142 49.8507 101.169 49.8719C104.993 49.8825 107.665 52.633 107.644 56.5156C107.623 60.3981 104.972 62.9794 101.021 62.9688C97.1663 62.9583 94.5363 60.2817 94.5469 56.3675V56.3675Z" fill="#111111"/>
<path d="M112.722 61.5784C112.722 61.5784 114.768 61.589 116.051 61.5784C122.2 61.5045 126.876 65.5704 126.929 71.4316C126.982 77.3561 122.296 82.0556 116.274 82.1296C110.252 82.1929 105.512 77.5779 105.47 71.6111C105.47 71.1464 105.322 68.6224 105.375 68.1789L95.5464 68.1789C95.2071 70.1854 95.4192 74.3252 95.769 76.4479C96.7126 82.1824 99.5858 86.6707 104.622 89.7227C109.573 92.7114 114.97 93.2817 120.567 92.3946C129.208 91.0322 135.729 84.2734 136.842 75.6559C137.499 70.5973 136.11 66.1618 132.569 62.4233C132.368 62.2015 132.156 61.9903 131.753 61.5784L136.131 61.5784L136.131 61.5679C136.131 57.9033 136.131 54.3443 136.131 50.7748L112.711 50.7748L112.711 61.5784L112.722 61.5784Z" fill="#111111"/>
<path d="M136.998 38.4084C136.987 42.2169 134.231 44.9251 130.376 44.904C126.552 44.8934 123.88 42.1428 123.901 38.2603C123.922 34.3778 126.573 31.7965 130.523 31.807C134.379 31.8176 137.009 34.4941 136.998 38.4084V38.4084Z" fill="#111111"/>
<path d="M118.823 33.1975C118.823 33.1975 116.777 33.187 115.494 33.1975C109.345 33.2714 104.669 29.2056 104.616 23.3444C104.563 17.4198 109.249 12.7203 115.271 12.6464C121.293 12.583 126.033 17.198 126.075 23.1648C126.075 23.6295 126.223 26.1535 126.17 26.5971L135.999 26.5971C136.338 24.5905 136.126 20.4507 135.776 18.328C134.832 12.5936 131.959 8.10527 126.923 5.05322C121.972 2.06454 116.575 1.49426 110.977 2.38136C102.337 3.7437 95.8164 10.5026 94.7032 19.1201C94.0458 24.1787 95.4347 28.6142 98.9758 32.3527C99.1773 32.5744 99.3893 32.7856 99.7922 33.1975L95.4135 33.1975L95.4135 33.2081C95.4135 36.8726 95.4135 40.4316 95.4135 44.0011L118.834 44.0011L118.834 33.1975L118.823 33.1975Z" fill="#111111"/>
</g>
</g>
</svg>
