<svg width="13" height="18" viewBox="0 0 13 18" fill="none" xmlns="http://www.w3.org/2000/svg">
<path fill-rule="evenodd" clip-rule="evenodd" d="M8.47409 6.33448C6.81273 4.70048 4.81703 2.79867 3.48598 1.54591L4.51402 0.453613C5.84964 1.71066 7.85394 3.62061 9.52591 5.26505C10.361 6.0864 11.1185 6.84669 11.6694 7.42798C11.9435 7.71725 12.175 7.97109 12.3412 8.16996C12.4229 8.26778 12.5002 8.36571 12.5608 8.45542C12.5905 8.49941 12.6268 8.55671 12.6583 8.62122L12.6587 8.62196C12.6786 8.66276 12.75 8.80859 12.75 8.99976C12.75 9.19094 12.6786 9.33677 12.6587 9.37756L12.6583 9.3783C12.6268 9.44281 12.5905 9.50011 12.5608 9.54411C12.5002 9.63381 12.4229 9.73174 12.3412 9.82957C12.175 10.0284 11.9435 10.2823 11.6694 10.5715C11.1185 11.1528 10.361 11.9131 9.52591 12.7345C7.85393 14.3789 5.84963 16.2889 4.51402 17.5459L3.48598 16.4536C4.81703 15.2009 6.81273 13.299 8.47409 11.665C9.30565 10.8472 10.0482 10.1016 10.5806 9.53975C10.7821 9.3271 10.9488 9.1458 11.0768 8.99976C10.9488 8.85373 10.7821 8.67243 10.5806 8.45978C10.0482 7.89794 9.30565 7.15234 8.47409 6.33448Z" fill="white"/>
<path fill-rule="evenodd" clip-rule="evenodd" d="M0 8.25H11V9.75H0V8.25Z" fill="white"/>
</svg>
