<svg width="87" height="87" viewBox="0 0 87 87" fill="none" xmlns="http://www.w3.org/2000/svg">
<circle opacity="0.14" cx="43.5" cy="43.5" r="43.5" fill="white"/>
<path fill-rule="evenodd" clip-rule="evenodd" d="M43.0008 26.001C33.6282 26.001 26 33.7344 26 43.2364C26 52.7385 33.6277 60.4719 43.0008 60.4719V60.4722H43.0028C44.3941 60.4702 45.7766 60.2845 47.1239 59.9412C49.1932 61.2553 52.0268 62.0905 55.8006 61.9922C56.1722 61.9823 56.5243 61.8232 56.78 61.5497C57.0353 61.2762 57.1731 60.9107 57.1623 60.5342C57.1516 60.1575 56.9937 59.8008 56.7232 59.5426C55.0349 57.9314 54.4917 56.8329 54.3304 56.2937C54.3042 56.2102 54.2988 56.1625 54.2881 56.1039C57.9069 52.8434 59.996 48.1655 59.9997 43.2373H60V43.237V43.2366V43.2363C60 33.7339 52.3723 26 43.0001 26L43.0008 26.001ZM43.0008 28.8368C50.8617 28.8368 57.2036 35.2669 57.2045 43.2364C57.2011 47.5308 55.3089 51.5973 52.0422 54.3311V54.3308C51.8822 54.4647 51.7539 54.6329 51.6659 54.8233C51.6659 54.8233 51.5043 55.2355 51.4723 55.6293C51.4408 56.023 51.4777 56.5299 51.6541 57.1165C51.8167 57.6618 52.1003 58.276 52.5424 58.9586C50.6368 58.6514 49.2328 58.0239 48.1864 57.2633C47.8367 57.0089 47.3908 56.9319 46.9779 57.0549C45.6864 57.4391 44.3472 57.6353 43.0013 57.6374H43.0003C35.1398 57.6363 28.7983 51.2066 28.7983 43.2369C28.7983 35.2671 35.1409 28.8364 43.002 28.8364L43.0008 28.8368ZM35.8704 41.8264C35.4175 41.8247 34.9824 42.0052 34.6609 42.3288C34.3394 42.6524 34.1579 43.0922 34.1562 43.5514C34.1546 44.0129 34.3343 44.4561 34.6562 44.7824C34.978 45.1087 35.4151 45.2913 35.8704 45.2893C36.3233 45.2879 36.7571 45.1036 37.0762 44.778C37.3954 44.452 37.5738 44.0109 37.5718 43.5514C37.5705 43.0946 37.3907 42.6565 37.0719 42.3333C36.753 42.0104 36.3213 41.8278 35.8704 41.8264L35.8704 41.8264ZM43.0072 41.8264C42.554 41.8247 42.1189 42.0052 41.7974 42.3288C41.4759 42.6524 41.2944 43.0922 41.2931 43.5514C41.2911 44.0129 41.4712 44.4561 41.793 44.7824C42.1149 45.1087 42.552 45.2913 43.0072 45.2893C43.4601 45.2879 43.8939 45.1036 44.2131 44.778C44.5323 44.452 44.7103 44.0109 44.7087 43.5514C44.707 43.0946 44.5272 42.6565 44.2087 42.3333C43.8899 42.0104 43.4578 41.8278 43.0073 41.8264L43.0072 41.8264ZM50.1441 41.8264H50.1438C49.6909 41.8247 49.2558 42.0052 48.9343 42.3288C48.6128 42.6524 48.4313 43.0922 48.4296 43.5514C48.428 44.0129 48.608 44.4561 48.9299 44.7824C49.2518 45.1087 49.6885 45.2913 50.1438 45.2893C50.5967 45.2879 51.0307 45.1036 51.3496 44.778C51.6688 44.452 51.8472 44.0109 51.8455 43.5514C51.8439 43.0946 51.6641 42.6565 51.3453 42.3333C51.0264 42.0104 50.5947 41.8278 50.1438 41.8264L50.1441 41.8264Z" fill="white"/>
</svg>
