<svg width="181" height="184" viewBox="0 0 181 184" fill="none" xmlns="http://www.w3.org/2000/svg">
<path d="M2.54459 91.8664C2.58908 91.377 2.78929 90.9543 3.16747 90.6429C3.54565 90.3092 3.99057 90.1757 4.47998 90.2202C4.9694 90.2647 5.39207 90.4649 5.70351 90.8431C6.0372 91.2213 6.17068 91.6662 6.12619 92.1556C6.08169 92.645 5.88148 93.0677 5.5033 93.3791C5.12512 93.7128 4.6802 93.8463 4.19079 93.8018C3.70138 93.7573 3.2787 93.5571 2.96726 93.1789C2.65582 92.8007 2.50009 92.3558 2.54459 91.8664ZM3.07849 91.9109C3.05624 92.2668 3.14523 92.556 3.38993 92.823C3.61239 93.0899 3.90159 93.2234 4.23528 93.2457C4.59121 93.2679 4.88041 93.1789 5.14736 92.9342C5.41431 92.7118 5.54779 92.4226 5.57004 92.0889C5.59228 91.7552 5.5033 91.4437 5.28084 91.1768C5.05838 90.9098 4.76918 90.7764 4.41325 90.7319C4.07956 90.7096 3.76811 90.7986 3.50116 91.0211C3.25646 91.2658 3.12298 91.555 3.07849 91.9109Z" fill="black"/>
<path d="M0.787109 71.9571L2.54454 65.1943L4.36871 65.6615L3.16743 70.3109L5.28079 70.8671L6.23737 67.1742L8.08378 67.6636L7.12721 71.3565L9.44079 71.9571L10.6866 67.1742L12.533 67.6636L10.7311 74.5376L0.787109 71.9571Z" fill="black"/>
<path d="M3.2793 62.7911L4.12464 60.611L11.9552 59.2095L5.61512 56.7625L6.41598 54.7158L16.004 58.4309L15.1586 60.611L7.32806 62.0125L13.6682 64.4596L12.8673 66.5062L3.2793 62.7911Z" fill="black"/>
<path d="M7.2168 52.8919L8.26236 50.912L16.0929 52.2245L10.6649 46.4406L11.7105 44.4829L19.0294 52.6027L18.0283 54.4713L7.2168 52.8919Z" fill="black"/>
<path d="M12.666 43.1255L13.8673 41.2568L22.4987 46.8183L21.2974 48.687L12.666 43.1255Z" fill="black"/>
<path d="M28.2377 39.0545L26.903 40.812L24.7229 39.4772C24.1222 39.099 23.4326 39.2103 23.0099 39.7442L21.7864 41.3236L24.7451 43.5927L23.3881 45.3501L15.2461 39.1213L17.8711 35.6954C19.2059 33.9602 21.0523 33.76 22.5428 34.9168C23.3659 35.5397 23.6106 36.3628 23.4549 37.2526C24.2112 37.0079 25.0566 37.0969 25.8129 37.5863L28.2377 39.0545ZM20.2737 40.1891L21.4972 38.6096C22.1201 37.8088 21.8531 37.0524 21.2525 36.5852C20.6741 36.1403 19.8733 36.0958 19.2504 36.8967L18.0268 38.4761L20.2737 40.1891Z" fill="black"/>
<path d="M24.8575 35.0279C22.6997 32.9145 22.6552 29.7556 24.7685 27.5978C26.8819 25.4399 30.0186 25.3954 32.1987 27.5088C34.3788 29.6221 34.401 32.7811 32.3099 34.9389C30.1743 37.0968 27.0154 37.1413 24.8575 35.0279ZM30.6415 29.0882C29.2622 27.7535 27.3491 27.6645 26.1033 28.9103C24.8798 30.1783 25.0133 32.0692 26.3925 33.4262C27.7717 34.761 29.6627 34.8499 30.9084 33.6042C32.1542 32.3584 32.0207 30.4452 30.6415 29.0882Z" fill="black"/>
<path d="M30.4199 22.1926L32.3998 20.6798L39.1403 24.5506L37.1604 17.0315L39.1181 15.541L45.3692 23.7053L43.7453 24.9511L39.9412 19.968L41.6986 26.5305L40.4084 27.5316L34.5132 24.1502L38.3172 29.1333L36.6933 30.3791L30.4199 22.1926Z" fill="black"/>
<path d="M41.584 14.028L47.6349 10.5132L48.5915 12.1594L44.4537 14.5619L45.5438 16.4306L48.8362 14.5175L49.7927 16.1637L46.5003 18.0768L47.7016 20.1457L51.9728 17.6541L52.9294 19.3003L46.7673 22.9264L41.584 14.028Z" fill="black"/>
<path d="M49.8613 9.35611L52.0192 8.42178L58.515 13.0044L55.7787 6.77558L57.8031 5.88574L61.9186 15.2958L59.7608 16.2301L53.265 11.6474L56.0012 17.8763L53.9768 18.7661L49.8613 9.35611Z" fill="black"/>
<path d="M63.1208 6.10816L60.2065 6.998L59.6504 5.19608L67.57 2.74902L68.1261 4.55095L65.2119 5.44078L67.6812 13.4493L65.5678 14.0945L63.1208 6.10816Z" fill="black"/>
<path d="M80.0494 4.17353C80.5388 4.10679 80.9837 4.24026 81.3841 4.55171C81.7846 4.86315 82.007 5.26358 82.0515 5.75299C82.1182 6.2424 81.9848 6.68732 81.6733 7.08775C81.3619 7.48817 80.9615 7.71063 80.472 7.75513C79.9826 7.82186 79.5377 7.68839 79.1373 7.37694C78.7369 7.0655 78.5144 6.66507 78.4699 6.17566C78.4032 5.68625 78.5366 5.24133 78.8481 4.84091C79.1595 4.46272 79.56 4.24027 80.0494 4.17353ZM80.1161 4.70743C79.7602 4.75192 79.4932 4.90764 79.2708 5.17459C79.0483 5.44155 78.9816 5.75299 79.0038 6.08668C79.0483 6.44261 79.204 6.70957 79.471 6.93203C79.7379 7.15448 80.0494 7.22122 80.3831 7.19898C80.7167 7.15448 81.006 6.99876 81.2284 6.73181C81.4509 6.46486 81.5399 6.15342 81.4954 5.79748C81.4509 5.46379 81.2952 5.17459 81.0282 4.95214C80.7835 4.75192 80.472 4.66294 80.1161 4.70743Z" fill="black"/>
<path d="M91.9733 4.90729C92.218 1.45917 94.7318 -0.164788 97.4681 0.0131801C100.049 0.191148 101.828 1.79286 101.962 4.01745L99.6704 3.86173C99.6037 2.77168 98.6471 1.99307 97.3569 1.90409C95.7107 1.79286 94.3537 2.86066 94.1979 5.06301C94.0422 7.26536 95.2435 8.48889 96.8897 8.60012C98.2022 8.6891 99.27 8.04397 99.5147 6.99841L101.717 7.15413C101.383 9.33423 99.3812 10.6912 96.7562 10.5133C93.9755 10.3131 91.7286 8.37766 91.9733 4.90729Z" fill="black"/>
<path d="M104.408 0.858398L111.282 2.14866L110.927 4.01732L106.21 3.14973L105.81 5.28534L109.57 5.97497L109.214 7.84363L105.476 7.13176L105.031 9.48983L109.903 10.4019L109.547 12.2706L102.518 10.9581L104.408 0.858398Z" fill="black"/>
<path d="M118.312 14.8289L116.199 14.1838L116.666 11.67C116.799 10.9804 116.466 10.3575 115.798 10.1573L113.885 9.57886L112.795 13.1382L110.682 12.4931L113.663 2.68262L117.8 3.92839C119.891 4.55128 120.715 6.21972 120.181 8.02165C119.891 9.00047 119.202 9.53437 118.312 9.69009C118.824 10.313 119.002 11.1361 118.846 12.0037L118.312 14.8289ZM114.441 7.79919L116.354 8.37758C117.333 8.66678 117.934 8.15512 118.156 7.44325C118.379 6.73138 118.134 5.97502 117.177 5.68582L115.264 5.10743L114.441 7.79919Z" fill="black"/>
<path d="M124.319 8.24381L121.516 7.08702L122.251 5.32959L129.903 8.51076L129.147 10.2459L126.344 9.08916L123.118 16.8307L121.094 15.9854L124.319 8.24381Z" fill="black"/>
<path d="M131.127 9.20117L133.107 10.2022L128.48 19.3676L126.5 18.3665L131.127 9.20117Z" fill="black"/>
<path d="M135.309 11.3369L141.316 14.9185L140.337 16.5425L136.244 14.0732L135.065 16.0308L138.335 17.9885L137.356 19.6347L134.086 17.677L131.928 21.2586L130.037 20.1241L135.309 11.3369Z" fill="black"/>
<path d="M142.961 16.1191L144.763 17.4094L138.823 25.7961L137.021 24.5059L142.961 16.1191Z" fill="black"/>
<path d="M143.226 22.4818C145.473 19.8346 148.454 20.0348 150.567 21.8145C152.547 23.4829 153.037 25.841 151.813 27.7096L150.056 26.2192C150.634 25.3071 150.323 24.1058 149.344 23.2604C148.076 22.1926 146.363 22.2371 144.939 23.9278C143.515 25.6185 143.738 27.3092 145.006 28.377C146.007 29.2224 147.253 29.3336 148.076 28.644L149.767 30.0677C148.187 31.6249 145.785 31.5359 143.782 29.823C141.625 28.0211 140.979 25.1291 143.226 22.4818Z" fill="black"/>
<path d="M153.571 36.1181L151.035 33.4041L148.833 34.3384L147.275 32.67L157.464 28.5322L158.888 30.0672L154.016 39.9222L152.459 38.2537L153.571 36.1181ZM154.483 34.3829L156.107 31.2462L152.837 32.6255L154.483 34.3829Z" fill="black"/>
<path d="M161.625 36.1853L159.779 33.7828L161.269 32.626L166.319 39.1885L164.829 40.3453L162.982 37.9428L156.331 43.0593L154.996 41.3241L161.625 36.1853Z" fill="black"/>
<path d="M167.056 40.3896L168.279 42.2361L159.692 47.9088L158.469 46.0624L167.056 40.3896Z" fill="black"/>
<path d="M165.007 46.4407C167.676 45.0169 170.702 45.929 172.125 48.5985C173.549 51.2458 172.637 54.2713 169.967 55.695C167.298 57.1187 164.272 56.2067 162.871 53.5594C161.425 50.8899 162.337 47.8644 165.007 46.4407ZM168.922 53.7374C170.613 52.8253 171.28 51.0234 170.457 49.4661C169.634 47.9089 167.765 47.4862 166.074 48.3761C164.384 49.2882 163.716 51.0678 164.539 52.6251C165.362 54.1823 167.209 54.6494 168.922 53.7374Z" fill="black"/>
<path d="M175.463 55.5615L176.286 57.7639L171.369 64.015L177.732 61.6347L178.51 63.7035L168.878 67.3074L168.055 65.105L172.971 58.8539L166.609 61.2342L165.83 59.1654L175.463 55.5615Z" fill="black"/>
<path d="M172.547 67.441L173.059 69.4876C172.058 69.8213 171.591 70.6444 171.858 71.7122C172.102 72.6688 172.658 73.2027 173.415 73.0247C175.372 72.5353 172.569 67.7302 176.485 66.7514C178.131 66.3287 179.666 67.4632 180.178 69.4876C180.711 71.6455 179.844 73.4029 177.953 73.9368L177.441 71.8902C178.198 71.6232 178.576 70.8891 178.331 69.9325C178.131 69.0872 177.597 68.6645 176.996 68.8202C174.927 69.3319 177.908 74.1593 173.971 75.1381C172.102 75.6053 170.567 74.3817 170.011 72.1571C169.455 69.9103 170.456 68.0416 172.547 67.441Z" fill="black"/>
<path d="M179.022 90.4877C179.044 90.9771 178.911 91.422 178.577 91.8002C178.244 92.1784 177.843 92.3786 177.332 92.4009C176.842 92.4231 176.397 92.2896 176.019 91.9559C175.641 91.6222 175.441 91.2218 175.418 90.7324C175.396 90.243 175.53 89.7981 175.863 89.4199C176.197 89.0417 176.597 88.8415 177.087 88.8193C177.576 88.797 178.021 88.9305 178.399 89.2642C178.778 89.5756 178.978 89.9761 179.022 90.4877ZM178.466 90.5322C178.444 90.1763 178.31 89.8871 178.043 89.6646C177.776 89.4421 177.487 89.3309 177.131 89.3532C176.775 89.3754 176.486 89.5089 176.264 89.7758C176.041 90.0428 175.93 90.332 175.952 90.6879C175.975 91.0216 176.108 91.3108 176.375 91.5555C176.642 91.778 176.931 91.8892 177.287 91.867C177.621 91.8447 177.91 91.7112 178.155 91.4443C178.399 91.1773 178.488 90.8659 178.466 90.5322Z" fill="black"/>
<path d="M180.938 111.465L179.226 118.25L177.379 117.783L178.558 113.133L176.445 112.6L175.51 116.292L173.664 115.825L174.598 112.132L172.285 111.554L171.061 116.359L169.215 115.892L170.972 108.951L180.938 111.465Z" fill="black"/>
<path d="M178.49 120.653L177.644 122.856L169.814 124.302L176.176 126.726L175.397 128.795L165.787 125.147L166.632 122.945L174.463 121.499L168.101 119.074L168.879 117.005L178.49 120.653Z" fill="black"/>
<path d="M174.617 130.574L173.572 132.554L165.741 131.286L171.214 137.047L170.19 139.005L162.805 130.952L163.806 129.061L174.617 130.574Z" fill="black"/>
<path d="M169.236 140.363L168.057 142.231L159.381 136.714L160.56 134.846L169.236 140.363Z" fill="black"/>
<path d="M153.684 144.544L155.018 142.787L157.221 144.099C157.821 144.477 158.511 144.366 158.934 143.81L160.135 142.208L157.154 139.962L158.489 138.204L166.675 144.411L164.072 147.859C162.76 149.594 160.914 149.816 159.401 148.682C158.578 148.059 158.311 147.236 158.466 146.368C157.71 146.613 156.865 146.524 156.108 146.057L153.684 144.544ZM161.625 143.365L160.424 144.967C159.823 145.768 160.09 146.524 160.691 146.991C161.269 147.436 162.07 147.481 162.671 146.68L163.872 145.078L161.625 143.365Z" fill="black"/>
<path d="M157.089 148.549C159.269 150.64 159.336 153.799 157.222 155.979C155.131 158.137 151.972 158.204 149.792 156.113C147.612 154.022 147.545 150.863 149.636 148.683C151.772 146.503 154.909 146.458 157.089 148.549ZM151.349 154.511C152.728 155.846 154.664 155.935 155.887 154.667C157.111 153.399 156.955 151.486 155.576 150.151C154.197 148.816 152.284 148.727 151.06 149.995C149.814 151.263 149.97 153.176 151.349 154.511Z" fill="black"/>
<path d="M151.617 161.407L149.66 162.92L142.897 159.093L144.921 166.612L142.964 168.125L136.668 160.005L138.292 158.737L142.14 163.698L140.339 157.158L141.629 156.157L147.546 159.516L143.698 154.555L145.322 153.287L151.617 161.407Z" fill="black"/>
<path d="M140.493 169.638L134.464 173.198L133.508 171.574L137.623 169.149L136.511 167.28L133.219 169.216L132.24 167.569L135.532 165.634L134.309 163.565L130.037 166.079L129.059 164.433L135.221 160.807L140.493 169.638Z" fill="black"/>
<path d="M132.262 174.377L130.126 175.333L123.586 170.817L126.345 177.024L124.342 177.914L120.16 168.526L122.296 167.57L128.836 172.108L126.078 165.901L128.08 165.011L132.262 174.377Z" fill="black"/>
<path d="M119.027 177.713L121.919 176.801L122.497 178.603L114.6 181.095L114.021 179.293L116.913 178.381L114.4 170.394L116.491 169.727L119.027 177.713Z" fill="black"/>
<path d="M102.074 179.76C101.585 179.827 101.14 179.693 100.74 179.404C100.339 179.093 100.117 178.692 100.05 178.203C99.9834 177.713 100.117 177.269 100.406 176.868C100.717 176.468 101.118 176.245 101.607 176.179C102.097 176.112 102.542 176.245 102.942 176.534C103.343 176.846 103.565 177.246 103.632 177.736C103.698 178.225 103.565 178.67 103.276 179.07C102.987 179.449 102.586 179.693 102.074 179.76ZM102.008 179.204C102.364 179.159 102.631 179.004 102.853 178.737C103.076 178.47 103.142 178.158 103.098 177.802C103.053 177.447 102.898 177.18 102.631 176.957C102.364 176.757 102.052 176.668 101.696 176.712C101.363 176.757 101.073 176.913 100.873 177.18C100.651 177.447 100.584 177.758 100.628 178.114C100.673 178.448 100.829 178.737 101.096 178.937C101.363 179.137 101.674 179.248 102.008 179.204Z" fill="black"/>
<path d="M90.172 179.071C89.9496 182.519 87.4358 184.165 84.6995 183.987C82.119 183.831 80.3171 182.23 80.1836 180.005L82.4749 180.161C82.5639 181.229 83.5205 182.029 84.8108 182.096C86.457 182.207 87.814 181.117 87.9474 178.915C88.0809 176.713 86.8796 175.489 85.2334 175.4C83.9209 175.311 82.8531 175.978 82.6084 177.024L80.4061 176.891C80.7397 174.71 82.7196 173.353 85.3447 173.509C88.1254 173.687 90.3722 175.623 90.172 179.071Z" fill="black"/>
<path d="M77.7822 183.23L70.9082 181.985L71.2419 180.116L75.958 180.961L76.3362 178.826L72.5766 178.158L72.9103 176.29L76.6699 176.957L77.0926 174.599L72.2207 173.731L72.5544 171.863L79.5841 173.131L77.7822 183.23Z" fill="black"/>
<path d="M63.7653 169.327L65.8787 169.95L65.4338 172.463C65.3003 173.153 65.6562 173.776 66.3013 173.954L68.2145 174.51L69.2823 170.928L71.4179 171.551L68.5037 181.406L64.3437 180.183C62.2526 179.56 61.4072 177.914 61.9411 176.112C62.2303 175.133 62.92 174.599 63.7876 174.421C63.2759 173.798 63.0757 172.997 63.2537 172.107L63.7653 169.327ZM67.6806 176.334L65.7674 175.778C64.7886 175.489 64.188 176.023 63.9655 176.735C63.7653 177.446 63.9878 178.203 64.9666 178.492L66.8797 179.048L67.6806 176.334Z" fill="black"/>
<path d="M57.8056 175.956L60.6309 177.113L59.919 178.87L52.2441 175.734L52.956 173.976L55.7812 175.133L58.9402 167.369L60.9868 168.192L57.8056 175.956Z" fill="black"/>
<path d="M50.9955 175.044L49.0156 174.065L53.576 164.855L55.5559 165.834L50.9955 175.044Z" fill="black"/>
<path d="M46.7935 172.931L40.7871 169.371L41.7437 167.747L45.8592 170.194L47.016 168.214L43.7236 166.279L44.7024 164.633L47.9948 166.568L50.1304 162.964L52.0213 164.077L46.7935 172.931Z" fill="black"/>
<path d="M39.1191 168.192L37.2949 166.924L43.1679 158.493L44.992 159.761L39.1191 168.192Z" fill="black"/>
<path d="M38.8067 161.83C36.5821 164.477 33.5789 164.321 31.4878 162.542C29.5079 160.873 28.9962 158.537 30.1975 156.669L31.9549 158.159C31.3765 159.071 31.688 160.273 32.689 161.096C33.9571 162.163 35.6922 162.097 37.0937 160.406C38.5175 158.715 38.2728 157.025 36.9825 155.957C35.9592 155.111 34.7357 155 33.9126 155.712L32.2219 154.288C33.7791 152.731 36.1817 152.798 38.206 154.489C40.3639 156.268 41.0313 159.16 38.8067 161.83Z" fill="black"/>
<path d="M28.3734 148.26L30.9095 150.974L33.0896 150.018L34.669 151.686L24.5026 155.89L23.0566 154.356L27.8618 144.456L29.4412 146.125L28.3734 148.26ZM27.4613 149.995L25.8596 153.154L29.1075 151.753L27.4613 149.995Z" fill="black"/>
<path d="M20.3216 148.238L22.1903 150.64L20.6998 151.797L15.6055 145.279L17.0959 144.122L18.9646 146.525L25.5717 141.364L26.9287 143.099L20.3216 148.238Z" fill="black"/>
<path d="M14.872 144.055L13.6484 142.209L22.1909 136.492L23.4144 138.338L14.872 144.055Z" fill="black"/>
<path d="M16.8732 138.005C14.2037 139.451 11.1782 138.561 9.75447 135.891C8.30848 133.244 9.22057 130.219 11.8678 128.773C14.5374 127.327 17.5628 128.216 18.9865 130.864C20.4325 133.533 19.5204 136.559 16.8732 138.005ZM12.9134 130.73C11.2227 131.642 10.5776 133.466 11.4007 135.001C12.246 136.559 14.1147 136.981 15.8054 136.047C17.4961 135.135 18.1412 133.333 17.2958 131.798C16.4727 130.263 14.6041 129.818 12.9134 130.73Z" fill="black"/>
<path d="M6.37344 128.972L5.52809 126.77L10.4 120.497L4.05986 122.921L3.28125 120.875L12.8693 117.204L13.7146 119.406L8.84274 125.68L15.1828 123.255L15.9614 125.302L6.37344 128.972Z" fill="black"/>
<path d="M9.19774 117.07L8.66384 115.024C9.64266 114.69 10.1098 113.845 9.84288 112.799C9.59817 111.843 9.04202 111.309 8.28566 111.509C6.32802 111.998 9.15325 116.781 5.23796 117.782C3.59176 118.205 2.05679 117.093 1.54514 115.068C0.988986 112.91 1.85658 111.153 3.72524 110.619L4.2369 112.644C3.48053 112.91 3.1246 113.645 3.3693 114.601C3.59176 115.447 4.12567 115.869 4.70406 115.713C6.77293 115.18 3.76973 110.374 7.70726 109.373C9.57592 108.906 11.1331 110.108 11.6893 112.332C12.2899 114.579 11.2889 116.448 9.19774 117.07Z" fill="black"/>
</svg>
