<svg width="18" height="17" viewBox="0 0 18 17" fill="none" xmlns="http://www.w3.org/2000/svg">
<path d="M10.9583 6.34184L7.98888 8.98594L6.8278 7.691C6.6406 7.49648 6.36548 7.4136 6.10192 7.47226C5.8384 7.53092 5.62445 7.72279 5.53742 7.97825C5.45038 8.23383 5.50285 8.5164 5.67581 8.72367L7.86588 11.1669L11.9857 7.49571C12.1826 7.30951 12.2679 7.03386 12.2103 6.76895C12.1528 6.50417 11.9609 6.28857 11.7045 6.2009C11.448 6.11309 11.1644 6.16595 10.9567 6.34004L10.9583 6.34184Z" fill="black"/>
<path d="M16.5567 5.99611C16.2781 5.1407 16.5567 4.00671 16.0323 3.28339C15.5079 2.56006 14.3359 2.47134 13.6161 1.94873C12.8963 1.42607 12.4551 0.3446 11.6014 0.0679666C10.7748 -0.199724 9.77663 0.409705 8.86154 0.409705C7.94644 0.409705 6.94823 -0.199721 6.12168 0.0679666C5.26802 0.344613 4.81958 1.44425 4.10707 1.95241C3.39446 2.46053 2.21533 2.56916 1.69268 3.28884C1.17002 4.00865 1.44668 5.1426 1.16638 5.99614C0.904236 6.82269 0 7.58222 0 8.49731C0 9.4124 0.904242 10.1719 1.1665 10.9985C1.44504 11.8539 1.1665 12.9879 1.6909 13.7112C2.2153 14.4345 3.38723 14.5232 4.10703 15.0459C4.82684 15.5685 5.26624 16.6536 6.12165 16.932C6.94629 17.1997 7.94641 16.5902 8.8615 16.5902C9.7766 16.5902 10.7748 17.1996 11.6014 16.932C12.4568 16.6535 12.9052 15.5648 13.616 15.0459C14.3267 14.5269 15.5076 14.4291 16.0321 13.7112C16.5565 12.9933 16.2799 11.8576 16.5565 10.9985C16.8188 10.1719 17.723 9.4124 17.723 8.49731C17.723 7.58222 16.8188 6.82269 16.5566 5.99614L16.5567 5.99611ZM8.86157 14.1362C7.36605 14.1362 5.93173 13.5421 4.87451 12.4845C3.817 11.4271 3.22282 9.99283 3.22282 8.49747C3.22282 7.00211 3.81697 5.56763 4.87451 4.51041C5.93189 3.4529 7.36621 2.85872 8.86157 2.85872C10.3569 2.85872 11.7914 3.45287 12.8486 4.51041C13.9061 5.56779 14.5003 7.00211 14.5003 8.49747C14.5003 9.48723 14.2397 10.4597 13.7448 11.3169C13.2499 12.1741 12.5381 12.886 11.6809 13.3809C10.8237 13.8757 9.8512 14.1364 8.86141 14.1364L8.86157 14.1362Z" fill="black"/>
</svg>
