<svg width="13" height="18" viewBox="0 0 13 18" fill="none" xmlns="http://www.w3.org/2000/svg">
<path fill-rule="evenodd" clip-rule="evenodd" d="M4.52591 11.6655C6.18727 13.2995 8.18297 15.2013 9.51402 16.4541L8.48598 17.5464C7.15036 16.2894 5.14607 14.3794 3.47409 12.735C2.63898 11.9136 1.8815 11.1533 1.33062 10.572C1.05648 10.2828 0.825028 10.0289 0.658849 9.83005C0.577109 9.73223 0.499842 9.6343 0.439202 9.5446C0.409459 9.5006 0.373242 9.4433 0.341682 9.37879C0.321719 9.33799 0.25 9.19142 0.25 9.00025C0.25 8.80908 0.321358 8.66325 0.34132 8.62245C0.37288 8.55794 0.409459 8.4999 0.439202 8.4559C0.499842 8.3662 0.577109 8.26827 0.658849 8.17045C0.825028 7.97158 1.05648 7.71774 1.33062 7.42847C1.8815 6.84718 2.63898 6.08689 3.47409 5.26554C5.14606 3.6211 7.15036 1.71115 8.48598 0.454102L9.51402 1.5464C8.18297 2.79916 6.18727 4.70097 4.52591 6.33497C3.69435 7.15283 2.95183 7.89843 2.41938 8.46027C2.21786 8.67292 2.05122 8.85422 1.92317 9.00025C2.05122 9.14629 2.21786 9.32759 2.41938 9.54024C2.95183 10.1021 3.69435 10.8477 4.52591 11.6655Z" fill="white"/>
<path fill-rule="evenodd" clip-rule="evenodd" d="M13 9.75025L2 9.75025L2 8.25025L13 8.25025V9.75025Z" fill="white"/>
</svg>
