<?xml version="1.0" encoding="utf-8"?>
<!-- Generator: Adobe Illustrator 27.1.1, SVG Export Plug-In . SVG Version: 6.00 Build 0)  -->
<svg version="1.1" id="Layer_1" xmlns="http://www.w3.org/2000/svg" xmlns:xlink="http://www.w3.org/1999/xlink" x="0px" y="0px"
	 viewBox="0 0 1042.4 114.1" style="enable-background:new 0 0 1042.4 114.1;" xml:space="preserve">
<g>
	<path d="M165.3,92.5V20h24.2c21.4,0,34.1,13.6,34.1,36.1c0,22.6-12.8,36.3-34.8,36.3H165.3z M188.2,82.9c16.4,0,24.5-9.6,24.5-26.7
		c0-17.1-8.1-26.5-23.9-26.5h-12.5v53.3H188.2z"/>
	<path d="M265.6,38.2h10.6v54.4h-10.4v-9.4h-0.6c-2.5,5.8-8.1,10.1-16.2,10.1c-10.5,0-17.9-7.1-17.9-20.5V38.2h10.7v33.2
		c0,7.4,4.5,12.1,11,12.1c6,0,12.8-4.4,12.8-13.6V38.2z"/>
	<path d="M282.8,65.6c0-16.6,9.9-28.1,25.2-28.1c12.4,0,21.4,7.3,22.5,18.3h-10.4c-1.1-5.1-5.2-9.4-11.9-9.4
		c-8.8,0-14.7,7.4-14.7,18.9c0,11.9,5.8,19.3,14.7,19.2c6.1,0.1,10.6-3.4,11.9-9.2h10.4c-1.2,10.6-9.5,18.3-22.3,18.3
		C292.3,93.6,282.7,82,282.8,65.6z"/>
	<path d="M336.5,20h10.7v41.1h0.9l21.5-22.9h12.8l-22,23.3l23.5,31h-13.1l-18.5-24.4l-5.2,5.1v19.3h-10.7V20z"/>
</g>
<path d="M408.6,92.5V20h24.2c21.4,0,34.1,13.6,34.1,36.1c0,22.6-12.8,36.3-34.8,36.3H408.6z M431.6,82.9c16.4,0,24.5-9.6,24.5-26.7
	c0-17.1-8.1-26.5-23.9-26.5h-12.5v53.3H431.6z"/>
<path d="M472,65.7c0-16.7,10-28.2,25.1-28.2c12.4,0,24.1,7.7,24.1,27.3v3.8h-38.6C482.9,79,489,84.8,498,84.8c6.1,0,10-2.6,11.8-5.9
	h10.8c-2.4,8.8-10.8,14.7-22.7,14.7C481.8,93.6,472,82.6,472,65.7z M510.8,60.6c0-8.3-5.4-14.4-13.5-14.3
	c-8.6-0.1-14.1,6.7-14.6,14.3H510.8z"/>
<path d="M548,45.9c-6.1,0-10.5,3.2-10.4,7.3c-0.1,3.2,2.5,5.5,8.5,6.9l8.6,2c10,2.3,14.9,7,14.9,14.7c-0.1,9.8-8.4,16.8-22.2,16.8
	c-13.1,0-20.8-5.8-22.1-15.9h10.9c1,4.9,4.7,7.4,11.1,7.3c6.9,0,11.4-2.9,11.4-7.4c-0.1-3.5-2.7-5.8-8.4-7.1l-8.5-1.8
	c-9.8-2.2-14.9-7.4-14.9-14.9c0-9.7,8.4-16.3,21-16.3c12.1,0,19.7,6.2,20.7,15.5h-10.3C557.3,48.7,553.9,45.9,548,45.9z"/>
<path d="M581.4,17.1c3.7,0,6.7,2.8,6.7,6.3c0,3.5-3.1,6.4-6.7,6.3c-3.7,0-6.8-2.8-6.8-6.3C574.6,19.9,577.7,17.1,581.4,17.1z
	 M576,38.2h10.7v54.4H576V38.2z"/>
<path d="M594.7,97.8h10.9c1.1,5.2,5.9,7.7,12.9,7.6c8.5,0,13.9-3.7,13.9-12.1V82.6h-0.7c-1.9,3.5-5.8,9.1-15.8,9.1
	c-12.8,0-22.7-9.6-22.7-26.9S603,37.5,616,37.5c10.1,0,13.8,6.1,15.8,9.5h0.7v-8.8H643v55.6c0,14-10.5,20.3-24.5,20.3
	C604.7,114.1,595.6,108,594.7,97.8z M618.3,82.9c9.1,0,14.2-6.7,14.2-17.9c0-11-5-18.5-14.2-18.4c-9.5,0-14.3,8-14.2,18.4
	C604.1,75.7,609,82.9,618.3,82.9z"/>
<path d="M662.6,92.5h-10.7V38.2h10.3v8.9h0.6c2.6-5.9,7.9-9.6,16-9.6c11.2,0,18.6,7.1,18.5,20.5v34.5h-10.6V59.3
	c0-7.9-4.3-12.6-11.5-12.6c-7.4,0-12.6,5-12.6,13.6V92.5z"/>
<path d="M752.6,28.5c-8.9,0-14.5,4.6-14.5,10.7c0,6.9,7.5,9.6,13.2,10.9l7,1.9c9.3,2.3,20.9,7.3,20.9,20.4
	c0,12.3-9.8,21.2-26.9,21.2c-16.2,0-26.4-8.1-27.1-21.3h11c0.7,7.9,7.7,11.7,16.1,11.7c9.3,0,16-4.7,16-11.8
	c0-6.3-6.1-8.9-13.7-10.9l-8.6-2.3c-11.7-3.2-18.9-9.1-18.9-19.2c0-12.5,11.2-20.8,25.8-20.8c14.7,0,25,8.4,25.3,20.1h-10.7
	C766.8,32.4,760.9,28.5,752.6,28.5z"/>
<path d="M811.5,46.7h-11.1v29.8c0,6.2,3.1,7.3,6.5,7.3c1.6,0,3.9-0.2,5.4-0.3v9.3c-1.5,0.2-3.8,0.4-6.7,0.4
	c-8.4,0-15.9-4.6-15.8-14.5v-32h-8v-8.5h8v-13h10.6v13h11.1V46.7z"/>
<path d="M852.3,38.2H863v54.4h-10.4v-9.4h-0.6c-2.5,5.8-8.1,10.1-16.2,10.1c-10.5,0-17.9-7.1-17.9-20.5V38.2h10.7v33.2
	c0,7.4,4.5,12.1,11,12.1c6,0,12.8-4.4,12.8-13.6V38.2z"/>
<path d="M869.5,65.5c0-17.7,9.8-28,22.8-28c10.1,0,13.8,6.1,15.7,9.5h0.5V20h10.7v72.5h-10.4V84H908c-2,3.6-5.9,9.6-15.8,9.6
	C879.1,93.6,869.5,83,869.5,65.5z M894.6,84.5c9.1,0,14.2-7.8,14.2-19.2c0-11.3-5-18.8-14.2-18.7c-9.5,0-14.3,8-14.2,18.7
	C880.3,76.2,885.2,84.5,894.6,84.5z"/>
<path d="M934.5,17.1c3.7,0,6.7,2.8,6.7,6.3c0,3.5-3.1,6.4-6.7,6.3c-3.7,0-6.8-2.8-6.8-6.3C927.7,19.9,930.8,17.1,934.5,17.1z
	 M929,38.2h10.7v54.4H929V38.2z"/>
<path d="M946.3,65.6c0-16.9,10-28.1,25.4-28.1c15.3,0,25.3,11.2,25.3,28.1c0,16.8-10,28-25.3,28C956.3,93.6,946.2,82.4,946.3,65.6z
	 M971.7,84.7c9.8,0,14.5-8.8,14.5-19.1c0-10.4-4.7-19.3-14.5-19.3c-10,0-14.7,8.9-14.7,19.3C957,76,961.7,84.7,971.7,84.7z"/>
<g>
	<path d="M116.8,31.2C116.8,31.2,116.8,31.2,116.8,31.2l-0.2,0c-9.7,0-18.8-4.5-24.4-12C85,9.5,76.6,0,60.7,0
		C44.5,0,30.3,14.6,30.3,31.2c0,7.9,2.9,15.4,8.3,21.2l3,3.3l6.5-6l-3-3.3c-3.8-4.1-5.9-9.5-5.9-15.1c0-11.9,10-22.3,21.5-22.3
		c10.8,0,16.7,5.3,24.4,15.7c7.3,9.7,19.1,15.6,31.5,15.6l0.2,0c0,0,0,0,0,0c1.7,0,2.4,1.2,2.6,1.7c0.2,0.5,0.5,1.9-0.8,3
		c-9.3,8.2-23.4,7.3-24,7.2l-0.1,0c-38.6-2.2-49,10.2-58.1,21.1c-6.7,8-12.5,14.9-30,16c-3,0.2-5.5,2.2-6.3,5
		c-0.7,2.7,0.4,5.4,2.8,7c10.1,6.5,22.1,9.9,34.1,9.9c6.2,0,12.5-0.9,18.4-2.8c16.7-5.2,30.5-17.3,38.1-33.2l1.9-4l-8-3.8l-1.9,4
		c-6.5,13.7-18.4,24.1-32.7,28.5c-12.7,3.9-26.7,2.9-38.7-2.6c16.1-2.8,22.9-11,29.1-18.4C51.9,68.7,59.9,59.1,94,61
		c1.9,0.1,18.6,1.1,30.5-9.4c3.7-3.3,5-8.3,3.2-12.9C126,34.1,121.7,31.2,116.8,31.2z"/>
</g>
<g>
	<path d="M1010.7,77.8c0-8.7,7.1-15.8,15.8-15.8c8.8,0,15.9,7.1,15.9,15.8c0,8.8-7.1,15.8-15.9,15.8
		C1017.8,93.7,1010.7,86.6,1010.7,77.8z M1026.5,90c6.8,0,12.3-5.5,12.2-12.2c0-6.8-5.5-12.2-12.2-12.2c-6.7,0-12.2,5.5-12.2,12.2
		C1014.3,84.6,1019.8,90,1026.5,90z M1021.7,70.9h5.5c3.1,0,5,1.8,5,4.6c0,1.9-0.8,3.3-2.5,4l2.9,5.2h-3.2l-2.6-4.8h-0.1h-2v4.9h-3
		V70.9z M1026.6,77.5c1.6,0,2.4-0.7,2.5-2c0-1.4-0.8-2.1-2.5-2.1h-1.9v4.1H1026.6z"/>
</g>
<g>
</g>
<g>
</g>
<g>
</g>
<g>
</g>
<g>
</g>
<g>
</g>
<g>
</g>
<g>
</g>
<g>
</g>
<g>
</g>
<g>
</g>
<g>
</g>
<g>
</g>
<g>
</g>
<g>
</g>
</svg>
