<svg width="72" height="84" viewBox="0 0 72 84" fill="none" xmlns="http://www.w3.org/2000/svg">
<g clip-path="url(#clip0_120_797)">
<path d="M8.33113 68.644H0V72.2002H8.09272C9.84106 72.2002 10.3576 72.9814 10.3576 73.9782C10.3576 74.9885 9.84106 75.7832 8.09272 75.7832H0V83.7306H4.02649V79.3394H8.33113C11.9868 79.3394 14.3841 76.9821 14.3841 73.9917C14.3841 70.9744 11.9735 68.644 8.33113 68.644Z" fill="black"/>
<path d="M18.1992 83.7172H31.5502V80.161H22.2257V77.7903H28.5701V74.2342H22.2257V72.2002H31.5502V68.644H18.1992V83.7172Z" fill="black"/>
<path d="M35.9336 83.7172H39.9601V77.7903H46.3045V74.2342H39.9601V72.2002H49.2846V68.644H35.9336V83.7172Z" fill="black"/>
<path d="M59.9737 71.9038C61.3644 71.9038 62.53 72.4291 63.4042 73.4259L66.636 71.136C64.8479 69.2367 62.424 68.3477 59.9737 68.3477C55.1128 68.3477 51.2188 71.7556 51.2188 76.1738C51.2188 80.592 55.1128 84 59.9737 84C62.4108 84 64.8346 83.1244 66.6095 81.2521L63.3512 79.1238C62.5168 79.959 61.3115 80.4573 59.9737 80.4573C57.5764 80.4573 55.3777 78.558 55.3777 76.1873C55.3777 73.8031 57.5631 71.9038 59.9737 71.9038Z" fill="black"/>
<path d="M39.5093 47.8728V41.003H49.0457L36.3437 14.561L30.3702 26.0915C30.5292 26.9401 30.6086 27.8022 30.6086 28.7047C30.6086 33.9581 27.708 38.5379 23.4166 40.9222L23.1914 41.003H33.1384V47.8728H39.5093Z" fill="black"/>
<path d="M12.8338 40.1817V48.0886H19.1914V40.3029C24.251 38.9828 27.9861 34.3895 27.9861 28.9206C27.9861 22.428 22.7145 17.1611 16.2245 17.1611C9.72117 17.1611 4.46289 22.428 4.46289 28.9206C4.46289 34.2278 7.98607 38.7134 12.8338 40.1817Z" fill="black"/>
<path d="M9.72207 16.0564C10.3578 15.7197 11.0201 15.4368 11.7088 15.1944C18.1327 8.4458 27.0598 4.05452 35.9472 4.05452C50.0002 4.05452 58.8744 15.0327 56.4373 28.907L62.0532 23.5728L65.8015 27.8159C67.6956 12.1501 57.2055 0 40.9406 0C29.1393 0 17.3115 6.39833 9.56313 15.8948C9.56313 15.8948 9.5234 15.9622 9.57638 16.0295C9.6426 16.1103 9.72207 16.0564 9.72207 16.0564Z" fill="black"/>
<path d="M25.8142 63.1349C43.1255 63.1349 60.503 49.3684 64.9666 32.2478L61.3374 28.1528L55.0328 34.1201C50.2116 47.1592 36.6752 57.2349 23.2182 57.2349C9.32418 57.2349 0.502984 46.5261 2.63543 32.8943C2.38378 32.0188 2.21159 31.1028 2.13212 30.1734C2.13212 30.1734 2.13212 30.106 2.05265 30.1195C1.99967 30.1195 1.97318 30.1734 1.97318 30.1734C1.84073 30.6448 1.72153 31.1163 1.60232 31.5877C-2.55662 49.0047 8.26457 63.1349 25.8142 63.1349Z" fill="black"/>
<path d="M66.1582 65.4517H68.6483V66.1252H67.8138V68.1592H66.9926V66.1252H66.1582V65.4517Z" fill="black"/>
<path d="M69.0195 65.4517H70.1056L70.503 67.095L70.9136 65.4517H71.9997V68.1592H71.3242V66.0982L70.8076 68.1592H70.1983L69.6818 66.0982V68.1592H69.0195V65.4517Z" fill="black"/>
</g>
<defs>
<clipPath id="clip0_120_797">
<rect width="72" height="84" fill="white"/>
</clipPath>
</defs>
</svg>
