<svg width="552" height="78" viewBox="0 0 552 78" fill="none" xmlns="http://www.w3.org/2000/svg">
<path d="M61.2678 1.29609H45.1398V47.8881C45.1398 57.0721 38.7558 61.7761 31.0278 61.7761C23.5238 61.7761 16.9158 57.0721 16.9158 47.8881V1.29609H0.675781V47.8881C0.675781 66.1441 15.0118 77.0081 31.0278 77.0081C46.9318 77.0081 61.2678 66.1441 61.2678 47.8881V1.29609Z" fill="white"/>
<path d="M73.4592 67.4881C80.8512 73.8721 91.1552 77.0081 100.451 77.0081C114.003 77.0081 128.787 70.4001 128.787 55.3921C128.787 38.9281 113.891 35.0081 102.019 31.8721C94.4032 29.8561 87.9072 28.0641 87.9072 23.0241C87.9072 16.3041 94.8512 14.6241 100.451 14.6241C108.739 14.6241 118.595 18.4321 125.539 25.6001V9.58409C118.595 3.42409 109.187 0.288086 100.451 0.288086C86.8992 0.288086 72.6752 7.34409 72.6752 22.1281C72.6752 40.3841 89.5872 43.1841 101.571 46.8801C107.843 48.6721 112.771 50.4641 112.771 54.4961C112.771 60.7681 106.499 62.5601 101.347 62.5601C92.1632 62.5601 80.8512 58.8641 73.4592 51.4721V67.4881Z" fill="white"/>
<path d="M212.412 76.0001H229.772L202.78 1.29609H186.988L159.996 76.0001H177.356L183.18 59.8721H206.588L212.412 76.0001ZM202.78 47.2161H186.988L194.828 23.1361L202.78 47.2161Z" fill="white"/>
<path d="M235.626 1.29609V76.0001H251.754V49.7921H270.682C283.002 49.7921 293.194 40.3841 293.194 25.9361C293.194 10.5921 283.226 1.29609 270.682 1.29609H235.626ZM251.754 36.1281V15.7441H266.202C272.362 15.7441 276.954 19.5521 276.954 26.8321C276.954 32.7681 272.25 36.1281 266.202 36.1281H251.754Z" fill="white"/>
<path d="M302.376 1.29609V76.0001H318.504V49.7921H337.432C349.752 49.7921 359.944 40.3841 359.944 25.9361C359.944 10.5921 349.976 1.29609 337.432 1.29609H302.376ZM318.504 36.1281V15.7441H332.952C339.112 15.7441 343.704 19.5521 343.704 26.8321C343.704 32.7681 339 36.1281 332.952 36.1281H318.504Z" fill="white"/>
<path d="M408.394 76.0001H425.754L398.762 1.29609H382.97L355.978 76.0001H373.338L379.162 59.8721H402.57L408.394 76.0001ZM398.762 47.2161H382.97L390.81 23.1361L398.762 47.2161Z" fill="white"/>
<path d="M431.609 1.29609V76.0001H447.737V49.7921H456.921L472.825 76.0001H491.081L473.385 48.0001C482.569 44.9761 489.177 37.4721 489.177 26.8321C489.177 10.9281 479.209 1.29609 466.665 1.29609H431.609ZM447.737 36.1281V15.7441H462.185C468.345 15.7441 472.937 19.5521 472.937 26.8321C472.937 32.7681 468.233 36.1281 462.185 36.1281H447.737Z" fill="white"/>
<path d="M551.22 1.29609H495.668V15.7441H515.268V76.0001H531.508V15.7441H551.22V1.29609Z" fill="white"/>
</svg>
